{"glyphs":{"0":{"ha":850,"x_min":79,"x_max":771,"o":"m 115 172 q 87 292 93 235 q 79 418 81 350 q 87 526 82 472 q 104 629 92 579 q 138 725 117 679 q 192 810 158 771 q 320 900 250 865 q 465 935 390 935 q 608 892 550 935 q 703 783 667 850 q 755 635 739 717 q 771 475 771 553 q 765 371 771 425 q 746 265 760 317 q 708 165 732 213 q 650 82 685 118 q 524 0 593 24 q 390 -24 456 -24 q 231 24 304 -24 q 115 172 158 72 m 456 58 q 561 95 522 58 q 619 187 600 132 q 642 305 638 242 q 647 419 647 368 q 637 565 647 489 q 599 705 626 642 q 520 809 571 768 q 390 850 469 850 q 291 815 328 850 q 235 728 254 781 q 211 613 217 675 q 206 496 206 551 q 213 355 206 432 q 245 213 219 278 q 321 103 271 147 q 456 58 371 58 z "},"1":{"ha":639,"x_min":68,"x_max":604,"o":"m 89 28 q 115 52 89 44 q 176 64 142 60 q 244 72 210 68 q 296 83 279 75 l 299 83 l 299 797 q 251 774 276 788 q 199 747 225 760 q 151 726 174 735 q 110 717 128 717 q 81 728 93 717 q 68 751 68 739 q 89 778 68 768 q 158 813 122 793 q 228 853 194 832 q 291 894 261 874 q 343 931 321 914 q 352 935 346 933 q 369 938 358 938 q 401 925 382 938 q 419 903 419 913 l 419 106 q 451 78 422 83 q 515 72 481 74 q 576 63 549 69 q 604 31 604 56 q 557 0 604 0 l 115 0 q 94 10 99 0 q 89 28 89 19 z "},"2":{"ha":781,"x_min":43,"x_max":694,"o":"m 49 17 q 60 40 49 28 q 79 60 71 53 q 251 213 175 142 q 381 353 328 283 q 462 499 433 424 q 490 665 490 574 q 482 726 490 693 q 452 789 474 760 q 394 838 431 818 q 301 858 357 858 q 208 840 242 858 q 175 776 175 822 q 180 752 175 757 q 185 740 185 747 q 175 717 185 729 q 151 696 165 706 q 119 680 136 686 q 89 674 103 674 q 51 693 58 674 q 43 725 43 713 q 72 810 43 771 q 145 877 100 849 q 247 922 190 906 q 357 938 303 938 q 492 913 440 938 q 574 849 544 888 q 615 765 604 811 q 626 679 626 719 q 591 511 626 592 q 497 356 556 431 q 363 210 438 281 q 208 75 288 140 l 582 96 q 610 155 599 133 q 629 187 621 176 q 646 199 638 197 q 667 201 654 201 q 685 194 675 201 q 694 174 694 188 q 693 141 694 161 q 689 101 692 121 q 683 54 686 79 q 663 17 679 35 q 599 0 647 0 l 64 0 q 49 17 49 4 z "},"3":{"ha":774,"x_min":71,"x_max":678,"o":"m 81 57 q 88 85 81 69 q 105 116 94 101 q 128 140 115 131 q 156 150 142 150 q 176 144 169 150 q 203 114 182 129 q 253 86 225 99 q 310 66 281 74 q 361 58 340 58 q 505 102 460 58 q 550 233 550 146 q 533 333 550 294 q 485 395 517 372 q 410 427 454 418 q 310 436 365 436 q 292 436 297 436 q 283 435 288 436 q 274 435 279 435 q 258 435 269 435 q 221 447 221 435 q 234 488 221 469 q 275 506 247 506 l 310 506 q 458 551 411 506 q 506 676 506 597 q 452 818 506 778 q 301 858 399 858 q 226 849 247 858 q 204 804 204 840 q 209 780 204 785 q 214 768 214 775 q 203 745 214 757 q 178 724 193 733 q 147 708 164 714 q 117 701 131 701 q 78 720 85 701 q 71 753 71 739 q 101 826 71 792 q 176 885 132 860 q 272 924 221 910 q 364 938 322 938 q 483 922 432 938 q 567 877 533 906 q 616 812 600 849 q 632 733 632 775 q 618 660 632 697 q 581 590 604 622 q 529 534 558 558 q 468 499 500 510 q 623 428 568 483 q 678 275 678 372 q 644 150 678 206 q 555 56 610 94 q 431 -3 500 18 q 294 -24 363 -24 q 245 -19 281 -24 q 173 -6 210 -15 q 108 19 136 3 q 81 57 81 35 z "},"4":{"ha":775,"x_min":17,"x_max":732,"o":"m 61 239 q 47 245 54 239 q 32 261 39 251 q 21 281 25 271 q 17 300 17 292 q 19 311 17 308 q 88 415 49 349 q 171 562 128 481 q 256 733 214 643 q 332 907 297 822 q 352 930 339 922 q 397 938 365 938 q 444 927 419 938 q 469 892 469 917 q 468 879 469 883 q 386 718 433 803 q 292 555 339 633 q 202 411 244 476 q 132 310 160 346 l 469 310 l 469 481 q 479 506 469 493 q 503 528 489 518 q 533 545 517 539 q 561 551 549 551 q 581 546 572 551 q 590 529 590 540 l 590 310 l 696 310 q 724 308 717 310 q 732 297 732 306 q 711 256 732 274 q 661 239 690 239 l 590 239 l 590 42 q 578 21 588 32 q 555 0 568 10 q 527 -16 542 -10 q 500 -22 513 -22 q 480 -18 490 -22 q 469 -4 469 -14 l 469 239 l 61 239 z "},"5":{"ha":764,"x_min":71,"x_max":681,"o":"m 71 142 q 76 168 71 154 q 92 194 82 182 q 114 213 101 206 q 140 221 126 221 q 161 215 156 221 q 188 154 167 182 q 239 106 210 126 q 302 73 268 85 q 367 61 336 61 q 510 119 465 61 q 556 293 556 178 q 505 444 556 383 q 351 504 454 504 q 265 494 311 504 q 178 460 219 483 q 138 449 158 449 q 122 451 129 449 q 110 464 114 453 l 143 844 q 160 895 143 876 q 207 914 178 914 l 606 914 q 629 896 629 914 q 626 873 629 886 q 617 848 622 860 q 603 828 611 836 q 588 819 596 819 l 264 819 l 226 539 q 276 558 247 549 q 335 574 306 567 q 393 586 365 582 q 439 590 421 590 q 541 572 496 590 q 617 520 586 553 q 665 443 649 488 q 681 346 681 399 q 651 201 681 268 q 572 83 622 133 q 454 5 522 33 q 307 -24 386 -24 q 231 -15 269 -24 q 158 15 192 -6 q 101 66 125 35 q 71 142 78 97 z "},"6":{"ha":813,"x_min":68,"x_max":731,"o":"m 68 353 q 107 565 68 467 q 214 739 146 663 q 374 865 282 815 q 574 933 467 915 l 588 933 q 615 919 615 933 q 609 892 615 907 q 593 865 603 878 q 572 843 583 853 q 551 829 561 833 q 371 772 440 810 q 263 681 301 735 q 212 558 225 626 q 199 406 199 489 q 212 300 199 360 q 254 187 225 240 q 331 97 283 133 q 446 61 378 61 q 518 79 489 61 q 565 126 547 97 q 590 193 582 156 q 597 269 597 231 q 551 450 597 392 q 421 508 506 508 q 333 492 368 508 q 276 460 297 476 q 268 457 274 457 q 253 465 261 457 q 246 474 249 469 q 250 485 246 478 q 258 500 254 492 q 304 546 275 528 q 365 574 333 564 q 427 590 397 585 q 475 594 457 594 q 590 573 542 594 q 670 514 639 551 q 716 427 701 476 q 731 321 731 378 q 707 201 731 263 q 639 90 683 140 q 531 8 594 40 q 386 -24 467 -24 q 248 15 307 -24 q 149 110 189 53 q 88 232 108 167 q 68 353 68 297 z "},"7":{"ha":657,"x_min":35,"x_max":626,"o":"m 171 0 q 174 11 171 3 q 265 216 224 117 q 347 415 307 315 q 428 619 388 515 q 517 839 469 724 l 168 839 q 131 768 146 794 q 106 727 117 742 q 88 708 96 713 q 72 703 81 703 q 48 711 61 703 q 35 735 35 719 q 38 747 35 739 q 56 810 50 781 q 67 864 63 840 q 75 903 71 888 q 88 919 79 918 l 604 919 q 626 889 626 914 q 624 871 626 882 q 544 651 582 757 q 472 442 507 544 q 401 236 436 339 q 325 25 365 133 q 280 -15 314 -7 q 210 -22 246 -22 q 183 -17 196 -22 q 171 0 171 -11 z "},"8":{"ha":819,"x_min":82,"x_max":724,"o":"m 82 208 q 99 288 82 253 q 146 351 117 322 q 213 405 175 381 q 292 451 251 429 q 222 490 254 469 q 164 538 189 511 q 124 600 139 565 q 110 681 110 635 q 140 776 110 731 q 218 857 171 822 q 323 913 265 892 q 433 933 381 933 q 525 917 479 933 q 608 873 571 901 q 667 806 644 844 q 690 724 690 768 q 675 644 690 682 q 633 574 660 607 q 574 515 607 542 q 504 468 540 488 q 670 369 617 421 q 724 239 724 318 q 694 133 724 181 q 615 51 664 85 q 503 -3 565 17 q 375 -22 440 -22 q 257 -5 311 -22 q 164 43 203 13 q 103 116 125 74 q 82 208 82 158 m 450 493 q 498 528 475 510 q 539 569 521 547 q 567 618 557 590 q 578 681 578 646 q 563 746 578 715 q 519 799 547 776 q 452 835 490 822 q 368 849 414 849 q 264 815 304 849 q 224 713 224 781 q 244 643 224 675 q 297 584 265 611 q 370 535 329 557 q 450 493 411 513 m 200 250 q 221 166 200 203 q 275 104 242 129 q 349 67 308 79 q 431 54 390 54 q 495 61 464 54 q 551 85 526 68 q 590 129 575 101 q 604 199 604 157 q 582 279 604 246 q 523 338 560 313 q 440 384 486 364 q 347 425 394 404 q 288 395 315 411 q 242 360 261 379 q 211 314 222 340 q 200 250 200 288 z "},"9":{"ha":814,"x_min":67,"x_max":731,"o":"m 182 -8 q 189 18 182 4 q 206 44 196 32 q 228 67 215 57 q 250 81 240 76 q 350 97 301 92 q 442 128 399 103 q 522 199 492 163 q 570 278 553 235 q 594 377 588 322 q 600 504 600 432 q 588 610 600 550 q 546 726 575 671 q 469 818 517 781 q 353 856 422 856 q 232 796 268 856 q 196 640 196 736 q 246 459 196 518 q 379 400 296 400 q 466 416 431 400 q 525 449 501 432 q 532 451 531 451 q 547 447 542 451 q 556 435 553 442 q 559 425 558 429 q 560 421 560 421 q 556 408 560 417 q 503 369 533 386 q 442 339 472 351 q 385 320 413 326 q 339 314 357 314 q 222 335 272 314 q 136 394 171 357 q 84 482 101 432 q 67 588 67 532 q 88 707 67 646 q 153 819 110 768 q 262 901 197 869 q 414 933 326 933 q 551 895 492 933 q 650 800 610 857 q 710 677 690 743 q 731 556 731 611 q 688 337 731 438 q 575 160 646 236 q 413 38 504 85 q 225 -22 322 -10 l 210 -22 q 182 -8 182 -22 z "},"\u0000":{"ha":0,"x_min":0,"x_max":0,"o":""}," ":{"ha":367,"x_min":0,"x_max":0,"o":""},"!":{"ha":463,"x_min":133,"x_max":324,"o":"m 146 1019 q 204 1038 169 1038 q 253 1031 231 1038 q 286 1019 276 1024 l 268 272 q 238 264 260 264 q 208 268 224 264 q 182 281 193 272 l 146 1019 m 133 35 q 140 63 133 47 q 158 91 147 78 q 183 114 168 104 q 211 124 197 124 q 267 117 244 124 q 301 101 289 111 q 319 80 314 92 q 324 58 324 68 q 316 32 324 46 q 297 6 308 18 q 270 -15 285 -7 q 240 -22 256 -22 q 188 -15 208 -22 q 155 1 167 -8 q 138 21 143 11 q 133 35 133 31 z "},"\"":{"ha":707,"x_min":158,"x_max":549,"o":"m 224 510 q 201 514 210 510 q 182 526 193 518 l 158 968 q 186 983 171 979 q 217 986 201 986 q 258 980 243 986 q 285 968 274 974 l 254 518 q 224 510 246 510 m 488 510 q 465 514 474 510 q 446 526 457 518 l 422 968 q 450 983 435 979 q 481 986 465 986 q 522 980 507 986 q 549 968 538 974 l 518 518 q 488 510 510 510 z "},"#":{"ha":946,"x_min":96,"x_max":819,"o":"m 210 10 q 218 36 210 19 l 240 263 l 122 263 q 96 288 96 272 q 103 304 96 296 q 122 319 111 313 q 143 330 132 325 q 160 336 154 335 l 249 336 l 271 561 l 160 561 q 132 590 132 574 q 154 622 132 608 q 197 636 176 636 l 279 636 l 300 847 q 339 877 311 864 q 388 890 367 890 q 407 872 407 890 q 406 862 407 868 q 404 849 406 856 l 379 636 l 572 636 l 593 847 q 632 877 604 864 q 681 890 660 890 q 700 869 700 890 q 699 860 700 865 q 699 849 699 856 l 672 636 l 792 636 q 819 619 819 635 q 810 601 819 611 q 788 583 801 592 q 758 569 774 575 q 732 561 743 563 l 664 561 l 636 336 l 775 336 q 803 321 803 335 q 793 303 803 313 q 770 285 783 293 q 742 270 757 276 q 717 263 728 264 l 628 263 l 599 24 q 569 -1 589 8 q 531 -11 549 -11 q 504 11 504 -11 q 511 36 504 18 l 533 263 l 333 263 l 306 24 q 276 -1 296 8 q 238 -11 256 -11 q 218 -6 226 -11 q 210 10 210 -1 m 542 336 l 564 561 l 369 561 l 343 336 l 542 336 z "},"$":{"ha":732,"x_min":81,"x_max":672,"o":"m 86 46 q 81 68 81 49 q 81 92 81 72 q 83 139 82 113 q 86 193 85 165 q 88 238 88 221 q 96 256 88 250 q 114 261 104 261 q 130 244 122 261 q 144 208 138 228 q 157 156 151 185 q 228 90 168 118 q 399 63 288 63 q 460 74 431 63 q 515 103 490 85 q 553 147 539 122 q 568 197 568 171 q 533 311 568 271 q 443 376 497 351 q 327 420 389 401 q 211 468 265 439 q 122 546 157 497 q 86 681 86 594 q 106 772 86 731 q 162 846 126 814 q 244 899 197 878 q 346 928 292 919 l 349 1060 q 400 1076 372 1076 q 436 1070 419 1076 q 461 1060 453 1064 l 443 932 q 510 917 476 928 q 569 892 543 907 q 612 860 596 878 q 628 822 628 842 q 628 781 628 807 q 626 731 628 756 q 617 689 624 707 q 596 671 610 671 q 580 686 588 671 q 567 719 572 701 q 554 768 560 740 q 480 830 531 807 q 349 853 429 853 q 288 844 317 853 q 235 819 258 836 q 199 778 213 803 q 185 722 185 754 q 221 618 185 656 q 311 556 257 581 q 428 512 365 532 q 546 462 492 492 q 636 382 600 432 q 672 249 672 332 q 649 151 672 197 q 587 70 626 106 q 495 12 547 35 q 386 -18 443 -11 l 385 -164 q 333 -181 361 -181 q 297 -174 314 -181 q 272 -164 281 -168 l 293 -19 q 233 -9 264 -15 q 174 6 201 -3 q 122 24 146 14 q 86 46 99 35 z "},"%":{"ha":1317,"x_min":86,"x_max":1232,"o":"m 400 -119 q 407 -94 400 -112 l 813 1022 q 849 1053 824 1039 q 896 1067 875 1067 q 917 1047 917 1067 q 916 1037 917 1043 q 914 1024 915 1031 l 494 -107 q 465 -132 485 -122 q 426 -142 444 -142 q 400 -119 400 -142 m 310 379 q 222 394 263 379 q 151 442 181 410 q 103 522 121 474 q 86 636 86 571 q 103 747 86 693 q 156 842 121 800 q 240 908 190 883 q 354 933 290 933 q 463 910 418 933 q 534 851 507 888 q 574 767 561 814 q 586 674 586 721 q 570 568 586 621 q 521 474 554 515 q 435 406 488 432 q 310 379 383 379 m 358 444 q 412 460 390 444 q 447 503 433 476 q 465 565 460 531 q 471 636 471 599 q 463 717 471 676 q 438 792 456 758 q 389 847 419 825 q 313 868 358 868 q 257 850 279 868 q 222 803 235 832 q 203 740 208 775 q 199 674 199 706 q 206 594 199 635 q 232 519 214 553 q 281 465 250 486 q 358 444 313 444 m 728 233 q 746 344 728 290 q 799 439 764 397 q 885 506 835 481 q 1000 531 936 531 q 1106 508 1063 531 q 1178 448 1150 485 q 1219 365 1207 411 q 1232 271 1232 318 q 1215 165 1232 218 q 1165 71 1199 113 q 1078 3 1131 29 q 956 -24 1026 -24 q 867 -8 908 -24 q 794 39 825 7 q 746 119 764 71 q 728 233 728 168 m 844 271 q 851 191 844 232 q 876 117 858 150 q 925 63 894 83 q 1003 42 956 42 q 1057 58 1035 42 q 1092 101 1079 74 q 1111 162 1106 128 q 1117 233 1117 196 q 1109 315 1117 274 q 1083 389 1101 356 q 1035 444 1065 422 q 958 465 1004 465 q 901 447 924 465 q 867 401 879 429 q 849 338 854 372 q 844 271 844 304 z "},"&":{"ha":983,"x_min":83,"x_max":961,"o":"m 83 176 q 102 261 83 222 q 151 333 121 300 q 218 392 181 365 q 294 443 256 419 q 208 569 242 506 q 175 693 175 632 q 199 776 175 733 q 262 854 222 819 q 353 911 301 889 q 464 933 406 933 q 538 919 504 933 q 597 881 572 906 q 636 824 622 857 q 650 751 650 790 q 632 650 650 694 q 584 570 614 606 q 516 508 554 535 q 438 457 478 481 q 567 331 499 392 q 693 218 635 271 q 728 300 713 251 q 743 394 743 349 q 729 460 743 433 q 744 477 733 467 q 769 497 754 488 q 798 512 783 506 q 825 518 813 518 q 841 497 838 518 q 844 454 844 475 q 821 315 844 388 q 740 172 797 243 q 780 138 758 156 q 825 106 801 121 q 873 83 849 92 q 921 74 897 74 q 933 75 929 74 l 940 75 q 954 62 947 75 q 961 46 961 49 q 949 33 961 40 q 919 17 936 25 q 888 3 903 8 q 868 -4 872 -3 q 849 -6 861 -6 q 756 22 804 -6 q 661 88 708 49 q 524 1 599 35 q 367 -32 450 -32 q 263 -19 314 -32 q 173 21 213 -6 q 109 86 133 47 q 83 176 85 125 m 439 529 q 515 597 483 557 q 547 699 547 636 q 509 813 547 769 q 392 857 471 857 q 346 845 365 857 q 314 816 326 833 q 295 778 301 799 q 289 740 289 758 q 319 622 289 681 q 397 504 349 563 l 439 529 m 204 239 q 222 159 204 193 q 272 103 240 125 q 344 69 303 81 q 429 58 385 58 q 524 78 478 58 q 611 131 571 99 q 529 205 565 172 q 461 269 493 238 q 399 331 429 300 q 333 399 368 361 q 242 329 279 367 q 204 239 204 292 z "},"'":{"ha":443,"x_min":158,"x_max":285,"o":"m 224 510 q 201 514 210 510 q 182 526 193 518 l 158 968 q 186 983 171 979 q 217 986 201 986 q 258 980 243 986 q 285 968 274 974 l 254 518 q 224 510 246 510 z "},"(":{"ha":576,"x_min":121,"x_max":397,"o":"m 121 322 q 144 553 121 450 q 201 737 167 657 q 278 872 236 817 q 358 954 319 926 l 361 954 l 361 954 l 361 951 q 367 948 361 951 q 379 939 372 944 q 392 928 386 933 q 397 915 397 922 q 383 896 397 901 q 344 835 368 882 q 299 714 321 789 q 262 539 278 639 q 246 318 246 439 q 262 107 246 199 q 299 -49 278 15 q 344 -151 321 -112 q 383 -203 368 -189 q 397 -224 397 -211 q 388 -244 397 -235 q 363 -257 378 -254 q 361 -258 361 -257 l 361 -261 l 361 -261 l 358 -261 q 278 -186 319 -233 q 201 -68 236 -139 q 144 99 167 3 q 121 322 121 196 z "},")":{"ha":576,"x_min":0,"x_max":0,"o":""},"*":{"ha":964,"x_min":131,"x_max":832,"o":"m 264 464 q 236 482 236 464 q 240 499 236 489 l 353 653 l 435 749 q 385 747 418 749 q 329 744 353 744 q 235 747 285 744 q 146 753 186 749 q 131 774 131 757 q 140 797 131 786 q 162 817 149 808 q 189 830 175 825 q 213 835 203 835 q 267 831 238 835 q 325 821 296 826 q 381 810 354 815 q 425 800 407 804 l 381 863 q 341 938 361 899 q 306 1013 321 976 q 311 1035 306 1024 q 325 1058 317 1047 q 344 1076 333 1069 q 368 1083 356 1083 q 389 1078 379 1083 q 424 993 408 1038 q 453 908 440 949 q 465 860 460 889 q 476 817 471 832 q 511 882 492 840 q 555 963 531 924 q 608 1032 579 1003 q 672 1061 638 1061 q 699 1040 699 1061 q 685 1006 699 1028 q 653 960 672 985 q 615 913 635 936 q 581 871 594 889 l 506 789 l 597 792 q 708 786 649 789 q 815 781 767 783 q 828 769 824 774 q 832 758 832 765 q 822 738 832 749 q 799 719 813 728 q 772 704 786 710 q 750 697 758 699 q 690 705 722 700 q 626 716 657 710 q 566 728 594 722 q 517 738 538 735 l 581 639 l 650 501 l 651 490 q 629 449 651 469 q 588 428 607 428 q 561 450 575 428 q 534 504 547 472 q 509 574 521 536 q 488 640 497 611 q 476 685 481 660 q 467 725 472 711 l 446 674 q 392 578 422 629 q 338 490 361 528 q 307 474 331 483 q 264 464 283 464 z "},"+":{"ha":808,"x_min":154,"x_max":681,"o":"m 368 444 l 178 444 q 154 469 154 454 q 161 486 154 478 q 178 501 168 494 q 199 513 189 508 q 217 519 210 518 l 368 519 l 368 678 q 392 719 371 697 q 433 740 414 740 q 450 733 443 740 q 458 706 457 725 l 458 519 l 651 519 q 681 504 681 518 q 671 486 681 496 q 648 467 661 476 q 620 452 635 458 q 594 444 606 446 l 458 444 l 458 279 q 451 263 457 274 q 436 242 444 251 q 417 224 428 232 q 397 217 407 217 q 368 242 379 217 l 368 444 z "},",":{"ha":336,"x_min":82,"x_max":275,"o":"m 82 38 q 105 101 82 82 q 164 119 128 119 q 220 104 199 119 q 254 67 242 89 q 271 23 267 46 q 275 -15 275 0 q 119 -285 275 -193 l 118 -285 l 118 -285 l 118 -282 q 100 -271 108 -276 q 88 -260 93 -267 q 82 -247 82 -254 q 97 -228 82 -236 q 124 -201 111 -218 q 148 -163 138 -183 q 165 -122 158 -143 q 171 -82 171 -101 q 153 -22 171 -22 q 95 -5 108 -22 q 82 38 82 13 z "},"-":{"ha":707,"x_min":146,"x_max":565,"o":"m 172 313 q 156 321 165 313 q 146 344 146 329 q 153 363 146 354 q 169 380 160 372 q 187 392 178 388 q 201 396 196 396 l 532 396 q 555 390 544 396 q 565 376 565 383 q 558 346 565 358 q 538 326 550 333 q 514 315 526 318 q 492 313 501 313 l 172 313 z "},".":{"ha":342,"x_min":85,"x_max":275,"o":"m 85 35 q 92 63 85 47 q 109 91 99 78 q 134 114 119 104 q 163 124 149 124 q 218 117 196 124 q 253 101 240 111 q 270 80 265 92 q 275 58 275 68 q 267 32 275 46 q 248 6 260 18 q 222 -15 236 -7 q 192 -22 207 -22 q 139 -15 160 -22 q 106 1 118 -8 q 90 21 94 11 q 85 35 85 31 z "},"/":{"ha":596,"x_min":38,"x_max":557,"o":"m 450 956 q 489 985 461 972 q 538 999 517 999 q 557 979 557 999 q 557 969 557 975 q 556 957 557 964 l 136 -174 q 106 -199 126 -189 q 64 -208 85 -208 q 38 -186 38 -208 q 44 -161 38 -179 l 450 956 z "},":":{"ha":361,"x_min":94,"x_max":285,"o":"m 94 639 q 101 667 94 651 q 119 695 108 682 q 144 718 129 708 q 172 728 158 728 q 228 722 206 728 q 263 706 250 715 q 280 684 275 696 q 285 663 285 672 q 277 636 285 650 q 258 610 269 622 q 231 590 246 597 q 201 582 217 582 q 149 589 169 582 q 116 606 128 596 q 99 625 104 615 q 94 639 94 635 m 94 35 q 101 63 94 47 q 119 91 108 78 q 144 114 129 104 q 172 124 158 124 q 228 117 206 124 q 263 101 250 111 q 280 80 275 92 q 285 58 285 68 q 277 32 285 46 q 258 6 269 18 q 231 -15 246 -7 q 201 -22 217 -22 q 149 -15 169 -22 q 116 1 128 -8 q 99 21 104 11 q 94 35 94 31 z "},";":{"ha":361,"x_min":93,"x_max":286,"o":"m 93 38 q 116 101 93 82 q 175 119 139 119 q 231 104 210 119 q 265 67 253 89 q 282 23 278 46 q 286 -15 286 0 q 131 -285 286 -193 l 129 -285 l 129 -285 l 129 -282 q 111 -271 119 -276 q 99 -260 104 -267 q 93 -247 93 -254 q 108 -228 93 -236 q 135 -201 122 -218 q 159 -163 149 -183 q 176 -122 169 -143 q 182 -82 182 -101 q 164 -22 182 -22 q 106 -5 119 -22 q 93 38 93 13 m 94 639 q 101 667 94 651 q 119 695 108 682 q 144 718 129 708 q 172 728 158 728 q 228 722 206 728 q 263 706 250 715 q 280 684 275 696 q 285 663 285 672 q 277 636 285 650 q 258 610 269 622 q 231 590 246 597 q 201 582 217 582 q 149 589 169 582 q 116 606 128 596 q 99 625 104 615 q 94 639 94 635 z "},"<":{"ha":786,"x_min":88,"x_max":669,"o":"m 132 311 q 98 340 108 324 q 88 383 88 356 q 99 428 88 413 q 132 451 111 443 l 626 733 q 651 721 633 733 q 669 689 669 708 q 644 663 669 682 q 580 619 619 644 q 490 563 540 593 q 390 501 440 532 q 292 443 339 471 q 213 393 246 415 q 294 344 247 371 q 391 288 340 317 q 492 231 442 260 q 581 176 542 201 q 645 131 621 151 q 669 97 669 110 q 652 63 669 75 q 626 51 635 51 l 132 311 z "},"=":{"ha":892,"x_min":140,"x_max":753,"o":"m 164 444 q 140 469 140 454 q 147 486 140 478 q 165 501 154 494 q 185 513 175 508 q 201 519 196 518 l 724 519 q 753 504 753 518 q 744 486 753 496 q 721 467 735 476 q 693 452 707 458 q 668 444 679 446 l 164 444 m 164 194 q 140 219 140 204 q 147 236 140 228 q 165 251 154 244 q 185 263 175 258 q 201 269 196 268 l 724 269 q 753 254 753 268 q 744 236 753 246 q 721 217 735 226 q 693 202 707 208 q 668 194 679 196 l 164 194 z "},">":{"ha":786,"x_min":88,"x_max":669,"o":"m 88 97 q 112 123 88 104 q 176 167 136 142 q 265 224 215 193 q 364 284 314 254 q 460 342 414 314 q 540 393 507 371 q 458 442 506 415 q 361 497 411 468 q 262 553 311 525 q 174 608 213 582 q 111 655 135 633 q 88 689 88 676 q 103 722 88 710 q 126 733 119 733 l 621 474 q 659 446 649 461 q 669 403 669 431 q 657 358 669 374 q 621 333 644 342 l 126 51 q 103 64 119 51 q 88 97 88 76 z "},"?":{"ha":740,"x_min":100,"x_max":654,"o":"m 374 229 q 337 250 350 229 q 324 299 324 271 q 339 393 324 354 q 376 460 354 432 q 425 511 399 489 q 474 556 451 533 q 511 608 496 579 q 526 678 526 638 q 511 762 526 728 q 470 817 496 796 q 412 846 444 838 q 344 854 379 854 q 262 836 292 854 q 232 772 232 818 q 237 748 232 753 q 242 736 242 743 q 232 713 242 725 q 208 692 222 701 q 176 676 193 682 q 146 669 160 669 q 108 689 115 669 q 100 721 100 708 q 132 806 100 767 q 210 873 164 844 q 308 917 256 901 q 400 933 360 933 q 490 922 444 933 q 572 885 536 911 q 631 815 608 858 q 654 707 654 771 q 638 626 654 663 q 597 560 622 590 q 538 503 571 529 q 472 453 506 478 l 439 432 q 429 392 429 418 q 436 328 429 363 q 446 275 443 294 q 419 244 442 260 q 374 229 396 229 m 304 35 q 311 63 304 47 q 328 91 318 78 q 353 114 339 104 q 382 124 368 124 q 438 117 415 124 q 472 101 460 111 q 490 80 485 92 q 494 58 494 68 q 487 32 494 46 q 467 6 479 18 q 441 -15 456 -7 q 411 -22 426 -22 q 358 -15 379 -22 q 326 1 338 -8 q 309 21 314 11 q 304 35 304 31 z "},"@":{"ha":1396,"x_min":97,"x_max":1331,"o":"m 97 174 q 129 374 97 278 q 217 556 161 471 q 351 710 274 640 q 517 831 428 781 q 706 910 607 882 q 904 938 804 938 q 1081 905 1001 938 q 1215 817 1160 872 q 1301 689 1271 763 q 1331 533 1331 615 q 1309 358 1331 432 q 1250 227 1288 283 q 1160 127 1213 171 q 1047 40 1108 83 q 1007 18 1031 29 q 958 -2 983 7 q 906 -17 932 -11 q 861 -22 881 -22 q 794 2 819 -22 q 764 79 768 26 q 669 6 721 35 q 556 -22 618 -22 q 494 -8 524 -22 q 440 32 464 6 q 402 97 417 58 q 388 185 388 135 q 429 365 388 282 q 535 508 471 447 q 677 602 599 568 q 828 636 756 636 q 890 628 860 636 q 943 604 919 621 q 994 627 967 618 q 1036 636 1021 636 q 1054 617 1054 636 q 1053 601 1054 607 q 999 464 1028 538 q 947 322 971 390 q 907 197 922 253 q 892 114 892 142 q 906 73 892 86 q 957 60 921 60 q 1042 101 994 60 q 1133 206 1090 142 q 1203 347 1175 269 q 1232 496 1232 424 q 1200 658 1232 590 q 1113 772 1168 726 q 985 838 1058 817 q 828 860 911 860 q 588 804 701 860 q 390 657 475 749 q 254 447 304 565 q 204 200 204 328 q 230 34 204 114 q 308 -107 256 -46 q 444 -204 361 -168 q 640 -240 526 -240 q 867 -209 775 -240 q 1010 -129 958 -178 q 1039 -112 1021 -118 q 1068 -106 1057 -106 q 1086 -122 1086 -106 q 1083 -135 1086 -128 q 1071 -154 1081 -143 q 892 -269 1003 -229 q 625 -310 781 -310 q 431 -282 526 -310 q 262 -196 336 -254 q 142 -46 188 -137 q 97 174 97 46 m 525 222 q 547 106 525 151 q 615 60 568 60 q 699 89 660 60 q 771 158 738 118 q 816 323 782 233 q 885 504 850 413 q 837 553 867 538 q 774 568 807 568 q 681 533 726 568 q 601 444 636 497 q 546 331 567 392 q 525 222 525 271 z "},"A":{"ha":793,"x_min":-47,"x_max":832,"o":"m -21 0 q -42 10 -37 0 q -47 28 -47 19 q -36 42 -47 36 q -10 53 -25 49 q 19 62 4 58 q 42 69 35 65 l 325 854 q 363 908 342 890 q 413 926 383 926 q 447 921 431 926 q 532 701 497 799 q 598 511 567 603 q 662 324 629 419 q 739 110 694 229 q 763 74 751 82 q 806 57 774 65 q 825 49 818 54 q 832 31 832 44 q 821 12 832 24 q 785 0 810 0 l 574 0 q 552 10 557 0 q 547 28 547 19 q 564 46 547 40 l 617 69 q 581 174 597 124 q 550 272 565 224 q 378 273 457 272 q 206 274 300 274 l 146 100 q 161 74 146 81 q 194 63 176 67 q 226 53 211 58 q 240 31 240 47 q 193 0 240 0 l -21 0 m 232 353 q 384 351 318 353 q 526 350 450 350 q 464 559 496 454 q 383 789 432 664 l 232 353 z "},"B":{"ha":843,"x_min":67,"x_max":789,"o":"m 67 33 q 78 48 67 42 q 103 59 89 54 q 133 68 118 64 q 156 76 149 72 l 156 838 q 133 845 149 842 q 103 854 118 849 q 78 866 89 860 q 67 881 67 872 q 72 901 67 889 q 93 914 76 914 l 217 914 q 281 915 257 914 q 326 919 306 917 q 369 922 346 921 q 431 924 392 924 q 532 914 481 924 q 625 879 583 904 q 693 810 667 854 q 719 697 719 767 q 675 581 719 639 q 553 493 631 524 q 661 471 617 492 q 734 420 706 450 q 776 356 763 390 q 789 294 789 322 q 753 147 789 204 q 660 56 717 89 q 532 12 603 24 q 392 0 461 0 l 371 0 l 93 0 q 72 13 76 0 q 67 33 67 25 m 278 511 q 314 508 296 508 q 356 508 332 508 q 463 522 418 508 q 538 559 508 536 q 581 613 567 582 q 594 675 594 643 q 583 758 594 725 q 544 812 572 792 q 469 841 517 832 q 350 850 422 850 q 278 846 314 850 l 278 511 m 278 82 q 348 75 310 76 q 422 74 386 74 q 503 84 463 74 q 579 117 544 94 q 635 178 614 140 q 657 269 657 215 q 609 401 657 360 q 438 443 561 443 l 418 443 l 344 443 q 310 442 326 443 q 278 440 293 442 l 278 82 z "},"C":{"ha":788,"x_min":57,"x_max":764,"o":"m 435 -22 q 299 7 367 -22 q 178 94 232 36 q 90 238 124 151 q 57 436 57 324 q 91 643 57 551 q 186 799 125 735 q 332 899 247 864 q 518 933 417 933 q 598 924 558 933 q 671 899 638 914 q 726 867 704 885 q 749 833 747 850 q 750 782 749 814 q 749 720 751 750 q 735 668 746 690 q 700 646 725 646 q 682 665 692 646 q 665 707 672 683 q 646 768 656 733 q 621 800 640 785 q 574 828 601 815 q 515 848 547 840 q 454 856 483 856 q 325 824 376 856 q 242 739 274 792 q 199 617 211 686 q 186 474 186 547 q 210 303 186 379 q 276 172 233 226 q 378 89 319 118 q 504 60 436 60 q 534 63 515 60 q 574 70 553 65 q 615 84 594 75 q 649 106 635 93 q 668 120 656 111 q 694 138 681 129 q 719 152 707 146 q 735 158 731 158 q 754 155 744 158 q 764 143 764 151 q 761 128 764 136 q 751 114 758 121 q 435 -22 643 -22 z "},"D":{"ha":900,"x_min":67,"x_max":856,"o":"m 67 33 q 78 48 67 42 q 103 59 89 54 q 133 68 118 64 q 156 76 149 72 l 156 838 q 133 845 149 842 q 103 854 118 849 q 78 866 89 860 q 67 881 67 872 q 72 901 67 889 q 93 914 76 914 l 203 914 q 295 919 239 914 q 410 924 351 924 q 609 894 525 924 q 748 807 693 864 q 829 669 803 750 q 856 485 856 588 q 828 305 856 393 q 742 147 800 217 q 594 35 683 78 q 385 -7 506 -7 q 346 -6 364 -7 q 307 -3 328 -4 q 260 -1 286 -3 q 199 0 235 0 l 93 0 q 72 13 76 0 q 67 33 67 25 m 279 67 q 318 65 292 67 q 379 63 344 63 q 641 172 550 63 q 732 471 732 281 q 713 615 732 546 q 653 735 694 683 q 545 818 611 788 q 386 849 479 849 l 279 849 l 279 67 z "},"E":{"ha":744,"x_min":67,"x_max":708,"o":"m 67 33 q 78 48 67 42 q 103 59 89 54 q 133 68 118 64 q 156 76 149 72 l 156 838 q 133 845 149 842 q 103 854 118 849 q 78 866 89 860 q 67 881 67 872 q 72 901 67 889 q 93 914 76 914 l 572 914 q 640 908 618 914 q 661 872 661 901 q 657 832 661 856 q 647 786 653 808 q 631 749 640 764 q 611 733 622 733 q 583 752 590 733 q 566 792 575 771 q 542 833 557 814 q 492 851 526 851 l 279 851 l 279 519 l 522 525 q 546 510 546 524 q 542 487 546 501 q 531 459 538 472 q 514 435 524 446 q 493 424 504 425 l 279 443 l 279 69 q 335 69 300 69 q 401 68 369 68 q 504 72 458 68 q 568 88 550 76 q 597 124 583 96 q 620 181 610 151 q 638 235 631 211 q 650 258 646 258 q 697 240 686 258 q 708 165 708 222 q 707 111 708 140 q 703 58 706 82 q 697 17 700 33 q 692 0 694 0 l 93 0 q 72 13 76 0 q 67 33 67 25 z "},"F":{"ha":694,"x_min":67,"x_max":661,"o":"m 67 33 q 78 48 67 42 q 103 59 89 54 q 133 68 118 64 q 156 76 149 72 l 156 838 q 133 845 149 842 q 103 854 118 849 q 78 866 89 860 q 67 881 67 872 q 72 901 67 889 q 93 914 76 914 l 540 914 q 585 913 564 914 q 624 908 607 913 q 651 896 640 904 q 661 872 661 888 q 657 823 661 856 q 647 758 653 790 q 631 702 640 726 q 611 678 622 678 q 582 705 592 678 q 563 765 572 732 q 538 824 553 797 q 492 851 522 851 l 279 851 l 279 496 l 544 506 q 568 489 568 504 q 564 467 568 481 q 553 442 560 454 q 538 419 546 429 q 519 408 529 410 l 279 421 l 279 79 q 323 73 296 75 q 377 67 350 71 q 424 55 404 63 q 443 33 443 47 q 437 13 443 26 q 415 0 431 0 l 93 0 q 72 13 76 0 q 67 33 67 25 z "},"G":{"ha":897,"x_min":49,"x_max":835,"o":"m 49 436 q 87 643 49 551 q 193 799 125 735 q 353 899 261 864 q 553 933 444 933 q 643 923 599 933 q 723 897 688 913 q 781 863 758 881 q 806 828 804 844 l 806 700 q 799 690 806 694 q 785 682 793 685 q 769 678 778 679 q 757 676 761 676 q 741 692 750 676 q 722 728 732 708 q 700 779 711 750 q 674 810 694 796 q 623 834 653 824 q 558 850 593 844 q 489 856 522 856 q 345 824 404 856 q 249 739 286 792 q 197 617 213 686 q 181 474 181 547 q 206 302 181 379 q 277 171 232 225 q 385 87 322 117 q 524 57 449 57 q 568 58 538 57 q 631 66 599 58 q 687 91 663 74 q 711 143 711 108 l 711 350 l 568 350 q 518 356 529 350 q 507 368 507 361 q 534 418 507 404 q 607 432 561 432 l 835 432 l 835 135 q 833 118 835 128 q 819 99 831 108 q 747 42 792 65 q 650 5 701 19 q 547 -16 599 -10 q 454 -22 496 -22 q 309 7 382 -22 q 178 94 236 36 q 85 238 121 151 q 49 436 49 324 z "},"H":{"ha":997,"x_min":67,"x_max":940,"o":"m 67 33 q 78 48 67 42 q 103 59 89 54 q 133 68 118 64 q 156 76 149 72 l 156 838 q 133 845 149 842 q 103 854 118 849 q 78 866 89 860 q 67 881 67 872 q 72 901 67 889 q 93 914 76 914 l 332 914 q 368 902 357 914 q 379 883 379 890 q 365 860 379 867 q 332 850 350 854 q 298 840 314 846 q 281 817 282 833 l 281 507 l 717 507 l 717 838 q 694 845 710 842 q 665 854 679 849 q 639 866 650 860 q 628 881 628 872 q 633 901 628 889 q 654 914 638 914 l 893 914 q 929 902 918 914 q 940 883 940 890 q 925 860 940 865 q 891 851 910 854 q 857 840 872 847 q 842 811 842 832 l 842 103 q 857 74 842 82 q 891 63 872 67 q 925 54 910 60 q 940 31 940 49 q 929 12 940 24 q 893 0 918 0 l 654 0 q 633 13 638 0 q 628 33 628 25 q 639 48 628 42 q 665 59 650 54 q 694 68 679 64 q 717 76 710 72 l 717 435 q 704 432 708 432 l 281 432 l 281 103 q 296 74 281 82 q 330 63 311 67 q 364 54 349 60 q 379 31 379 49 q 368 12 379 24 q 332 0 357 0 l 93 0 q 72 13 76 0 q 67 33 67 25 z "},"I":{"ha":436,"x_min":67,"x_max":379,"o":"m 67 33 q 78 48 67 42 q 103 59 89 54 q 133 68 118 64 q 156 76 149 72 l 156 838 q 133 845 149 842 q 103 854 118 849 q 78 866 89 860 q 67 881 67 872 q 72 901 67 889 q 93 914 76 914 l 332 914 q 368 902 357 914 q 379 883 379 890 q 365 860 379 867 q 332 850 350 854 q 298 840 314 846 q 281 817 282 833 l 281 97 q 298 73 282 79 q 332 63 314 67 q 365 53 350 58 q 379 31 379 47 q 368 12 379 24 q 332 0 357 0 l 93 0 q 72 13 76 0 q 67 33 67 25 z "},"J":{"ha":471,"x_min":106,"x_max":426,"o":"m 149 -94 q 176 -59 165 -74 q 193 -25 188 -44 q 201 25 199 -6 q 203 107 203 56 l 203 838 q 181 845 196 842 q 151 854 165 849 q 125 866 136 860 q 114 881 114 872 q 119 901 114 889 q 140 914 124 914 l 379 914 q 415 902 404 914 q 426 883 426 890 q 411 860 426 867 q 378 850 396 854 q 344 840 360 846 q 326 817 328 833 l 326 121 q 322 22 326 65 q 301 -58 317 -22 q 254 -122 285 -93 q 172 -178 224 -151 q 141 -191 150 -189 q 124 -193 132 -193 q 110 -178 115 -193 q 106 -157 106 -164 q 119 -130 106 -146 q 149 -94 133 -114 z "},"K":{"ha":907,"x_min":67,"x_max":896,"o":"m 67 33 q 78 48 67 42 q 103 59 89 54 q 133 68 118 64 q 156 76 149 72 l 156 838 q 133 845 149 842 q 103 854 118 849 q 78 866 89 860 q 67 881 67 872 q 72 901 67 889 q 93 914 76 914 l 325 914 q 361 902 350 914 q 372 883 372 890 q 358 860 372 867 q 325 850 343 854 q 291 840 307 846 q 274 817 275 833 l 274 407 l 606 838 q 585 844 600 840 q 555 853 569 847 q 528 865 540 858 q 517 881 517 872 q 522 901 517 889 q 543 914 526 914 l 786 914 q 822 902 811 914 q 833 883 833 890 q 817 863 833 871 q 781 848 801 854 q 741 836 760 842 q 717 824 722 831 l 492 563 l 785 93 q 815 74 792 82 q 869 57 838 65 q 889 49 882 54 q 896 31 896 44 q 885 12 896 24 q 849 0 874 0 l 588 0 q 566 13 571 0 q 561 33 561 25 q 572 48 561 42 q 598 59 583 54 q 628 68 613 64 q 650 76 643 72 l 415 474 l 274 308 l 274 103 q 289 74 274 82 q 323 63 304 67 q 357 54 342 60 q 372 31 372 49 q 361 12 372 24 q 325 0 350 0 l 93 0 q 72 13 76 0 q 67 33 67 25 z "},"L":{"ha":728,"x_min":67,"x_max":683,"o":"m 67 33 q 78 48 67 42 q 103 59 89 54 q 133 68 118 64 q 156 76 149 72 l 156 838 q 133 845 149 842 q 103 854 118 849 q 78 866 89 860 q 67 881 67 872 q 72 901 67 889 q 93 914 76 914 l 332 914 q 368 902 357 914 q 379 883 379 890 q 364 860 379 867 q 330 850 349 854 q 295 840 311 846 q 278 817 279 833 l 278 65 q 353 66 310 65 q 440 69 397 67 q 518 76 483 71 q 565 90 553 82 q 586 131 576 103 q 604 189 596 160 q 619 242 613 218 q 629 267 625 265 q 643 272 635 269 q 660 275 651 275 q 681 260 679 275 q 683 213 683 244 q 681 145 683 182 q 675 76 679 108 q 666 22 671 44 q 656 0 661 0 l 93 0 q 72 13 76 0 q 67 33 67 25 z "},"M":{"ha":1257,"x_min":31,"x_max":1228,"o":"m 31 17 q 31 29 31 24 q 40 40 32 35 q 63 51 47 46 q 108 60 79 56 l 231 840 l 229 840 q 192 851 218 842 q 151 861 167 861 q 128 869 136 861 q 119 889 119 878 q 127 906 119 899 q 151 914 135 914 l 278 914 q 293 913 279 913 q 318 913 304 913 q 344 914 332 914 q 376 911 371 914 l 582 314 l 621 138 q 710 445 674 319 q 772 654 747 571 q 810 784 796 738 q 833 853 825 831 q 843 883 840 876 q 846 890 846 889 q 856 908 849 901 q 882 914 864 914 l 1079 914 q 1106 883 1106 914 q 1094 871 1106 876 q 1067 860 1083 865 q 1031 851 1050 856 q 997 842 1013 847 l 1135 63 q 1203 49 1179 58 q 1228 15 1228 40 q 1217 4 1228 8 q 1182 0 1207 0 l 946 0 q 922 5 926 0 q 917 17 917 10 q 939 44 917 36 q 1004 60 961 53 l 900 813 l 661 36 q 652 15 661 22 q 630 5 643 8 q 601 1 617 1 q 574 0 586 0 l 365 565 l 304 779 q 299 800 301 790 q 292 818 296 810 l 207 63 q 283 49 254 58 q 311 15 311 40 q 302 4 311 8 q 269 0 293 0 l 56 0 q 35 5 39 0 q 31 17 31 10 z "},"N":{"ha":957,"x_min":54,"x_max":938,"o":"m 54 33 q 65 48 54 42 q 91 59 76 54 q 121 68 106 64 q 143 76 136 72 l 143 814 q 128 832 142 825 q 97 844 114 839 q 67 856 81 850 q 54 872 54 863 q 59 897 54 881 q 81 914 64 914 l 192 914 q 216 906 207 914 q 236 882 225 897 l 681 286 l 750 144 l 750 838 q 728 846 743 842 q 698 855 713 850 q 672 866 683 860 q 661 881 661 872 q 666 901 661 889 q 688 914 671 914 l 890 914 q 926 902 915 914 q 938 883 938 890 q 922 860 938 865 q 888 851 907 854 q 854 840 869 847 q 839 811 839 832 l 839 36 q 830 15 839 22 q 808 5 821 8 q 779 1 794 1 q 751 0 764 0 l 317 565 l 229 722 l 229 103 q 244 74 229 82 q 278 63 260 67 q 313 54 297 60 q 328 31 328 49 q 317 12 328 24 q 281 0 306 0 l 81 0 q 59 13 64 0 q 54 33 54 25 z "},"O":{"ha":918,"x_min":56,"x_max":876,"o":"m 56 425 q 84 613 56 521 q 168 775 113 704 q 308 890 224 846 q 501 933 392 933 q 674 897 603 933 q 790 797 744 860 q 856 653 835 735 q 876 481 876 571 q 849 294 876 385 q 767 134 822 204 q 629 21 711 64 q 436 -22 547 -22 q 263 14 335 -22 q 144 111 190 50 q 77 253 99 172 q 56 425 56 335 m 478 58 q 615 94 561 58 q 701 183 669 129 q 744 302 732 238 q 757 426 757 367 q 740 581 757 504 q 688 717 724 657 q 595 815 651 778 q 460 851 539 851 q 322 816 376 851 q 234 726 267 781 q 188 605 201 671 q 175 479 175 539 q 193 326 175 401 q 249 191 211 250 q 343 95 286 132 q 478 58 400 58 z "},"P":{"ha":764,"x_min":67,"x_max":736,"o":"m 67 33 q 78 48 67 42 q 103 59 89 54 q 133 68 118 64 q 156 76 149 72 l 156 838 q 133 845 149 842 q 103 854 118 849 q 78 866 89 860 q 67 881 67 872 q 72 901 67 889 q 93 914 76 914 l 217 914 q 287 916 257 914 q 344 921 317 918 q 399 926 371 924 q 467 928 428 928 q 565 913 517 928 q 651 867 613 899 q 713 785 689 835 q 736 667 736 736 q 708 509 736 575 q 626 400 679 443 q 501 337 574 357 q 338 317 428 317 q 314 317 331 317 q 278 318 297 317 l 278 103 q 296 74 278 82 q 335 63 314 67 q 375 54 357 60 q 393 31 393 49 q 382 12 393 24 q 346 0 371 0 l 93 0 q 72 13 76 0 q 67 33 67 25 m 278 388 q 315 383 296 385 q 357 381 333 381 q 543 447 475 381 q 611 654 611 513 q 595 749 611 711 q 547 809 579 786 q 469 841 515 832 q 361 850 422 850 q 278 846 319 850 l 278 388 z "},"Q":{"ha":918,"x_min":56,"x_max":951,"o":"m 56 425 q 84 613 56 521 q 168 775 113 704 q 308 890 224 846 q 501 933 392 933 q 674 897 603 933 q 790 797 744 860 q 856 653 835 735 q 876 481 876 571 q 858 326 876 401 q 802 186 839 250 q 709 74 765 122 q 578 0 653 25 q 752 -103 668 -64 q 915 -143 836 -143 q 944 -149 938 -143 q 951 -167 951 -154 q 939 -187 951 -172 q 909 -217 926 -201 q 873 -244 892 -232 q 842 -256 854 -256 q 744 -234 790 -256 q 657 -178 699 -212 q 578 -102 615 -144 q 508 -17 542 -60 q 473 -21 490 -19 q 436 -22 456 -22 q 263 14 335 -22 q 144 111 190 50 q 77 253 99 172 q 56 425 56 335 m 478 58 q 615 94 561 58 q 701 183 669 129 q 744 302 732 238 q 757 426 757 367 q 740 581 757 504 q 688 717 724 657 q 595 815 651 778 q 460 851 539 851 q 322 816 376 851 q 234 726 267 781 q 188 605 201 671 q 175 479 175 539 q 193 326 175 401 q 249 191 211 250 q 343 95 286 132 q 478 58 400 58 z "},"R":{"ha":846,"x_min":67,"x_max":856,"o":"m 67 33 q 78 48 67 42 q 103 59 89 54 q 133 68 118 64 q 156 76 149 72 l 156 838 q 133 845 149 842 q 103 854 118 849 q 78 866 89 860 q 67 881 67 872 q 72 901 67 889 q 93 914 76 914 l 222 914 q 278 916 253 914 q 331 920 304 918 q 388 924 358 922 q 456 926 418 926 q 560 911 511 926 q 645 865 608 896 q 703 790 682 835 q 724 685 724 744 q 713 602 724 643 q 681 525 703 561 q 624 460 658 489 q 544 417 590 432 q 613 385 585 411 q 664 319 642 358 q 705 230 686 279 q 743 131 724 181 q 779 77 760 92 q 816 58 799 63 q 844 49 833 53 q 856 29 856 46 q 847 11 856 22 q 800 0 839 0 l 686 0 q 664 6 674 0 q 644 27 654 11 q 623 73 635 43 q 594 151 611 103 q 517 338 556 286 q 439 390 478 390 l 281 390 l 281 103 q 299 74 281 82 q 338 63 317 67 q 378 54 360 60 q 396 31 396 49 q 385 12 396 24 q 349 0 374 0 l 93 0 q 72 13 76 0 q 67 33 67 25 m 281 460 q 331 458 304 458 q 388 458 357 458 q 547 506 497 458 q 597 654 597 554 q 582 751 597 713 q 538 811 567 789 q 468 842 510 833 q 374 851 426 851 q 324 850 351 851 q 281 847 297 849 l 281 460 z "},"S":{"ha":696,"x_min":75,"x_max":656,"o":"m 81 46 q 75 67 75 49 q 76 89 75 69 q 78 135 76 108 q 81 191 79 163 q 82 238 82 219 q 90 256 82 250 q 108 261 99 261 q 124 244 117 261 q 139 208 132 228 q 151 156 146 185 q 222 90 163 118 q 389 63 281 63 q 449 74 419 63 q 501 103 478 85 q 538 147 524 122 q 551 197 551 171 q 517 308 551 268 q 430 372 482 347 q 317 416 378 397 q 205 465 257 435 q 118 544 153 494 q 83 681 83 593 q 110 784 83 738 q 180 864 136 831 q 282 915 224 897 q 403 933 340 933 q 474 924 438 933 q 542 899 511 915 q 592 864 572 883 q 611 824 611 844 q 611 783 611 808 q 609 732 611 757 q 600 689 607 707 q 579 671 593 671 q 563 686 571 671 q 550 719 556 701 q 538 768 543 740 q 465 830 514 807 q 339 853 417 853 q 281 844 308 853 q 231 819 253 836 q 195 778 208 803 q 182 722 182 754 q 217 624 182 660 q 305 565 253 589 q 419 519 357 540 q 533 467 481 499 q 620 384 585 435 q 656 249 656 333 q 628 142 656 192 q 555 56 600 93 q 451 -1 510 19 q 329 -22 392 -22 q 263 -17 300 -22 q 191 -1 226 -11 q 126 21 156 8 q 81 46 96 33 z "},"T":{"ha":863,"x_min":50,"x_max":811,"o":"m 236 40 q 253 58 236 53 q 294 68 271 64 q 340 75 317 72 q 375 83 364 78 l 375 847 l 317 847 q 237 847 269 847 q 184 835 204 846 q 155 799 164 824 q 146 726 146 775 q 147 678 146 703 q 149 635 149 654 q 145 597 149 610 q 125 583 142 583 q 94 593 110 583 q 75 613 78 603 q 68 657 72 625 q 60 728 64 689 q 53 808 56 768 q 50 875 50 847 q 56 914 50 914 l 794 914 q 806 876 803 914 q 810 792 810 838 q 810 714 810 751 q 808 648 811 676 q 794 602 804 619 q 763 585 785 585 q 746 589 754 585 q 737 624 742 592 q 725 698 732 657 q 710 778 718 739 q 690 829 701 817 q 636 844 671 842 q 554 847 601 847 l 500 847 l 500 107 q 522 81 501 88 q 567 72 543 75 q 612 62 592 68 q 632 38 632 56 q 621 15 632 31 q 585 0 610 0 l 263 0 q 241 16 246 0 q 236 40 236 32 z "},"U":{"ha":872,"x_min":44,"x_max":856,"o":"m 106 838 q 91 847 101 842 q 70 857 81 851 q 52 869 60 863 q 44 881 44 875 q 49 901 44 889 q 71 914 54 914 l 294 914 q 331 902 319 914 q 342 883 342 890 q 325 860 342 865 q 288 851 308 854 q 251 840 268 847 q 235 811 235 832 l 235 424 q 244 254 235 324 q 279 141 254 185 q 349 78 304 97 q 465 58 394 58 q 557 69 518 58 q 622 119 596 81 q 660 233 647 158 q 674 438 674 308 l 674 838 q 651 845 667 842 q 622 854 636 849 q 596 866 607 860 q 585 881 585 872 q 589 901 585 889 q 611 914 593 914 l 808 914 q 844 902 833 914 q 856 883 856 890 q 842 861 856 867 q 813 851 829 856 q 784 840 797 847 q 771 811 771 832 l 771 399 q 756 244 771 319 q 703 109 742 168 q 597 14 664 50 q 428 -22 531 -22 q 106 353 106 -22 l 106 838 z "},"V":{"ha":825,"x_min":-33,"x_max":857,"o":"m 40 839 q 22 847 35 842 q -3 856 10 851 q -24 867 -15 861 q -33 881 -33 874 q -28 901 -33 889 q -7 914 -24 914 l 224 914 q 260 902 249 914 q 271 883 271 890 q 258 863 271 869 q 230 852 246 856 q 198 846 214 849 q 174 839 182 843 l 433 158 l 674 838 q 647 845 664 842 q 614 853 631 849 q 585 865 597 858 q 572 881 572 871 q 577 901 572 889 q 599 914 582 914 l 815 914 q 849 902 840 914 q 857 883 857 890 q 850 865 857 869 q 831 857 843 860 q 790 847 803 850 q 767 824 778 843 l 439 -14 l 382 -14 l 40 839 z "},"W":{"ha":1118,"x_min":-69,"x_max":1203,"o":"m 6 839 q -12 846 0 842 q -37 856 -25 850 q -60 867 -50 861 q -69 881 -69 874 q -65 901 -69 889 q -43 914 -60 914 l 192 914 q 228 902 217 914 q 239 883 239 890 q 224 863 239 869 q 192 851 210 856 q 159 840 175 846 q 139 821 143 833 l 364 161 l 535 686 l 485 838 q 464 844 478 840 q 436 854 450 849 q 412 866 422 860 q 401 881 401 872 q 406 901 401 889 q 428 914 411 914 l 679 914 q 715 902 704 914 q 726 883 726 890 q 719 865 726 869 q 700 857 713 860 q 638 847 653 850 q 614 824 622 843 l 819 178 l 1017 838 q 992 846 1008 842 q 959 855 975 850 q 931 866 943 860 q 918 881 918 872 q 923 901 918 889 q 944 914 928 914 l 1161 914 q 1194 902 1186 914 q 1203 883 1203 890 q 1196 865 1203 869 q 1176 857 1189 860 q 1151 851 1161 853 q 1133 844 1140 849 q 1119 833 1125 840 q 1107 811 1114 826 l 826 -14 l 768 -14 l 579 554 l 371 -14 l 314 -14 l 6 839 z "},"X":{"ha":846,"x_min":18,"x_max":849,"o":"m 18 33 q 29 48 18 42 q 55 59 40 54 q 83 68 69 64 q 104 76 97 72 l 365 456 l 103 838 q 82 844 96 840 q 53 854 68 849 q 28 866 39 860 q 18 881 18 872 q 23 901 18 889 q 44 914 28 914 l 289 914 q 325 902 314 914 q 336 883 336 890 q 326 864 336 871 q 301 853 315 857 q 270 848 286 850 q 244 843 254 846 l 439 531 l 639 842 q 617 849 632 846 q 586 856 601 851 q 560 865 571 860 q 549 881 549 871 q 553 901 549 889 q 575 914 558 914 l 792 914 q 825 902 817 914 q 833 883 833 890 q 826 865 833 869 q 807 857 819 860 q 781 851 792 853 q 763 846 771 849 q 747 836 754 843 q 729 814 740 829 l 483 472 l 751 88 q 776 74 760 79 q 809 63 793 68 q 837 50 825 57 q 849 31 849 43 q 838 12 849 24 q 801 0 826 0 l 549 0 q 527 13 532 0 q 522 33 522 25 q 533 48 522 42 q 560 59 544 54 q 590 67 575 64 q 614 75 606 71 l 408 400 l 224 99 q 239 72 224 79 q 272 62 254 65 q 306 53 290 58 q 321 31 321 47 q 310 12 321 24 q 274 0 299 0 l 44 0 q 23 13 28 0 q 18 33 18 25 z "},"Y":{"ha":758,"x_min":-24,"x_max":793,"o":"m 194 40 q 210 58 194 51 q 249 68 226 64 q 292 75 271 72 q 325 83 314 78 l 325 381 l 54 838 q 35 845 49 840 q 9 856 22 850 q -14 867 -4 861 q -24 881 -24 874 q -19 901 -24 889 q 3 914 -14 914 l 233 914 q 269 902 258 914 q 281 883 281 890 q 269 864 281 871 q 241 853 257 857 q 210 847 225 849 q 186 840 194 844 l 403 446 l 615 838 q 589 845 607 842 q 553 853 571 849 q 522 865 535 858 q 508 881 508 871 q 513 901 508 889 q 535 914 518 914 l 751 914 q 785 902 776 914 q 793 883 793 890 q 786 865 793 869 q 767 857 779 860 q 741 850 751 853 q 723 843 731 847 q 708 831 715 839 q 692 810 701 824 l 450 378 l 450 107 q 473 81 451 88 q 519 72 494 75 q 565 63 544 68 q 585 38 585 57 q 574 15 585 31 q 538 0 563 0 l 221 0 q 199 16 204 0 q 194 40 194 32 z "},"Z":{"ha":783,"x_min":49,"x_max":743,"o":"m 49 64 q 57 102 49 83 q 89 153 65 121 l 525 783 l 583 853 q 316 839 401 853 q 215 801 231 825 q 208 772 214 793 q 192 728 201 751 q 172 688 183 706 q 149 671 161 671 q 121 678 133 671 q 108 694 108 686 q 112 728 108 708 q 119 772 115 749 q 127 822 124 796 q 131 872 131 847 q 131 899 131 888 q 140 914 132 910 l 668 914 q 692 891 676 914 q 707 844 707 868 q 700 818 707 826 l 263 181 l 169 64 q 301 64 231 64 q 434 67 371 64 q 544 76 497 69 q 606 97 592 83 q 636 143 622 115 q 662 198 650 171 q 684 244 674 225 q 703 264 694 264 q 727 258 711 264 q 743 240 743 253 q 740 188 743 226 q 731 108 736 149 q 719 34 725 67 q 707 0 713 1 l 100 0 q 79 8 89 0 q 63 28 69 17 q 52 49 56 39 q 49 64 49 60 z "},"[":{"ha":578,"x_min":131,"x_max":406,"o":"m 131 914 l 301 914 q 349 913 332 914 q 376 909 367 911 q 387 903 385 907 q 389 896 389 900 q 384 875 389 883 q 365 862 379 867 q 324 856 350 857 q 256 854 297 854 l 256 -162 q 335 -172 306 -167 q 380 -182 364 -176 q 401 -193 396 -187 q 406 -206 406 -199 q 401 -219 406 -214 q 378 -224 397 -224 l 131 -224 l 131 914 z "},"\\":{"ha":596,"x_min":38,"x_max":557,"o":"m 44 951 q 38 976 38 968 q 64 999 38 999 q 106 989 85 999 q 136 964 126 979 l 556 -167 q 557 -179 557 -174 q 557 -189 557 -185 q 538 -208 557 -208 q 489 -195 517 -208 q 450 -165 461 -182 l 44 951 z "},"]":{"ha":578,"x_min":172,"x_max":447,"o":"m 172 -206 q 176 -193 172 -199 q 197 -182 181 -187 q 242 -172 213 -176 q 322 -162 272 -167 l 322 854 q 215 861 244 854 q 186 890 186 868 q 187 900 186 896 q 195 908 188 904 q 222 913 203 911 q 276 914 240 914 l 447 914 l 447 -224 l 197 -224 q 176 -219 181 -224 q 172 -206 172 -214 z "},"^":{"ha":790,"x_min":106,"x_max":686,"o":"m 150 368 q 117 384 129 368 q 106 407 106 400 l 311 882 q 340 892 317 889 q 397 894 363 894 q 451 892 431 894 q 475 882 472 889 l 686 407 q 674 384 686 400 q 639 368 663 368 q 600 411 629 368 q 534 519 571 454 q 460 660 497 583 q 396 801 422 736 q 341 683 374 750 q 275 553 308 617 q 213 440 242 490 q 169 374 185 390 q 150 368 163 368 z "},"_":{"ha":917,"x_min":-56,"x_max":950,"o":"m 917 -114 q 940 -120 929 -114 q 950 -133 950 -126 q 942 -165 950 -153 q 923 -184 935 -176 q 899 -194 911 -192 q 876 -197 886 -197 l -29 -197 q -46 -189 -36 -197 q -56 -165 -56 -181 q -49 -147 -56 -156 q -33 -130 -42 -137 q -15 -118 -24 -122 q 0 -114 -6 -114 l 917 -114 z "},"`":{"ha":332,"x_min":25,"x_max":279,"o":"m 214 767 q 173 804 200 778 q 117 863 146 831 q 62 928 88 894 q 25 986 36 961 l 25 989 q 34 1010 25 996 q 56 1038 43 1024 q 83 1063 68 1053 q 108 1074 97 1074 q 122 1067 119 1074 l 279 796 l 279 794 q 265 775 279 788 q 231 763 250 763 q 214 767 222 763 z "},"a":{"ha":661,"x_min":54,"x_max":642,"o":"m 54 140 q 86 246 54 203 q 171 317 118 289 q 291 361 224 346 q 429 382 358 376 l 429 413 q 425 479 429 446 q 406 540 421 513 q 360 576 389 568 q 304 583 332 583 q 246 581 267 583 q 215 574 225 579 q 202 558 204 568 q 200 529 200 547 q 205 505 200 510 q 210 493 210 500 q 201 470 210 482 q 178 449 192 458 q 149 435 165 440 q 119 429 133 429 q 81 448 88 429 q 74 481 74 467 q 106 546 74 514 q 185 604 139 578 q 282 647 232 631 q 367 663 332 663 q 462 644 425 663 q 518 597 499 626 q 544 531 538 568 q 551 457 551 494 l 551 60 q 583 66 567 60 q 617 72 600 72 q 637 67 632 72 q 642 51 642 61 q 631 34 642 46 q 599 10 619 22 q 553 -12 579 -3 q 494 -22 526 -22 q 449 -11 468 -22 q 429 26 429 0 l 429 79 q 350 6 393 35 q 246 -22 307 -22 q 158 -7 194 -22 q 98 33 121 8 q 65 85 75 57 q 54 140 54 114 m 185 186 q 213 93 185 131 q 315 56 240 56 q 374 76 343 56 q 429 131 406 97 l 429 318 q 347 310 390 317 q 268 290 304 304 q 208 251 232 276 q 185 186 185 226 z "},"b":{"ha":694,"x_min":18,"x_max":654,"o":"m 83 915 q 35 928 53 919 q 18 944 18 936 q 34 974 18 963 q 73 992 50 986 q 122 1001 96 999 q 168 1004 147 1004 q 188 1003 179 1004 q 200 992 197 1001 l 200 779 l 189 579 q 278 640 229 617 q 389 663 328 663 q 490 643 442 663 q 574 586 538 624 q 632 494 610 549 q 654 369 654 439 q 633 230 654 300 q 567 103 611 160 q 456 13 522 47 q 299 -22 389 -22 q 167 3 224 -22 q 82 58 110 29 l 83 915 m 200 114 q 234 86 214 97 q 275 69 254 75 q 316 60 296 63 q 349 57 336 57 q 428 77 396 57 q 481 132 461 97 q 510 212 501 167 q 519 308 519 257 q 470 508 519 432 q 325 585 421 585 q 260 572 292 585 q 200 526 228 558 l 200 114 z "},"c":{"ha":582,"x_min":44,"x_max":550,"o":"m 44 281 q 67 437 44 367 q 132 557 90 507 q 233 635 174 607 q 368 663 293 663 q 424 657 393 663 q 480 637 454 651 q 523 599 506 622 q 540 538 540 575 q 531 499 540 515 q 508 473 522 483 q 478 456 494 463 q 444 447 461 450 q 424 455 432 447 q 413 488 415 463 q 386 572 406 551 q 325 592 367 592 q 254 572 283 592 q 207 516 225 551 q 181 434 189 481 q 172 333 172 388 q 183 234 172 283 q 218 146 194 185 q 279 83 242 107 q 369 58 317 58 q 415 67 397 58 q 447 87 432 76 q 477 106 461 97 q 518 114 493 114 q 543 108 536 114 q 550 94 550 101 q 528 53 550 74 q 474 15 507 32 q 404 -12 442 -1 q 335 -22 367 -22 q 206 3 261 -22 q 115 69 151 28 q 62 166 79 111 q 44 281 44 221 z "},"d":{"ha":725,"x_min":40,"x_max":693,"o":"m 40 271 q 62 409 40 339 q 127 535 83 479 q 237 627 171 592 q 393 663 303 663 q 501 647 451 663 l 494 775 l 494 906 q 460 911 479 908 q 424 918 440 914 q 395 926 407 922 q 383 935 383 931 q 401 966 383 953 q 447 988 418 979 q 510 1000 475 996 q 579 1004 544 1004 q 599 1003 589 1004 q 611 992 608 1001 l 611 60 q 640 65 625 60 q 672 69 656 69 q 689 64 685 69 q 693 49 693 58 q 683 31 693 43 q 656 8 674 19 q 614 -13 639 -4 q 557 -22 589 -22 q 501 26 501 -22 l 501 63 q 417 0 463 22 q 306 -22 371 -22 q 206 -2 254 -22 q 122 56 158 18 q 63 147 85 93 q 40 271 40 201 m 367 54 q 432 67 397 54 q 496 107 467 81 l 494 529 q 463 558 482 547 q 422 574 443 568 q 379 581 400 579 q 344 582 358 582 q 213 517 251 582 q 175 329 175 451 q 223 131 175 207 q 367 54 271 54 z "},"e":{"ha":668,"x_min":51,"x_max":611,"o":"m 51 281 q 74 431 51 361 q 137 551 96 500 q 237 633 178 603 q 368 663 296 663 q 494 631 447 663 q 567 551 542 600 q 601 445 593 503 q 611 333 610 388 q 593 310 611 313 q 556 307 575 307 l 179 307 q 194 215 182 260 q 228 136 206 171 q 287 80 251 101 q 369 58 322 58 q 453 66 421 58 q 506 83 485 74 q 541 99 526 92 q 572 107 556 107 q 592 92 592 107 q 571 53 592 74 q 515 16 550 33 q 433 -12 479 -1 q 335 -22 386 -22 q 208 3 261 -22 q 119 69 154 28 q 68 166 85 111 q 51 281 51 221 m 474 379 q 467 460 472 422 q 446 526 461 499 q 401 571 431 554 q 325 588 372 588 q 220 526 256 588 q 179 369 185 464 l 474 379 z "},"f":{"ha":449,"x_min":31,"x_max":514,"o":"m 49 28 q 60 42 49 36 q 85 53 71 49 q 115 63 100 58 q 136 71 129 67 l 136 557 l 49 557 q 35 563 39 557 q 31 574 31 569 q 44 592 31 582 q 77 613 58 603 q 113 628 96 622 q 136 636 131 635 l 136 694 q 154 815 136 757 q 207 919 172 874 q 290 991 242 964 q 399 1018 339 1018 q 433 1013 413 1018 q 471 995 453 1007 q 501 965 489 983 q 514 922 514 947 q 504 899 514 911 q 480 877 494 888 q 448 860 465 867 q 417 853 431 853 q 397 867 400 853 q 390 898 393 881 q 378 929 386 915 q 342 943 369 943 q 294 919 311 943 q 267 863 276 896 q 256 792 258 829 q 254 731 254 756 l 254 636 l 389 636 q 408 630 403 635 q 413 619 413 625 q 397 581 413 603 q 363 557 382 560 l 254 557 l 254 100 q 276 74 256 81 q 322 65 297 68 q 367 56 347 61 q 388 31 388 50 q 340 0 388 0 l 75 0 q 53 10 58 0 q 49 28 49 19 z "},"g":{"ha":672,"x_min":25,"x_max":650,"o":"m 106 94 q 135 168 106 133 q 200 231 164 203 q 83 291 125 246 q 40 415 40 336 q 63 521 40 475 q 124 598 85 567 q 219 646 164 629 q 343 663 275 663 q 449 643 399 663 q 495 683 471 661 q 540 725 519 706 q 577 758 561 744 q 600 771 593 771 q 633 758 617 771 q 650 726 650 746 q 631 681 650 700 q 587 651 613 663 q 535 632 561 639 q 492 619 508 625 q 547 560 526 596 q 568 479 568 524 q 546 363 568 411 q 486 283 524 314 q 399 237 449 251 q 296 222 350 222 l 263 222 q 238 178 249 203 q 228 124 228 154 q 249 89 228 97 q 307 81 269 81 q 540 29 469 75 q 610 -86 610 -17 q 574 -222 610 -165 q 483 -315 538 -279 q 364 -368 428 -351 q 246 -385 300 -385 q 80 -330 135 -385 q 25 -186 25 -275 q 38 -120 25 -150 q 70 -67 50 -90 q 115 -27 90 -44 q 164 3 139 -10 q 119 37 132 11 q 106 94 107 63 m 314 292 q 420 321 381 292 q 460 425 460 350 q 411 551 460 508 q 293 594 363 594 q 184 568 215 594 q 153 471 153 542 q 190 338 153 383 q 314 292 226 292 m 140 -149 q 183 -260 140 -218 q 331 -303 226 -303 q 419 -292 386 -303 q 470 -259 453 -281 q 493 -203 488 -237 q 499 -124 499 -169 q 431 -38 499 -72 q 226 0 363 -4 q 140 -149 140 -54 z "},"h":{"ha":732,"x_min":28,"x_max":733,"o":"m 28 28 q 37 41 28 35 q 58 53 46 47 q 83 63 71 58 q 101 71 96 68 l 101 915 q 53 928 71 919 q 36 944 36 936 q 52 975 36 964 q 92 993 68 986 q 144 1002 117 1000 q 192 1004 171 1004 q 212 1003 203 1004 q 224 992 221 1001 l 224 581 q 324 639 271 615 q 440 663 378 663 q 528 651 488 663 q 592 600 569 639 l 589 600 q 622 528 617 565 q 626 457 626 492 l 626 103 q 643 74 626 82 q 680 63 660 67 q 717 54 700 60 q 733 31 733 49 q 722 12 733 24 q 686 0 711 0 l 461 0 q 440 10 444 0 q 435 28 435 19 q 444 41 435 35 q 465 52 453 47 q 490 62 478 57 q 507 69 501 67 l 507 401 q 474 539 507 499 q 385 579 440 579 q 299 565 343 579 q 224 522 256 550 l 224 103 q 240 74 224 82 q 278 63 257 67 q 315 54 299 60 q 332 31 332 49 q 285 0 332 0 l 54 0 q 33 10 38 0 q 28 28 28 19 z "},"i":{"ha":389,"x_min":60,"x_max":364,"o":"m 60 28 q 71 42 60 35 q 97 55 82 49 q 127 66 113 61 q 150 75 142 71 l 150 528 q 120 535 136 531 q 91 546 104 540 q 69 557 78 551 q 60 568 60 563 q 76 597 60 582 q 118 622 93 611 q 171 641 143 633 q 221 649 199 649 q 249 646 233 649 q 267 635 264 643 l 267 103 q 282 74 267 82 q 315 63 297 67 q 349 53 333 58 q 364 31 364 47 q 317 0 364 0 l 86 0 q 65 10 69 0 q 60 28 60 19 m 208 769 q 157 777 178 769 q 125 794 136 785 q 109 814 114 804 q 104 828 104 824 q 111 854 104 839 q 129 883 118 869 q 154 905 140 896 q 182 914 168 914 q 267 892 243 914 q 290 850 290 869 q 283 824 290 838 q 263 798 275 810 q 237 778 251 786 q 208 769 222 769 z "},"j":{"ha":347,"x_min":11,"x_max":283,"o":"m 131 528 q 74 546 103 533 q 44 568 44 558 q 61 597 44 582 q 102 622 78 611 q 154 641 126 633 q 204 649 182 649 q 233 646 218 649 q 251 635 249 643 l 251 22 q 243 -78 251 -35 q 216 -156 235 -121 q 166 -221 197 -192 q 89 -276 135 -250 q 57 -293 68 -289 q 36 -297 46 -297 q 19 -287 28 -297 q 11 -269 11 -276 q 53 -221 11 -251 q 117 -124 104 -182 q 131 8 131 -67 l 131 528 m 201 769 q 150 777 171 769 q 118 794 129 785 q 102 814 107 804 q 97 828 97 824 q 104 854 97 839 q 122 883 111 869 q 147 905 133 896 q 175 914 161 914 q 260 892 236 914 q 283 850 283 869 q 276 824 283 838 q 256 798 268 810 q 230 778 244 786 q 201 769 215 769 z "},"k":{"ha":692,"x_min":28,"x_max":725,"o":"m 28 28 q 37 41 28 35 q 58 53 46 47 q 83 63 71 58 q 101 71 96 68 l 101 915 q 51 928 71 919 q 32 944 32 936 q 48 975 32 964 q 88 993 64 986 q 140 1002 113 1000 q 188 1004 167 1004 q 208 1003 199 1004 q 219 992 217 1001 l 219 308 l 454 572 q 426 577 442 575 q 399 583 411 579 q 377 593 386 588 q 368 606 368 599 q 376 625 368 614 q 399 636 383 636 l 608 636 q 642 631 632 636 q 651 619 651 626 q 629 585 651 596 q 581 572 607 575 l 404 400 l 613 88 q 640 72 621 78 q 677 62 658 67 q 710 51 696 57 q 725 31 725 44 q 714 12 725 24 q 678 0 703 0 l 453 0 q 431 10 436 0 q 426 28 426 19 q 443 46 426 40 l 485 64 l 324 322 l 219 218 l 219 103 q 234 74 219 82 q 267 63 249 67 q 299 53 285 58 q 314 31 314 47 q 267 0 314 0 l 54 0 q 33 10 38 0 q 28 28 28 19 z "},"l":{"ha":354,"x_min":43,"x_max":332,"o":"m 43 28 q 52 41 43 35 q 74 53 61 47 q 99 63 86 58 q 117 71 111 68 l 117 915 q 65 928 86 919 q 43 944 43 936 q 60 975 43 964 q 101 993 76 986 q 152 1002 125 1000 q 201 1004 179 1004 q 233 992 228 1004 l 233 103 q 249 74 233 82 q 283 63 264 67 q 317 54 301 60 q 332 31 332 49 q 285 0 332 0 l 69 0 q 48 10 53 0 q 43 28 43 19 z "},"m":{"ha":1160,"x_min":47,"x_max":1147,"o":"m 60 28 q 69 41 60 35 q 90 53 78 47 q 115 63 103 58 q 133 71 128 68 l 133 528 q 76 546 106 533 q 47 568 47 558 q 64 597 47 582 q 105 622 81 611 q 157 641 129 633 q 206 649 185 649 q 239 635 236 649 l 239 564 q 347 633 289 604 q 472 663 404 663 q 573 642 529 663 q 643 564 617 622 q 749 633 692 604 q 868 663 806 663 q 953 649 913 663 q 1018 600 993 636 q 1049 528 1043 564 q 1054 457 1054 492 l 1054 97 q 1069 73 1054 79 q 1101 63 1083 67 q 1133 53 1118 58 q 1147 31 1147 47 q 1136 12 1147 24 q 1100 0 1125 0 l 892 0 q 870 10 875 0 q 865 28 865 19 q 874 41 865 35 q 895 53 883 47 q 919 63 907 58 q 936 71 931 68 l 935 401 q 901 539 933 499 q 814 579 868 579 q 737 567 778 579 q 672 525 696 554 l 658 513 q 663 457 663 483 l 663 103 q 677 74 663 82 q 709 63 692 67 q 741 53 726 58 q 756 31 756 47 q 744 12 756 24 q 708 0 733 0 l 499 0 q 477 10 482 0 q 472 28 472 19 q 481 41 472 35 q 502 53 490 47 q 526 63 514 58 q 543 71 538 68 l 543 401 q 507 539 543 499 q 417 579 471 579 q 331 563 375 579 q 254 514 286 546 l 253 103 q 267 74 253 82 q 300 63 282 67 q 333 53 318 58 q 347 31 347 47 q 300 0 347 0 l 86 0 q 65 10 69 0 q 60 28 60 19 z "},"n":{"ha":769,"x_min":47,"x_max":746,"o":"m 60 28 q 69 41 60 35 q 90 53 78 47 q 115 63 103 58 q 133 71 128 68 l 133 528 q 76 546 106 533 q 47 568 47 558 q 64 597 47 582 q 105 622 81 611 q 157 641 129 633 q 206 649 185 649 q 239 635 236 649 l 239 564 q 344 635 288 607 q 471 663 400 663 q 556 649 519 663 q 621 600 593 636 q 656 528 649 564 q 664 457 664 493 l 664 94 q 677 72 664 78 q 706 61 690 65 q 733 51 721 57 q 746 31 746 46 q 735 12 746 24 q 699 0 724 0 l 497 0 q 476 10 481 0 q 471 28 471 19 q 480 41 471 35 q 501 53 489 47 q 524 63 513 58 q 542 71 536 68 l 542 404 q 506 542 542 501 q 417 582 471 582 q 330 566 375 582 q 253 521 285 550 l 253 103 q 267 74 253 82 q 300 63 282 67 q 333 53 318 58 q 347 31 347 47 q 300 0 347 0 l 86 0 q 65 10 69 0 q 60 28 60 19 z "},"o":{"ha":733,"x_min":61,"x_max":672,"o":"m 61 292 q 82 429 61 363 q 144 548 103 496 q 249 631 186 600 q 393 663 311 663 q 522 633 468 663 q 608 558 575 604 q 657 453 642 511 q 672 339 672 396 q 667 267 672 306 q 649 192 661 229 q 616 120 636 154 q 565 60 596 86 q 459 -1 521 19 q 335 -22 397 -22 q 228 -3 278 -22 q 141 56 178 17 q 83 154 104 96 q 61 292 61 213 m 188 339 q 198 237 188 289 q 232 142 208 185 q 297 72 256 100 q 397 44 338 44 q 467 65 439 44 q 514 121 496 86 q 540 200 532 156 q 547 292 547 244 q 537 397 547 343 q 502 495 526 451 q 438 567 478 539 q 339 596 399 596 q 268 574 297 596 q 222 515 239 551 q 196 432 204 478 q 188 339 188 386 z "},"p":{"ha":728,"x_min":32,"x_max":688,"o":"m 233 -199 q 250 -227 233 -219 q 288 -238 267 -235 q 325 -247 308 -242 q 342 -271 342 -253 q 294 -301 342 -301 l 69 -301 q 48 -292 53 -301 q 43 -274 43 -282 q 52 -261 43 -268 q 74 -249 61 -254 q 99 -238 86 -243 q 117 -231 111 -233 l 117 514 q 59 533 86 519 q 32 558 32 547 q 49 588 32 572 q 91 617 67 604 q 143 640 115 631 q 192 649 171 649 q 228 629 222 649 l 228 572 q 309 638 264 614 q 424 663 354 663 q 522 643 475 663 q 606 586 569 624 q 665 494 643 549 q 688 369 688 439 q 666 229 688 299 q 600 103 644 160 q 488 13 556 47 q 331 -22 421 -22 q 233 -7 279 -22 l 233 -199 m 233 122 q 262 89 243 101 q 303 69 281 76 q 347 60 325 63 q 385 57 369 57 q 465 77 433 57 q 517 132 497 97 q 544 212 536 167 q 553 308 553 257 q 503 508 553 432 q 363 585 454 585 q 233 519 286 585 l 233 122 z "},"q":{"ha":699,"x_min":40,"x_max":689,"o":"m 40 271 q 62 410 40 340 q 127 535 83 479 q 238 627 171 592 q 396 663 306 663 q 461 656 431 663 q 518 639 492 650 q 550 646 533 643 q 582 649 567 649 q 600 644 592 649 q 611 629 608 640 l 611 -199 q 624 -228 611 -221 q 651 -240 636 -236 q 677 -249 665 -244 q 689 -271 689 -254 q 642 -301 689 -301 l 417 -301 q 395 -292 400 -301 q 390 -274 390 -282 q 404 -259 390 -265 q 436 -247 418 -253 q 472 -237 454 -242 q 496 -231 489 -233 l 496 42 q 409 -6 456 11 q 306 -22 363 -22 q 203 -2 251 -22 q 119 56 156 18 q 62 147 83 93 q 40 271 40 201 m 167 329 q 181 217 167 268 q 220 131 194 167 q 284 74 246 94 q 369 54 322 54 q 435 71 403 54 q 496 122 468 88 l 496 525 q 463 553 483 542 q 422 570 443 564 q 379 579 400 576 q 344 582 358 582 q 265 562 299 582 q 209 508 231 542 q 177 428 188 474 q 167 329 167 382 z "},"r":{"ha":546,"x_min":40,"x_max":531,"o":"m 53 28 q 62 41 53 35 q 83 53 71 47 q 108 63 96 58 q 126 71 121 68 l 126 528 q 69 546 99 533 q 40 568 40 558 q 57 597 40 582 q 98 622 74 611 q 150 641 122 633 q 199 649 178 649 q 219 646 210 649 q 232 635 229 643 l 232 506 q 308 617 261 571 q 417 663 354 663 q 448 658 429 663 q 485 642 467 654 q 517 610 504 631 q 531 557 531 589 q 522 533 531 544 q 501 512 514 521 q 474 497 489 503 q 446 489 460 490 q 427 494 435 489 q 417 518 419 499 q 397 560 410 550 q 357 569 383 569 q 318 550 338 569 q 283 502 299 531 q 256 442 267 474 q 246 388 246 411 l 246 100 q 267 74 246 81 q 312 65 288 68 q 356 55 336 61 q 376 31 376 49 q 329 0 376 0 l 79 0 q 58 10 63 0 q 53 28 53 19 z "},"s":{"ha":568,"x_min":67,"x_max":522,"o":"m 67 61 q 68 105 68 79 q 70 153 68 131 q 80 192 72 176 q 104 208 88 208 q 119 198 113 208 q 131 173 125 188 q 141 144 136 158 q 150 122 146 131 q 210 70 165 94 q 311 46 254 46 q 378 68 347 46 q 410 131 410 90 q 385 194 410 169 q 323 239 360 219 q 243 276 286 258 q 163 317 200 293 q 101 374 126 340 q 76 461 76 408 q 99 546 76 508 q 156 609 121 583 q 236 649 192 635 q 324 663 281 663 q 446 635 407 663 q 485 581 485 608 q 485 545 485 567 q 482 503 485 524 q 472 469 479 483 q 451 456 465 456 q 435 467 443 456 q 422 490 428 478 q 410 525 415 506 q 367 572 397 557 q 260 586 338 586 q 205 569 229 586 q 181 508 181 551 q 206 448 181 472 q 269 404 231 424 q 351 366 307 385 q 434 322 396 347 q 497 260 472 296 q 522 171 522 225 q 499 88 522 124 q 440 27 476 51 q 356 -10 403 3 q 264 -22 310 -22 q 208 -16 238 -22 q 151 1 179 -10 q 101 27 124 11 q 67 61 79 43 z "},"t":{"ha":446,"x_min":44,"x_max":414,"o":"m 114 558 l 56 558 q 47 568 49 561 q 44 581 44 575 q 51 599 44 594 q 69 610 58 604 q 95 628 81 617 q 125 664 110 639 q 140 708 135 682 q 152 757 146 733 q 167 797 158 781 q 192 814 176 814 q 216 813 203 814 q 235 808 229 811 l 235 636 l 367 636 q 390 629 385 636 q 394 611 394 622 q 383 577 394 594 q 351 558 371 560 l 235 558 l 235 204 q 236 126 235 154 q 244 85 238 99 q 263 67 250 71 q 301 64 276 64 q 342 72 321 64 q 388 79 364 79 q 411 69 408 79 q 414 56 414 58 q 393 25 414 39 q 341 1 372 11 q 272 -13 310 -8 q 203 -18 235 -18 q 141 7 168 -18 q 114 79 114 32 l 114 558 z "},"u":{"ha":697,"x_min":22,"x_max":667,"o":"m 124 40 q 93 113 99 78 q 88 183 88 149 l 85 563 q 40 580 58 567 q 22 603 22 593 q 61 634 22 624 q 174 644 100 644 q 197 642 189 644 q 207 631 204 640 l 207 250 q 215 142 207 182 q 238 83 224 103 q 274 59 253 64 q 322 54 296 54 q 401 70 361 54 q 475 113 442 86 l 475 561 q 415 576 443 565 q 388 601 388 586 q 432 633 388 622 q 561 643 476 643 q 581 640 572 643 q 592 626 589 638 l 592 60 q 609 65 604 60 q 638 69 614 69 q 667 49 667 69 q 658 31 667 43 q 634 8 650 19 q 594 -13 618 -4 q 538 -22 569 -22 q 494 -11 513 -22 q 475 26 475 0 l 475 61 q 388 1 433 25 q 278 -22 342 -22 q 192 -9 236 -22 q 124 40 147 4 z "},"v":{"ha":622,"x_min":-18,"x_max":649,"o":"m 53 549 l 25 572 q -9 585 0 575 q -18 619 -18 594 q -8 631 -18 625 q 21 636 1 636 l 211 636 q 233 625 226 636 q 240 604 240 614 q 220 583 240 589 q 171 572 200 576 l 333 154 l 486 572 q 456 577 472 575 q 424 583 439 579 q 399 592 410 586 q 389 604 389 597 q 397 625 389 614 q 419 636 404 636 l 606 636 q 639 631 629 636 q 649 619 649 625 q 637 585 649 594 q 597 572 625 575 l 571 549 l 339 -14 l 282 -14 l 53 549 z "},"w":{"ha":943,"x_min":-22,"x_max":968,"o":"m 53 549 l 42 572 q -3 585 15 575 q -22 619 -22 594 q -13 631 -22 625 q 15 636 -4 636 l 210 636 q 234 625 226 636 q 242 604 242 614 q 222 583 242 589 q 174 572 201 576 l 326 144 l 439 463 l 407 549 l 396 572 q 356 585 369 575 q 342 619 342 594 q 353 631 342 625 q 385 636 365 636 l 578 636 q 601 625 593 636 q 608 604 608 614 q 583 583 608 589 q 524 572 558 576 l 663 147 l 815 572 q 783 577 801 575 q 747 583 764 579 q 717 592 729 586 q 704 604 704 597 q 711 625 704 614 q 733 636 718 636 l 929 636 q 958 631 949 636 q 968 619 968 625 q 947 585 968 594 q 897 572 925 575 l 676 -14 l 615 -14 l 478 358 l 336 -14 l 279 -14 l 53 549 z "},"x":{"ha":690,"x_min":8,"x_max":692,"o":"m 17 28 q 26 41 17 35 q 47 53 35 47 q 72 63 60 58 q 90 71 85 68 l 289 314 l 89 550 q 53 575 68 569 q 28 582 39 581 q 13 587 18 583 q 8 606 8 590 q 56 636 8 636 l 274 636 q 295 626 290 636 q 300 608 300 617 q 291 596 300 603 q 270 583 282 589 q 247 573 258 578 q 229 565 235 568 l 360 378 l 489 542 q 474 565 486 558 q 449 575 463 571 q 424 585 435 579 q 414 606 414 592 q 461 636 414 636 l 656 636 q 677 626 672 636 q 682 608 682 617 q 672 596 682 603 q 650 583 663 589 q 626 573 638 578 q 608 565 614 568 l 403 314 l 594 96 q 635 64 617 71 q 665 56 653 57 q 685 51 678 54 q 692 31 692 47 q 644 0 692 0 l 428 0 q 406 10 411 0 q 401 28 401 19 q 410 40 401 33 q 429 52 418 46 q 451 64 440 58 q 465 71 461 69 l 329 263 l 210 97 q 222 71 210 78 q 247 60 233 64 q 273 51 261 57 q 285 31 285 46 q 238 0 285 0 l 43 0 q 22 10 26 0 q 17 28 17 19 z "},"y":{"ha":656,"x_min":-17,"x_max":688,"o":"m 111 -110 q 136 -123 131 -110 q 147 -153 142 -136 q 163 -183 151 -169 q 204 -196 174 -196 q 265 -155 238 -196 q 311 -57 292 -114 l 53 549 l 19 572 q -11 585 -6 575 q -17 619 -17 594 q -14 631 -17 625 q 8 636 -11 636 l 219 636 q 242 625 235 636 q 249 604 249 614 q 226 583 249 589 q 174 572 203 576 l 297 251 l 357 67 l 401 251 l 510 572 q 479 577 496 575 q 448 583 463 579 q 424 592 433 586 q 415 604 415 597 q 423 625 415 614 q 446 636 431 636 l 649 636 q 678 631 669 636 q 688 619 688 625 q 663 584 688 594 q 608 571 638 574 l 383 -58 q 329 -172 357 -126 q 272 -247 301 -218 q 213 -287 243 -275 q 150 -299 182 -299 q 113 -290 132 -299 q 77 -267 93 -282 q 51 -231 61 -251 q 40 -186 40 -211 q 55 -135 40 -160 q 111 -110 69 -110 z "},"z":{"ha":606,"x_min":43,"x_max":558,"o":"m 43 61 q 51 99 43 81 q 85 150 60 118 q 138 216 106 178 q 206 297 171 254 q 278 385 242 340 q 343 467 314 429 q 390 532 372 504 q 408 571 408 560 q 390 582 408 582 q 251 577 297 582 q 185 565 204 572 q 164 547 167 557 q 153 524 161 536 q 147 503 151 518 q 134 472 142 488 q 117 443 126 456 q 94 431 107 431 q 71 439 81 431 q 61 457 61 447 q 67 513 61 485 q 74 581 74 540 l 74 601 q 75 624 74 614 q 85 636 76 633 l 519 636 q 544 614 529 636 q 558 568 558 592 q 550 540 558 553 q 352 289 444 397 q 199 97 260 181 q 185 69 185 78 q 199 63 185 63 q 267 63 228 63 q 342 65 306 63 q 407 74 378 68 q 446 93 436 81 q 470 132 461 111 q 486 171 479 153 q 499 201 493 189 q 514 213 506 213 q 541 206 525 213 q 557 188 557 200 l 557 146 q 556 100 557 125 q 555 53 556 75 q 551 16 554 31 q 544 0 549 1 l 94 0 q 74 8 83 0 q 57 27 64 17 q 47 47 50 38 q 43 61 43 57 z "},"{":{"ha":576,"x_min":46,"x_max":435,"o":"m 132 254 q 106 311 132 293 q 46 329 81 329 l 46 383 q 106 401 81 383 q 132 472 132 419 l 132 678 q 176 860 132 807 q 293 914 221 914 l 344 914 q 394 913 376 914 q 422 909 413 911 q 433 903 431 907 q 435 894 435 899 q 424 865 435 876 q 361 854 414 854 l 342 854 q 315 848 329 854 q 288 826 300 842 q 266 783 275 810 q 257 714 257 756 l 254 486 q 234 411 253 447 q 165 357 215 375 q 233 303 214 339 q 254 229 251 267 l 257 -24 q 266 -91 257 -64 q 288 -134 275 -118 q 314 -157 300 -150 q 340 -164 328 -164 l 361 -164 q 422 -174 410 -164 q 435 -200 435 -183 q 434 -211 435 -207 q 426 -218 433 -215 q 399 -222 418 -221 q 344 -224 381 -224 l 293 -224 q 176 -170 221 -224 q 132 13 132 -117 l 132 254 z "},"|":{"ha":272,"x_min":76,"x_max":193,"o":"m 190 -339 q 178 -360 188 -349 q 157 -382 169 -372 q 131 -398 144 -392 q 106 -404 118 -404 q 76 -387 86 -404 q 78 352 76 -15 q 79 1093 79 719 q 88 1118 79 1106 q 110 1141 97 1131 q 138 1158 124 1151 q 165 1164 153 1164 q 193 1140 189 1164 q 192 401 193 769 q 190 -339 190 33 z "},"}":{"ha":576,"x_min":0,"x_max":0,"o":""},"~":{"ha":925,"x_min":126,"x_max":801,"o":"m 178 299 q 146 306 165 299 q 126 325 126 313 q 129 335 126 332 q 154 379 140 356 q 188 424 168 403 q 236 458 208 444 q 304 472 264 472 q 390 453 351 472 q 467 413 429 435 q 543 372 504 390 q 628 353 582 353 q 663 365 647 353 q 691 393 678 376 q 715 427 704 410 q 738 456 726 444 q 746 457 738 457 q 781 451 760 457 q 801 431 801 444 q 799 422 801 428 q 769 376 786 403 q 730 326 753 350 q 676 287 707 303 q 606 271 646 271 q 503 290 544 271 q 429 331 463 308 q 363 372 396 353 q 282 390 329 390 q 251 381 264 390 q 228 357 239 371 q 207 328 217 343 q 186 301 197 313 q 178 299 183 299 z "},"":{"ha":0,"x_min":36,"x_max":611,"o":"m 90 1136 q 72 1145 82 1136 q 55 1167 63 1154 q 42 1196 47 1181 q 36 1222 36 1211 l 36 1228 q 81 1308 51 1271 q 151 1371 111 1344 q 235 1412 190 1397 q 324 1426 281 1426 q 412 1412 367 1426 q 497 1371 457 1397 q 567 1308 536 1344 q 611 1228 597 1271 l 611 1222 q 606 1196 611 1211 q 592 1167 600 1181 q 574 1145 583 1154 q 556 1136 564 1136 q 543 1146 547 1136 q 460 1266 515 1229 q 324 1303 406 1303 q 187 1266 242 1303 q 104 1146 132 1229 q 90 1136 99 1136 m 324 1026 q 292 1038 310 1026 q 260 1064 275 1049 q 234 1096 244 1079 q 224 1125 224 1113 q 238 1150 224 1133 q 269 1183 251 1167 q 303 1213 288 1200 q 319 1226 318 1226 q 349 1216 332 1226 q 381 1190 365 1206 q 406 1158 396 1175 q 417 1129 417 1142 q 406 1110 417 1124 q 381 1080 396 1096 q 352 1049 367 1064 q 329 1026 338 1035 l 324 1026 z "},"":{"ha":367,"x_min":0,"x_max":0,"o":""},"":{"ha":463,"x_min":133,"x_max":324,"o":"m 182 750 q 208 763 193 758 q 238 767 224 767 q 268 758 260 767 l 286 11 q 253 0 276 7 q 204 -7 231 -7 q 146 11 169 -7 l 182 750 m 133 996 q 138 1010 133 1000 q 155 1029 143 1019 q 188 1046 167 1039 q 240 1053 208 1053 q 270 1045 256 1053 q 297 1025 285 1038 q 316 999 308 1013 q 324 972 324 985 q 319 951 324 963 q 301 929 314 939 q 267 913 289 919 q 211 907 244 907 q 183 917 197 907 q 158 940 168 926 q 140 968 147 953 q 133 996 133 983 z "},"":{"ha":615,"x_min":65,"x_max":589,"o":"m 250 115 q 171 161 206 132 q 113 228 136 190 q 77 310 89 265 q 65 401 65 354 q 133 646 65 549 q 318 769 200 743 l 340 921 q 392 938 364 938 q 422 931 411 938 q 442 921 432 925 l 410 779 q 466 773 435 779 q 524 753 497 767 q 570 718 551 740 q 589 664 589 696 q 581 640 589 651 q 560 619 572 628 q 532 603 547 610 q 504 596 517 597 q 485 601 493 596 q 475 625 478 606 q 435 690 468 671 q 360 708 403 708 q 287 689 318 708 q 235 635 256 669 q 203 554 214 600 q 193 454 193 508 q 204 355 193 404 q 239 267 215 306 q 300 203 263 228 q 390 179 338 179 q 435 188 418 179 q 467 208 453 197 q 498 226 482 218 q 539 235 514 235 q 564 228 557 235 q 571 215 571 222 q 549 174 571 194 q 495 136 528 153 q 425 109 463 119 q 356 99 388 99 l 336 99 l 328 -6 q 279 -22 306 -22 q 244 -16 260 -22 q 219 -6 228 -10 l 250 115 z "},"":{"ha":897,"x_min":60,"x_max":846,"o":"m 60 26 q 75 69 60 50 q 113 102 90 88 q 163 126 136 117 q 213 142 190 136 l 213 168 q 212 213 213 179 q 211 289 211 246 q 210 380 211 332 q 210 467 210 428 l 122 467 q 99 497 99 476 q 106 519 99 508 q 122 540 113 531 q 142 557 132 550 q 160 565 153 564 l 210 565 q 217 656 211 618 q 234 722 224 693 q 258 775 244 751 q 286 824 272 799 q 392 938 329 901 q 535 975 454 975 q 590 969 560 975 q 649 949 621 964 q 701 910 678 935 q 736 847 725 886 q 737 844 736 844 q 738 840 738 843 q 727 804 738 821 q 702 776 717 788 q 670 758 688 764 q 638 751 653 751 q 622 756 626 751 q 606 812 619 788 q 574 853 593 836 q 533 878 556 869 q 489 886 511 886 q 403 867 436 886 q 353 815 371 849 q 331 735 336 782 q 325 631 325 688 l 325 599 l 325 565 l 511 565 q 539 546 539 564 q 529 522 539 536 q 506 497 519 508 q 477 476 492 485 q 451 467 463 468 l 328 467 l 331 324 l 331 294 q 328 225 331 258 q 321 157 326 192 l 335 157 q 417 142 381 157 q 488 111 454 128 q 556 80 522 94 q 631 65 590 65 q 695 90 675 65 q 715 144 715 115 q 701 191 715 168 q 663 226 688 214 q 671 251 663 238 q 692 275 679 264 q 722 294 706 286 q 753 301 738 301 q 817 258 788 301 q 846 132 846 215 q 835 89 846 115 q 801 38 824 63 q 744 -5 779 13 q 661 -22 710 -22 q 558 -6 601 -22 q 476 31 515 11 q 397 68 438 51 q 301 85 357 85 q 244 10 282 36 q 139 -15 206 -15 q 85 -7 111 -15 q 60 26 60 1 z "},"":{"ha":931,"x_min":93,"x_max":869,"o":"m 124 153 l 124 156 q 148 192 132 175 q 184 224 164 208 q 226 252 204 239 q 268 276 249 265 q 218 347 236 304 q 200 446 200 389 q 258 611 200 538 q 214 636 239 622 q 165 667 189 650 q 122 704 142 685 q 93 744 101 724 l 93 747 q 101 768 93 754 q 122 797 110 782 q 149 822 135 811 q 174 832 163 832 q 186 825 183 832 l 313 663 q 394 701 349 686 q 493 715 439 715 q 585 703 546 715 q 653 672 624 692 l 772 825 q 786 832 778 832 q 813 822 799 832 q 840 797 828 811 q 861 768 853 782 q 869 747 869 754 l 869 744 q 842 706 861 724 q 801 671 824 688 q 753 640 778 654 q 710 614 729 625 q 738 551 729 585 q 746 483 746 517 q 727 388 746 439 q 660 299 708 336 l 661 299 q 698 274 675 289 q 746 240 721 258 q 793 199 771 221 q 826 151 815 176 l 826 149 q 817 128 826 142 q 796 99 808 114 q 769 74 783 85 q 743 64 754 64 q 729 72 733 64 l 604 258 q 530 228 569 238 q 449 218 490 218 q 394 222 421 218 q 344 233 368 225 l 219 76 q 204 68 214 68 q 179 78 193 68 q 153 103 165 89 q 132 131 140 117 q 124 153 124 146 m 497 283 q 560 297 535 283 q 602 333 586 311 q 624 385 618 356 q 631 446 631 415 q 622 518 631 482 q 594 584 614 554 q 539 633 574 614 q 451 651 504 651 q 383 636 410 651 q 342 597 357 621 q 322 542 328 572 q 317 483 317 513 q 324 415 317 450 q 353 350 332 379 q 408 302 374 321 q 497 283 443 283 z "},"":{"ha":761,"x_min":-22,"x_max":775,"o":"m 149 218 q 131 228 138 218 q 125 247 125 239 q 132 266 125 258 q 149 279 139 274 q 169 287 158 285 q 186 289 179 289 l 324 289 l 324 428 l 149 428 q 125 457 125 438 q 132 476 125 468 q 149 489 139 483 q 170 497 160 494 q 186 501 181 500 l 283 501 l 42 850 q -3 863 15 853 q -22 897 -22 872 q -13 908 -22 903 q 17 914 -4 914 l 222 914 q 249 903 242 914 q 257 882 257 892 q 235 860 257 867 q 188 850 213 854 l 397 521 l 590 850 q 562 855 578 853 q 531 860 546 857 q 506 869 517 864 q 496 882 496 875 q 503 903 496 892 q 529 914 510 914 l 736 914 q 765 908 756 914 q 775 897 775 903 q 754 863 775 872 q 708 850 733 853 l 681 826 l 471 501 l 607 501 q 628 494 622 500 q 635 481 635 488 q 626 461 635 471 q 603 444 617 451 q 576 433 590 438 q 551 428 563 429 l 450 428 l 450 289 l 607 289 q 628 283 622 289 q 635 269 635 276 q 626 250 635 260 q 603 233 617 240 q 576 222 590 226 q 551 218 563 218 l 450 218 l 450 18 q 422 -11 444 0 q 374 -22 400 -22 q 347 -20 367 -22 q 324 -11 328 -18 l 324 218 l 149 218 z "},"":{"ha":272,"x_min":76,"x_max":193,"o":"m 106 447 q 76 464 86 447 l 79 1093 q 88 1117 79 1106 q 110 1140 97 1129 q 138 1156 124 1150 q 165 1163 153 1163 q 193 1140 189 1163 l 190 513 q 178 491 188 503 q 157 469 169 479 q 131 453 144 460 q 106 447 118 447 m 79 243 q 88 267 79 256 q 110 290 97 279 q 138 306 124 300 q 165 313 153 313 q 193 290 189 313 l 190 -337 q 178 -360 188 -349 q 157 -381 169 -371 q 131 -397 144 -390 q 106 -403 118 -403 q 76 -386 86 -403 l 79 243 z "},"":{"ha":835,"x_min":135,"x_max":713,"o":"m 140 46 q 135 67 135 49 q 135 89 135 69 q 138 135 136 108 q 140 191 139 163 q 142 238 142 219 q 150 256 142 250 q 168 261 158 261 q 184 244 176 261 q 199 208 192 228 q 211 156 206 185 q 285 90 222 118 q 453 63 349 63 q 513 70 485 63 q 563 90 542 78 q 596 120 583 103 q 608 156 608 138 q 591 215 608 193 q 544 252 574 238 q 478 275 515 267 q 401 292 442 283 q 298 319 346 304 q 215 356 250 333 q 160 413 179 379 q 140 496 140 446 q 161 576 140 549 q 221 631 182 603 q 163 691 185 656 q 140 778 140 726 q 167 864 140 825 q 237 930 193 903 q 339 972 281 957 q 460 988 397 988 q 534 978 496 988 q 604 954 572 969 q 656 919 636 939 q 676 878 676 899 q 676 837 676 863 q 674 786 676 811 q 664 743 671 761 q 643 725 657 725 q 627 740 635 725 q 614 775 619 756 q 601 824 607 796 q 527 884 578 861 q 397 907 476 907 q 338 901 367 907 q 288 885 310 896 q 252 857 265 874 q 239 819 239 840 q 272 746 239 772 q 352 703 304 719 q 457 672 400 686 q 562 635 514 658 q 642 574 610 613 q 675 471 675 536 q 660 407 675 438 q 621 349 646 376 q 687 293 661 326 q 713 206 713 260 q 687 117 713 158 q 617 44 661 75 q 516 -4 574 14 q 396 -22 458 -22 q 328 -17 367 -22 q 253 -1 290 -11 q 186 21 217 8 q 140 46 156 33 m 239 538 q 289 451 239 478 q 438 408 339 425 q 503 392 469 400 q 567 372 536 383 q 574 421 574 397 q 549 500 574 476 q 483 537 525 524 q 383 563 440 550 q 261 608 326 575 q 239 538 239 575 z "},"":{"ha":565,"x_min":38,"x_max":528,"o":"m 446 769 q 394 777 415 769 q 363 794 374 785 q 347 814 351 804 q 342 828 342 824 q 349 854 342 839 q 367 883 356 869 q 392 905 378 896 q 419 914 406 914 q 504 892 481 914 q 528 850 528 869 q 520 824 528 838 q 501 798 513 810 q 474 778 489 786 q 446 769 460 769 m 142 769 q 90 777 111 769 q 58 794 69 785 q 42 814 47 804 q 38 828 38 824 q 44 854 38 839 q 63 883 51 869 q 88 905 74 896 q 115 914 101 914 q 200 892 176 914 q 224 850 224 869 q 216 824 224 838 q 197 798 208 810 q 170 778 185 786 q 142 769 156 769 z "},"":{"ha":1321,"x_min":117,"x_max":1176,"o":"m 117 621 q 159 842 117 742 q 274 1013 201 942 q 445 1124 347 1085 q 656 1164 543 1164 q 873 1121 776 1164 q 1037 1008 969 1078 q 1140 849 1104 939 q 1176 667 1176 760 q 1135 446 1176 546 q 1022 274 1093 346 q 852 163 950 203 q 642 124 754 124 q 422 167 519 124 q 257 280 325 210 q 153 439 189 350 q 117 621 117 528 m 678 183 q 819 215 744 183 q 956 302 893 246 q 1061 437 1019 358 q 1103 611 1103 515 q 1073 798 1103 710 q 983 952 1043 886 q 830 1057 922 1018 q 614 1096 738 1096 q 474 1067 549 1096 q 337 983 400 1038 q 232 850 274 928 q 190 676 190 772 q 221 490 190 578 q 312 335 251 401 q 464 227 372 268 q 678 183 556 186 m 414 606 q 433 727 414 672 q 487 821 451 782 q 572 881 522 860 q 681 903 621 903 q 730 898 704 903 q 778 882 756 893 q 815 853 800 871 q 832 810 829 835 q 804 767 832 788 q 744 746 776 746 q 706 776 710 746 q 687 819 703 807 q 650 832 671 832 q 570 779 596 832 q 544 647 544 726 q 553 574 544 610 q 578 509 561 538 q 620 463 594 481 q 681 444 646 444 q 709 451 699 444 q 731 465 719 457 q 756 480 742 474 q 796 486 771 486 q 830 478 821 486 q 839 463 839 471 q 820 430 839 447 q 774 399 801 413 q 716 376 747 385 q 658 367 685 367 q 555 386 600 367 q 478 439 510 406 q 431 515 447 472 q 414 606 414 558 z "},"":{"ha":674,"x_min":128,"x_max":601,"o":"m 288 379 q 214 392 244 379 q 165 423 183 404 q 137 465 146 442 q 128 511 128 489 q 156 596 128 561 q 227 653 183 631 q 324 688 271 675 q 431 706 378 700 l 431 724 q 411 822 431 785 q 331 860 392 860 q 273 853 290 860 q 256 822 256 847 q 257 814 256 819 q 260 804 258 808 l 261 803 q 264 794 264 800 q 256 774 264 785 q 235 754 247 763 q 208 740 222 746 q 182 735 194 735 q 148 752 154 735 q 142 783 142 769 q 165 843 142 815 q 223 891 188 871 q 301 923 258 911 q 381 935 343 935 q 461 919 431 935 q 509 880 492 904 q 533 825 526 856 q 540 763 539 794 l 540 453 l 556 458 l 564 458 q 568 459 567 458 q 572 460 569 460 q 601 438 601 460 q 594 423 601 433 q 571 402 586 413 q 535 384 556 392 q 486 376 514 376 q 447 387 464 376 q 431 421 431 397 l 431 438 q 365 396 400 413 q 288 379 329 379 m 344 453 q 391 462 368 453 q 431 489 414 471 l 431 647 q 367 640 400 646 q 306 624 333 635 q 261 595 279 614 q 243 547 243 576 q 265 478 243 504 q 344 453 288 453 z "},"":{"ha":1094,"x_min":167,"x_max":914,"o":"m 179 311 q 169 340 172 317 q 167 394 167 363 q 169 449 167 428 q 179 472 172 469 l 492 678 q 515 666 499 678 q 532 633 532 654 q 502 595 532 624 q 428 530 472 567 q 335 456 385 493 q 243 393 285 419 q 335 330 285 367 q 430 258 386 293 q 503 194 474 224 q 532 153 532 165 q 515 120 532 132 q 492 108 499 108 l 179 311 m 561 311 q 551 340 554 317 q 549 394 549 363 q 551 449 549 428 q 561 472 554 469 l 874 678 q 897 666 881 678 q 914 633 914 654 q 884 595 914 624 q 810 530 854 567 q 717 456 767 493 q 625 393 667 419 q 717 330 667 367 q 812 258 768 293 q 885 194 856 224 q 914 153 914 165 q 897 120 914 132 q 874 108 881 108 l 561 311 z "},"":{"ha":808,"x_min":126,"x_max":675,"o":"m 164 444 q 135 451 144 444 q 126 469 126 458 q 142 503 126 486 q 174 519 157 519 l 638 519 q 666 510 657 517 q 675 483 675 504 l 675 240 q 668 226 675 235 q 650 212 661 218 q 627 201 639 206 q 604 196 615 196 q 583 217 583 196 l 583 444 l 164 444 z "},"":{"ha":707,"x_min":146,"x_max":565,"o":"m 172 313 q 156 321 165 313 q 146 344 146 329 q 153 363 146 354 q 169 380 160 372 q 187 392 178 388 q 201 396 196 396 l 532 396 q 555 390 544 396 q 565 376 565 383 q 558 346 565 358 q 538 326 550 333 q 514 315 526 318 q 492 313 501 313 l 172 313 z "},"":{"ha":1321,"x_min":117,"x_max":1176,"o":"m 117 621 q 159 842 117 742 q 274 1013 201 942 q 445 1124 347 1085 q 656 1164 543 1164 q 873 1121 776 1164 q 1037 1008 969 1078 q 1140 849 1104 939 q 1176 667 1176 760 q 1135 446 1176 546 q 1022 274 1093 346 q 852 163 950 203 q 642 124 754 124 q 422 167 519 124 q 257 280 325 210 q 153 439 189 350 q 117 621 117 528 m 678 183 q 819 215 744 183 q 956 302 893 246 q 1061 437 1019 358 q 1103 611 1103 515 q 1073 798 1103 710 q 983 952 1043 886 q 830 1057 922 1018 q 614 1096 738 1096 q 474 1067 549 1096 q 337 983 400 1038 q 232 850 274 928 q 190 676 190 772 q 221 490 190 578 q 312 335 251 401 q 464 227 372 268 q 678 183 556 186 m 413 399 q 422 415 413 408 q 471 429 432 421 l 471 869 q 425 876 439 869 q 411 899 411 882 q 422 913 411 908 q 485 918 433 918 l 524 918 q 596 922 565 918 q 675 925 626 925 q 741 916 708 925 q 799 889 774 907 q 841 844 825 871 q 857 782 857 817 q 823 685 857 728 q 722 626 789 642 q 749 610 733 622 q 781 581 764 599 q 813 540 797 563 q 839 490 828 517 l 838 490 l 850 467 q 879 434 864 440 q 907 427 894 428 q 927 424 919 426 q 935 406 935 422 q 928 392 935 401 q 890 383 922 383 l 831 383 q 790 400 806 383 q 762 442 774 417 q 739 496 750 467 q 710 550 728 525 q 666 592 693 575 q 597 608 639 608 l 565 608 l 565 431 q 621 422 596 429 q 646 399 646 415 q 638 388 646 392 q 608 383 629 383 l 433 383 q 415 388 418 383 q 413 399 413 392 m 629 654 q 723 681 682 654 q 764 763 764 708 q 724 849 764 828 q 613 869 685 869 q 588 869 600 869 q 565 868 576 869 l 565 654 l 629 654 z "},"":{"ha":496,"x_min":39,"x_max":458,"o":"m 65 847 q 49 856 58 847 q 39 879 39 864 q 55 919 39 899 q 94 939 71 939 l 428 939 q 453 931 447 939 q 458 913 458 924 q 438 864 458 881 q 385 847 417 847 l 65 847 z "},"":{"ha":481,"x_min":38,"x_max":443,"o":"m 228 732 q 163 742 197 732 q 101 776 129 753 q 56 833 74 799 q 38 917 38 868 q 53 992 38 957 q 98 1055 69 1028 q 167 1098 126 1082 q 258 1114 208 1114 q 320 1104 288 1114 q 380 1073 353 1094 q 425 1017 407 1051 q 443 936 443 983 q 428 859 443 896 q 385 794 414 822 q 317 749 357 765 q 228 732 278 732 m 238 804 l 243 804 q 326 840 304 807 q 347 917 347 872 q 336 977 347 953 q 309 1016 325 1001 q 275 1038 293 1031 q 242 1044 257 1044 q 160 1009 188 1044 q 133 926 133 974 q 144 870 133 893 q 169 833 154 847 q 203 811 185 818 q 238 804 221 804 z "},"":{"ha":808,"x_min":140,"x_max":671,"o":"m 353 444 l 164 444 q 140 469 140 454 q 147 486 140 478 q 165 501 154 494 q 185 513 175 508 q 201 519 196 518 l 353 519 l 353 678 q 378 719 356 697 q 419 740 400 740 q 436 733 429 740 q 444 706 443 725 l 444 519 l 638 519 q 667 504 667 518 q 657 486 667 496 q 634 467 647 476 q 606 452 621 458 q 581 444 592 446 l 444 444 l 444 279 q 437 263 443 274 q 422 242 431 251 q 403 224 414 232 q 382 217 393 217 q 353 242 364 217 l 353 444 m 140 25 q 147 42 140 33 q 165 56 154 50 q 185 68 175 63 q 201 75 196 74 l 638 75 q 671 54 671 71 q 663 36 671 46 q 641 19 654 26 q 612 6 628 11 q 581 0 596 0 l 164 0 q 140 25 140 10 z "},"":{"ha":557,"x_min":40,"x_max":529,"o":"m 68 375 q 48 381 53 375 q 43 393 43 388 q 53 413 43 403 q 71 429 64 424 q 281 640 208 536 q 353 842 353 743 q 330 933 353 896 q 238 971 307 971 q 184 959 203 971 q 165 919 165 947 q 167 908 165 911 q 169 903 168 904 l 165 906 q 172 898 171 900 q 172 894 172 896 q 163 876 172 886 q 142 858 154 867 q 115 845 129 850 q 89 840 100 840 q 48 856 56 840 q 40 883 40 872 q 62 945 40 917 q 117 994 83 974 q 192 1027 150 1015 q 276 1039 235 1039 q 379 1022 339 1039 q 442 978 419 1006 q 474 918 465 951 q 482 851 482 885 q 457 753 482 804 q 390 651 432 703 q 292 546 349 599 q 174 440 236 493 l 419 454 q 456 515 443 500 q 493 529 468 529 q 517 524 504 529 q 529 503 529 518 q 528 480 529 494 q 525 451 526 465 q 521 418 524 436 q 503 389 518 403 q 446 375 489 375 l 68 375 z "},"":{"ha":525,"x_min":33,"x_max":492,"o":"m 206 351 q 167 355 194 351 q 112 365 140 358 q 62 385 83 372 q 40 415 40 397 q 47 438 40 425 q 62 461 53 450 q 83 480 71 472 q 108 488 96 488 q 132 477 118 488 q 164 455 146 467 q 204 433 182 443 q 253 422 226 422 q 311 428 289 422 q 346 447 333 433 q 363 482 358 460 q 368 539 368 504 q 328 649 368 619 q 217 678 288 678 q 203 677 213 678 q 182 676 193 676 q 152 679 167 676 q 138 692 138 682 q 153 723 138 710 q 210 736 169 736 q 307 763 276 736 q 338 849 338 790 q 306 947 338 915 q 214 979 274 979 q 172 969 185 979 q 160 938 160 958 q 163 923 160 926 q 167 913 167 919 q 158 894 167 904 q 135 876 149 885 q 108 863 122 868 q 82 858 93 858 q 41 874 49 858 q 33 901 33 890 q 56 956 33 931 q 113 999 79 981 q 185 1027 147 1017 q 254 1038 224 1038 q 408 994 358 1038 q 458 889 458 951 q 450 842 458 867 q 428 796 442 818 q 395 756 414 774 q 354 726 376 738 q 456 673 421 711 q 492 568 492 635 q 466 478 492 518 q 399 409 440 438 q 308 366 358 381 q 206 351 257 351 z "},"":{"ha":332,"x_min":51,"x_max":306,"o":"m 101 763 q 67 776 83 763 q 51 794 51 789 l 51 796 l 208 1067 q 222 1074 214 1074 q 249 1063 235 1074 q 276 1038 264 1053 q 297 1010 289 1024 q 306 989 306 996 l 306 986 q 269 928 294 961 q 214 863 243 894 q 158 804 185 831 q 117 767 131 778 q 101 763 111 763 z "},"":{"ha":706,"x_min":0,"x_max":690,"o":"m 100 21 q 99 69 100 36 q 97 140 97 103 q 94 211 96 178 q 93 260 93 244 l 93 538 q 49 553 65 542 q 32 575 32 564 q 44 596 32 585 q 76 617 56 607 q 125 633 97 626 q 183 639 153 639 q 202 637 194 639 q 213 625 210 635 l 213 233 q 225 146 213 181 q 258 91 238 111 q 305 63 278 71 q 361 54 332 54 q 427 67 396 54 q 488 104 458 81 l 488 536 q 432 553 460 540 q 404 574 404 565 q 419 594 404 583 q 459 615 435 606 q 515 631 483 625 q 578 638 546 638 q 597 635 588 638 q 608 621 606 632 l 608 60 q 632 65 621 60 q 660 69 643 69 q 690 49 690 69 q 681 31 690 43 q 653 8 671 19 q 609 -13 635 -4 q 553 -22 583 -22 q 508 -11 529 -22 q 488 26 488 0 l 488 36 q 425 -8 458 8 q 339 -24 392 -24 q 267 -7 306 -24 q 206 38 229 10 l 206 -44 q 207 -83 206 -64 q 207 -118 208 -101 q 194 -226 207 -190 q 146 -261 182 -261 q 109 -258 133 -261 q 60 -250 85 -256 q 18 -235 36 -244 q 0 -214 0 -226 q 9 -207 0 -208 q 26 -206 18 -206 q 56 -187 42 -206 q 79 -138 69 -169 q 94 -66 89 -107 q 100 21 100 -25 z "},"":{"ha":879,"x_min":65,"x_max":835,"o":"m 206 25 q 240 65 206 50 q 360 79 274 79 l 360 439 l 289 439 q 199 457 240 439 q 128 510 158 475 q 82 597 99 546 q 65 713 65 647 q 138 863 65 806 q 339 921 211 921 q 418 917 389 921 q 456 914 447 914 l 478 914 l 792 914 q 812 906 806 914 q 818 896 818 899 q 801 869 818 882 q 744 857 785 857 l 744 63 q 813 49 792 58 q 835 15 835 40 q 825 4 835 8 q 792 0 815 0 l 619 0 l 619 847 l 482 847 l 482 0 l 265 0 q 219 9 233 0 q 206 25 206 18 z "},"":{"ha":378,"x_min":93,"x_max":283,"o":"m 93 371 q 100 399 93 383 q 117 427 107 414 q 142 450 128 440 q 171 460 157 460 q 226 453 204 460 q 261 438 249 447 q 278 416 274 428 q 283 394 283 404 q 276 368 283 382 q 256 342 268 354 q 230 322 244 329 q 200 314 215 314 q 147 321 168 314 q 115 338 126 328 q 98 357 103 347 q 93 371 93 367 z "},"":{"ha":404,"x_min":38,"x_max":367,"o":"m 217 8 l 217 -89 q 267 -94 240 -89 q 315 -112 293 -100 q 352 -146 338 -125 q 367 -196 367 -167 q 349 -269 367 -237 q 303 -323 332 -301 q 235 -356 274 -344 q 156 -367 197 -367 q 126 -365 146 -367 q 87 -358 107 -362 q 52 -347 67 -354 q 38 -328 38 -339 q 45 -299 38 -314 q 58 -285 53 -285 q 85 -289 69 -285 q 113 -293 101 -293 q 157 -290 135 -293 q 197 -276 179 -286 q 224 -249 214 -267 q 235 -203 235 -232 q 201 -151 235 -165 q 125 -137 168 -137 q 112 -137 118 -137 q 99 -139 106 -137 l 122 8 l 217 8 z "},"":{"ha":467,"x_min":36,"x_max":439,"o":"m 81 375 q 52 384 58 375 q 46 401 46 393 q 83 426 46 422 q 192 440 119 429 l 192 919 q 133 894 164 906 q 76 882 101 882 q 49 890 61 882 q 36 910 36 897 q 56 933 36 924 q 117 964 86 946 q 174 999 147 982 q 224 1026 201 1015 q 258 1038 246 1038 q 291 1026 272 1038 q 310 1007 310 1015 l 310 463 q 318 447 310 453 q 338 437 326 440 q 363 433 350 433 q 388 432 376 432 l 403 432 q 431 423 422 432 q 439 403 439 414 q 390 375 439 375 l 81 375 z "},"":{"ha":672,"x_min":96,"x_max":596,"o":"m 319 379 q 231 394 272 379 q 160 442 190 410 q 113 522 131 474 q 96 636 96 571 q 113 747 96 693 q 165 842 131 800 q 250 908 200 883 q 365 933 300 933 q 473 910 429 933 q 544 851 517 888 q 583 767 571 814 q 596 674 596 721 q 580 568 596 621 q 531 474 564 515 q 445 406 497 432 q 319 379 393 379 m 368 444 q 422 460 400 444 q 456 503 443 476 q 475 565 469 531 q 481 636 481 599 q 473 717 481 676 q 447 792 465 758 q 399 847 429 825 q 322 868 368 868 q 267 850 289 868 q 231 803 244 832 q 213 740 218 775 q 208 674 208 706 q 216 594 208 635 q 242 519 224 553 q 291 465 260 486 q 368 444 322 444 z "},"":{"ha":1093,"x_min":181,"x_max":926,"o":"m 533 311 l 221 108 q 197 120 214 108 q 181 153 181 132 q 210 194 181 165 q 284 258 240 224 q 378 330 328 293 q 469 393 428 367 q 378 456 428 419 q 284 530 328 493 q 210 595 240 567 q 181 633 181 624 q 197 666 181 654 q 221 678 214 678 l 533 472 q 543 449 540 469 q 546 394 546 428 q 543 340 546 363 q 533 311 540 317 m 914 311 l 601 108 q 578 120 594 108 q 561 153 561 132 q 591 194 561 165 q 665 258 621 224 q 758 330 708 293 q 850 393 808 367 q 758 456 808 419 q 665 530 708 493 q 591 595 621 567 q 561 633 561 624 q 578 666 561 654 q 601 678 594 678 l 914 472 q 924 449 921 469 q 926 394 926 428 q 924 340 926 363 q 914 311 921 317 z "},"":{"ha":1269,"x_min":36,"x_max":1242,"o":"m 81 375 q 52 384 58 375 q 46 401 46 393 q 83 426 46 422 q 192 440 119 429 l 192 919 q 133 894 164 906 q 76 882 101 882 q 49 890 61 882 q 36 910 36 897 q 56 933 36 924 q 117 964 86 946 q 174 999 147 982 q 224 1026 201 1015 q 258 1038 246 1038 q 291 1026 272 1038 q 310 1007 310 1015 l 310 463 q 318 447 310 453 q 338 437 326 440 q 363 433 350 433 q 388 432 376 432 l 403 432 q 431 423 422 432 q 439 403 439 414 q 390 375 439 375 l 81 375 m 713 104 q 714 111 713 108 q 762 185 735 139 q 818 288 789 232 q 876 406 847 344 q 929 526 906 468 q 947 545 935 539 q 990 551 960 551 q 1035 543 1011 551 q 1060 515 1060 535 q 1058 507 1060 510 q 1003 401 1036 457 q 934 290 969 344 q 865 188 899 236 q 806 108 831 140 l 1025 108 l 1025 225 q 1033 245 1025 235 q 1054 264 1042 256 q 1081 277 1067 272 q 1106 282 1094 282 q 1131 276 1119 282 q 1142 260 1142 269 l 1142 108 l 1200 108 q 1233 106 1224 108 q 1242 93 1242 103 q 1222 61 1242 74 q 1175 49 1203 49 l 1142 49 l 1142 -79 q 1133 -97 1142 -87 q 1113 -115 1125 -107 q 1088 -128 1101 -124 q 1063 -133 1074 -133 q 1038 -128 1051 -133 q 1025 -114 1025 -124 l 1025 49 l 756 49 q 742 55 750 49 q 728 69 735 61 q 717 88 721 78 q 713 104 713 97 m 767 1036 q 806 1066 778 1053 q 854 1079 833 1079 q 874 1060 874 1079 q 874 1050 874 1056 q 872 1038 874 1044 l 392 -174 q 361 -199 382 -189 q 319 -208 340 -208 q 293 -186 293 -208 q 300 -161 293 -179 l 767 1036 z "},"":{"ha":1294,"x_min":36,"x_max":1267,"o":"m 81 375 q 52 384 58 375 q 46 401 46 393 q 83 426 46 422 q 192 440 119 429 l 192 919 q 133 894 164 906 q 76 882 101 882 q 49 890 61 882 q 36 910 36 897 q 56 933 36 924 q 117 964 86 946 q 174 999 147 982 q 224 1026 201 1015 q 258 1038 246 1038 q 291 1026 272 1038 q 310 1007 310 1015 l 310 463 q 318 447 310 453 q 338 437 326 440 q 363 433 350 433 q 388 432 376 432 l 403 432 q 431 423 422 432 q 439 403 439 414 q 390 375 439 375 l 81 375 m 781 -79 q 791 -59 781 -69 q 808 -43 801 -49 q 1018 167 946 64 q 1090 369 1090 271 q 1067 461 1090 424 q 975 499 1044 499 q 922 487 940 499 q 903 447 903 475 q 904 435 903 439 q 907 431 906 432 l 903 433 q 909 426 908 428 q 910 422 910 424 q 901 404 910 414 q 879 386 892 394 q 852 373 867 378 q 826 368 838 368 q 785 384 793 368 q 778 411 778 400 q 799 473 778 444 q 854 522 821 501 q 930 555 888 543 q 1014 567 972 567 q 1117 550 1076 567 q 1180 506 1157 533 q 1211 446 1203 479 q 1219 379 1219 413 q 1194 281 1219 332 q 1128 178 1169 231 q 1030 74 1086 126 q 911 -32 974 21 l 1157 -18 q 1193 42 1181 28 q 1231 57 1206 57 q 1254 51 1242 57 q 1267 31 1267 46 q 1265 8 1267 22 q 1263 -21 1264 -7 q 1258 -54 1261 -36 q 1241 -83 1256 -69 q 1183 -97 1226 -97 l 806 -97 q 785 -91 790 -97 q 781 -79 781 -85 m 767 1036 q 806 1066 778 1053 q 854 1079 833 1079 q 874 1060 874 1079 q 874 1050 874 1056 q 872 1038 874 1044 l 392 -174 q 361 -199 382 -189 q 319 -208 340 -208 q 293 -186 293 -208 q 300 -161 293 -179 l 767 1036 z "},"":{"ha":1371,"x_min":54,"x_max":1343,"o":"m 226 351 q 188 355 215 351 q 133 365 161 358 q 83 385 104 372 q 61 415 61 397 q 67 438 61 425 q 83 461 74 450 q 104 480 92 472 q 129 488 117 488 q 153 477 139 488 q 185 455 167 467 q 225 433 203 443 q 274 422 247 422 q 332 428 310 422 q 367 447 354 433 q 384 482 379 460 q 389 539 389 504 q 349 649 389 619 q 238 678 308 678 q 224 677 233 678 q 203 676 214 676 q 173 679 188 676 q 158 692 158 682 q 174 723 158 710 q 231 736 190 736 q 328 763 297 736 q 358 849 358 790 q 326 947 358 915 q 235 979 294 979 q 193 969 206 979 q 181 938 181 958 q 184 923 181 926 q 188 913 188 919 q 178 894 188 904 q 156 876 169 885 q 128 863 143 868 q 103 858 114 858 q 62 874 69 858 q 54 901 54 890 q 77 956 54 931 q 134 999 100 981 q 206 1027 168 1017 q 275 1038 244 1038 q 429 994 379 1038 q 479 889 479 951 q 471 842 479 867 q 449 796 463 818 q 416 756 435 774 q 375 726 397 738 q 477 673 442 711 q 513 568 513 635 q 487 478 513 518 q 420 409 461 438 q 328 366 379 381 q 226 351 278 351 m 814 104 q 815 111 814 108 q 863 185 836 139 q 919 288 890 232 q 978 406 949 344 q 1031 526 1007 468 q 1049 545 1036 539 q 1092 551 1061 551 q 1137 543 1113 551 q 1161 515 1161 535 q 1160 507 1161 510 q 1104 401 1138 457 q 1035 290 1071 344 q 966 188 1000 236 q 907 108 932 140 l 1126 108 l 1126 225 q 1135 245 1126 235 q 1156 264 1143 256 q 1182 277 1168 272 q 1207 282 1196 282 q 1232 276 1221 282 q 1243 260 1243 269 l 1243 108 l 1301 108 q 1334 106 1325 108 q 1343 93 1343 103 q 1324 61 1343 74 q 1276 49 1304 49 l 1243 49 l 1243 -79 q 1235 -97 1243 -87 q 1215 -115 1226 -107 q 1189 -128 1203 -124 q 1164 -133 1175 -133 q 1140 -128 1153 -133 q 1126 -114 1126 -124 l 1126 49 l 857 49 q 844 55 851 49 q 829 69 836 61 q 818 88 822 78 q 814 104 814 97 m 868 1036 q 907 1066 879 1053 q 956 1079 935 1079 q 975 1060 975 1079 q 975 1050 975 1056 q 974 1038 975 1044 l 493 -174 q 463 -199 483 -189 q 421 -208 442 -208 q 394 -186 394 -208 q 401 -161 394 -179 l 868 1036 z "},"":{"ha":753,"x_min":86,"x_max":688,"o":"m 386 790 q 335 797 356 790 q 302 813 314 803 q 285 833 290 822 q 281 853 281 843 q 288 879 281 865 q 306 905 294 893 q 331 925 317 917 q 358 933 344 933 q 410 926 390 933 q 442 908 431 918 q 458 889 453 899 q 463 875 463 879 q 456 849 463 864 q 439 822 450 835 q 415 799 428 808 q 386 790 401 790 m 86 203 q 104 283 86 247 q 153 350 122 319 q 222 406 183 381 q 299 457 260 432 l 332 478 q 339 506 339 486 q 333 577 339 538 q 324 636 326 617 q 351 667 329 651 q 394 682 372 682 q 427 660 421 682 q 433 610 433 638 l 433 569 q 415 489 433 519 q 371 438 397 458 q 313 404 344 418 q 256 374 282 390 q 211 335 229 358 q 193 271 193 311 q 218 158 193 200 q 282 95 243 117 q 366 67 321 74 q 451 60 411 60 q 541 90 518 60 q 564 186 564 119 l 564 189 q 574 212 564 201 q 599 228 585 222 q 631 238 614 235 q 660 242 647 242 q 688 217 688 242 q 656 126 686 169 q 581 50 626 83 q 480 -3 536 17 q 368 -22 424 -22 q 268 -11 318 -22 q 178 26 218 0 q 112 96 138 53 q 86 203 86 139 z "},"":{"ha":793,"x_min":-47,"x_max":832,"o":"m -21 0 q -42 10 -37 0 q -47 28 -47 19 q -36 42 -47 36 q -10 53 -25 49 q 19 62 4 58 q 42 69 35 65 l 325 854 q 363 908 342 890 q 413 926 383 926 q 447 921 431 926 q 532 701 497 799 q 598 511 567 603 q 662 324 629 419 q 739 110 694 229 q 763 74 751 82 q 806 57 774 65 q 825 49 818 54 q 832 31 832 44 q 821 12 832 24 q 785 0 810 0 l 574 0 q 552 10 557 0 q 547 28 547 19 q 564 46 547 40 l 617 69 q 581 174 597 124 q 550 272 565 224 q 378 273 457 272 q 206 274 300 274 l 146 100 q 161 74 146 81 q 194 63 176 67 q 226 53 211 58 q 240 31 240 47 q 193 0 240 0 l -21 0 m 232 353 q 384 351 318 353 q 526 350 450 350 q 464 559 496 454 q 383 789 432 664 l 232 353 m 478 1003 q 463 1007 469 1003 q 419 1038 447 1018 q 361 1081 390 1057 q 306 1131 332 1104 q 269 1183 281 1158 l 269 1186 q 278 1208 269 1193 q 300 1237 288 1222 q 327 1262 313 1251 q 353 1272 342 1272 q 367 1264 363 1272 l 524 1035 l 524 1033 q 509 1015 524 1026 q 478 1003 494 1003 z "},"":{"ha":793,"x_min":-47,"x_max":832,"o":"m -21 0 q -42 10 -37 0 q -47 28 -47 19 q -36 42 -47 36 q -10 53 -25 49 q 19 62 4 58 q 42 69 35 65 l 325 854 q 363 908 342 890 q 413 926 383 926 q 447 921 431 926 q 532 701 497 799 q 598 511 567 603 q 662 324 629 419 q 739 110 694 229 q 763 74 751 82 q 806 57 774 65 q 825 49 818 54 q 832 31 832 44 q 821 12 832 24 q 785 0 810 0 l 574 0 q 552 10 557 0 q 547 28 547 19 q 564 46 547 40 l 617 69 q 581 174 597 124 q 550 272 565 224 q 378 273 457 272 q 206 274 300 274 l 146 100 q 161 74 146 81 q 194 63 176 67 q 226 53 211 58 q 240 31 240 47 q 193 0 240 0 l -21 0 m 232 353 q 384 351 318 353 q 526 350 450 350 q 464 559 496 454 q 383 789 432 664 l 232 353 m 318 1003 q 284 1015 299 1003 q 269 1033 269 1026 l 269 1035 l 426 1264 q 440 1272 431 1272 q 466 1262 451 1272 q 493 1237 481 1251 q 515 1208 506 1222 q 524 1186 524 1193 l 524 1183 q 487 1131 513 1158 q 432 1081 461 1104 q 376 1038 403 1057 q 335 1007 349 1018 q 318 1003 326 1003 z "},"":{"ha":793,"x_min":-47,"x_max":832,"o":"m -21 0 q -42 10 -37 0 q -47 28 -47 19 q -36 42 -47 36 q -10 53 -25 49 q 19 62 4 58 q 42 69 35 65 l 325 854 q 363 908 342 890 q 413 926 383 926 q 447 921 431 926 q 532 701 497 799 q 598 511 567 603 q 662 324 629 419 q 739 110 694 229 q 763 74 751 82 q 806 57 774 65 q 825 49 818 54 q 832 31 832 44 q 821 12 832 24 q 785 0 810 0 l 574 0 q 552 10 557 0 q 547 28 547 19 q 564 46 547 40 l 617 69 q 581 174 597 124 q 550 272 565 224 q 378 273 457 272 q 206 274 300 274 l 146 100 q 161 74 146 81 q 194 63 176 67 q 226 53 211 58 q 240 31 240 47 q 193 0 240 0 l -21 0 m 232 353 q 384 351 318 353 q 526 350 450 350 q 464 559 496 454 q 383 789 432 664 l 232 353 m 214 999 q 179 1011 194 999 q 164 1029 164 1024 l 321 1274 q 346 1281 324 1279 q 394 1283 368 1283 q 441 1281 419 1283 q 467 1274 463 1279 l 625 1029 q 610 1011 625 1024 q 578 999 594 999 q 548 1017 569 999 q 499 1065 526 1036 q 444 1130 472 1094 q 396 1197 417 1165 q 345 1131 374 1165 q 290 1067 317 1096 q 242 1018 263 1038 q 214 999 221 999 z "},"":{"ha":793,"x_min":-47,"x_max":832,"o":"m -21 0 q -42 10 -37 0 q -47 28 -47 19 q -36 42 -47 36 q -10 53 -25 49 q 19 62 4 58 q 42 69 35 65 l 325 854 q 363 908 342 890 q 413 926 383 926 q 447 921 431 926 q 532 701 497 799 q 598 511 567 603 q 662 324 629 419 q 739 110 694 229 q 763 74 751 82 q 806 57 774 65 q 825 49 818 54 q 832 31 832 44 q 821 12 832 24 q 785 0 810 0 l 574 0 q 552 10 557 0 q 547 28 547 19 q 564 46 547 40 l 617 69 q 581 174 597 124 q 550 272 565 224 q 378 273 457 272 q 206 274 300 274 l 146 100 q 161 74 146 81 q 194 63 176 67 q 226 53 211 58 q 240 31 240 47 q 193 0 240 0 l -21 0 m 232 353 q 384 351 318 353 q 526 350 450 350 q 464 559 496 454 q 383 789 432 664 l 232 353 m 164 1082 q 131 1089 151 1082 q 110 1110 110 1096 q 113 1118 110 1115 q 138 1162 124 1138 q 174 1207 153 1186 q 223 1242 194 1228 q 290 1256 251 1256 q 349 1238 322 1256 q 401 1201 375 1221 q 455 1163 428 1181 q 514 1146 482 1146 q 547 1156 532 1146 q 576 1181 563 1167 q 601 1212 589 1196 q 624 1239 613 1228 q 631 1240 624 1240 q 663 1234 643 1240 q 683 1214 683 1228 q 681 1206 683 1211 q 653 1159 669 1185 q 615 1110 638 1133 q 561 1070 592 1086 q 490 1054 531 1054 q 419 1071 447 1054 q 367 1108 390 1088 q 321 1146 344 1129 q 265 1163 297 1163 q 235 1154 247 1163 q 213 1134 222 1146 q 194 1109 203 1122 q 174 1085 185 1096 q 164 1082 171 1082 z "},"":{"ha":793,"x_min":-47,"x_max":832,"o":"m -21 0 q -42 10 -37 0 q -47 28 -47 19 q -36 42 -47 36 q -10 53 -25 49 q 19 62 4 58 q 42 69 35 65 l 325 854 q 363 908 342 890 q 413 926 383 926 q 447 921 431 926 q 532 701 497 799 q 598 511 567 603 q 662 324 629 419 q 739 110 694 229 q 763 74 751 82 q 806 57 774 65 q 825 49 818 54 q 832 31 832 44 q 821 12 832 24 q 785 0 810 0 l 574 0 q 552 10 557 0 q 547 28 547 19 q 564 46 547 40 l 617 69 q 581 174 597 124 q 550 272 565 224 q 378 273 457 272 q 206 274 300 274 l 146 100 q 161 74 146 81 q 194 63 176 67 q 226 53 211 58 q 240 31 240 47 q 193 0 240 0 l -21 0 m 232 353 q 384 351 318 353 q 526 350 450 350 q 464 559 496 454 q 383 789 432 664 l 232 353 m 560 1025 q 508 1033 529 1025 q 476 1050 488 1040 q 460 1069 465 1060 q 456 1083 456 1079 q 463 1110 456 1094 q 481 1138 469 1125 q 506 1160 492 1151 q 533 1169 519 1169 q 618 1147 594 1169 q 642 1106 642 1125 q 634 1079 642 1093 q 615 1053 626 1065 q 588 1033 603 1042 q 560 1025 574 1025 m 256 1025 q 204 1033 225 1025 q 172 1050 183 1040 q 156 1069 161 1060 q 151 1083 151 1079 q 158 1110 151 1094 q 176 1138 165 1125 q 201 1160 188 1151 q 229 1169 215 1169 q 314 1147 290 1169 q 338 1106 338 1125 q 330 1079 338 1093 q 310 1053 322 1065 q 284 1033 299 1042 q 256 1025 269 1025 z "},"":{"ha":793,"x_min":-47,"x_max":832,"o":"m -21 0 q -42 10 -37 0 q -47 28 -47 19 q -36 42 -47 36 q -10 53 -25 49 q 19 62 4 58 q 42 69 35 65 l 325 854 q 363 908 342 890 q 413 926 383 926 q 447 921 431 926 q 532 701 497 799 q 598 511 567 603 q 662 324 629 419 q 739 110 694 229 q 763 74 751 82 q 806 57 774 65 q 825 49 818 54 q 832 31 832 44 q 821 12 832 24 q 785 0 810 0 l 574 0 q 552 10 557 0 q 547 28 547 19 q 564 46 547 40 l 617 69 q 581 174 597 124 q 550 272 565 224 q 378 273 457 272 q 206 274 300 274 l 146 100 q 161 74 146 81 q 194 63 176 67 q 226 53 211 58 q 240 31 240 47 q 193 0 240 0 l -21 0 m 232 353 q 384 351 318 353 q 526 350 450 350 q 464 559 496 454 q 383 789 432 664 l 232 353 m 382 883 q 317 892 351 883 q 256 919 283 900 q 210 972 228 939 q 192 1053 192 1004 q 252 1184 192 1132 q 413 1236 313 1236 q 474 1228 442 1236 q 534 1202 507 1221 q 579 1151 561 1183 q 597 1072 597 1119 q 540 937 597 990 q 382 883 482 883 m 389 954 l 397 954 q 471 987 442 958 q 500 1063 500 1015 q 490 1115 500 1094 q 466 1147 481 1135 q 434 1163 451 1158 q 403 1168 417 1168 q 321 1137 354 1168 q 288 1060 288 1106 q 297 1007 288 1028 q 322 974 307 986 q 356 958 338 963 q 389 954 374 954 z "},"":{"ha":1104,"x_min":6,"x_max":1064,"o":"m 6 28 q 15 41 6 35 q 38 52 25 47 q 63 61 50 57 q 83 69 76 65 l 419 847 q 383 856 407 856 q 334 858 358 857 q 292 863 310 858 q 274 881 274 867 q 278 901 274 889 q 300 914 283 914 l 519 914 l 514 910 l 528 913 l 913 914 q 958 913 936 914 q 996 908 979 913 q 1023 896 1013 904 q 1033 872 1033 888 q 1029 832 1033 856 q 1019 786 1025 808 q 1003 749 1013 764 q 983 733 994 733 q 955 752 963 733 q 938 792 947 771 q 914 833 929 814 q 864 851 899 851 l 651 851 l 651 519 l 894 525 q 918 510 918 524 q 914 487 918 501 q 903 459 910 472 q 886 435 896 446 q 865 424 876 425 l 651 443 l 651 69 q 699 69 672 69 q 757 68 725 68 q 865 72 814 68 q 935 88 917 76 q 961 122 950 96 q 981 176 972 149 q 996 226 990 204 q 1006 247 1001 247 q 1053 229 1042 247 q 1064 154 1064 211 q 1063 102 1064 129 q 1058 52 1061 75 q 1053 15 1056 29 q 1047 0 1050 0 l 465 0 q 444 13 449 0 q 439 33 439 25 q 450 48 439 42 q 476 59 461 54 q 506 68 490 64 q 528 76 521 72 l 528 275 l 267 275 l 196 103 q 210 74 196 82 q 243 63 225 67 q 276 53 261 58 q 290 31 290 47 q 243 0 290 0 l 94 0 q 82 -3 83 -3 q 72 0 78 -3 l 32 0 q 10 10 15 0 q 6 28 6 19 m 528 353 l 528 892 l 478 782 l 299 353 l 528 353 z "},"":{"ha":788,"x_min":57,"x_max":764,"o":"m 357 -12 q 244 37 299 1 q 149 128 190 72 q 82 262 107 185 q 57 436 57 339 q 91 643 57 551 q 186 799 125 735 q 332 899 247 864 q 518 933 417 933 q 598 924 558 933 q 671 899 638 914 q 726 867 704 885 q 749 833 747 850 q 750 782 749 814 q 749 720 751 750 q 735 668 746 690 q 700 646 725 646 q 682 665 692 646 q 665 707 672 683 q 646 768 656 733 q 621 800 640 785 q 574 828 601 815 q 515 848 547 840 q 454 856 483 856 q 325 824 376 856 q 242 739 274 792 q 199 617 211 686 q 186 474 186 547 q 210 303 186 379 q 276 172 233 226 q 378 89 319 118 q 504 60 436 60 q 534 63 515 60 q 574 70 553 65 q 615 84 594 75 q 649 106 635 93 q 668 120 656 111 q 694 138 681 129 q 719 152 707 146 q 735 158 731 158 q 754 155 744 158 q 764 143 764 151 q 761 128 764 136 q 751 114 758 121 q 456 -22 647 -17 l 456 -89 q 506 -94 479 -89 q 554 -112 532 -100 q 591 -146 576 -125 q 606 -196 606 -167 q 588 -269 606 -237 q 542 -323 571 -301 q 474 -356 513 -344 q 394 -367 436 -367 q 365 -365 385 -367 q 326 -358 346 -362 q 291 -347 306 -354 q 276 -328 276 -339 q 284 -299 276 -314 q 297 -285 292 -285 q 324 -289 308 -285 q 351 -293 340 -293 q 396 -290 374 -293 q 435 -276 418 -286 q 463 -249 453 -267 q 474 -203 474 -232 q 440 -151 474 -165 q 364 -137 407 -137 q 351 -137 357 -137 q 338 -139 344 -137 l 357 -12 z "},"":{"ha":744,"x_min":67,"x_max":708,"o":"m 67 33 q 78 48 67 42 q 103 59 89 54 q 133 68 118 64 q 156 76 149 72 l 156 838 q 133 845 149 842 q 103 854 118 849 q 78 866 89 860 q 67 881 67 872 q 72 901 67 889 q 93 914 76 914 l 572 914 q 640 908 618 914 q 661 872 661 901 q 657 832 661 856 q 647 786 653 808 q 631 749 640 764 q 611 733 622 733 q 583 752 590 733 q 566 792 575 771 q 542 833 557 814 q 492 851 526 851 l 279 851 l 279 519 l 522 525 q 546 510 546 524 q 542 487 546 501 q 531 459 538 472 q 514 435 524 446 q 493 424 504 425 l 279 443 l 279 69 q 335 69 300 69 q 401 68 369 68 q 504 72 458 68 q 568 88 550 76 q 597 124 583 96 q 620 181 610 151 q 638 235 631 211 q 650 258 646 258 q 697 240 686 258 q 708 165 708 222 q 707 111 708 140 q 703 58 706 82 q 697 17 700 33 q 692 0 694 0 l 93 0 q 72 13 76 0 q 67 33 67 25 m 467 1003 q 451 1007 458 1003 q 408 1038 436 1018 q 350 1081 379 1057 q 295 1131 321 1104 q 258 1183 269 1158 l 258 1186 q 267 1208 258 1193 q 289 1237 276 1222 q 316 1262 301 1251 q 342 1272 331 1272 q 356 1264 351 1272 l 513 1035 l 513 1033 q 498 1015 513 1026 q 467 1003 483 1003 z "},"":{"ha":744,"x_min":67,"x_max":708,"o":"m 67 33 q 78 48 67 42 q 103 59 89 54 q 133 68 118 64 q 156 76 149 72 l 156 838 q 133 845 149 842 q 103 854 118 849 q 78 866 89 860 q 67 881 67 872 q 72 901 67 889 q 93 914 76 914 l 572 914 q 640 908 618 914 q 661 872 661 901 q 657 832 661 856 q 647 786 653 808 q 631 749 640 764 q 611 733 622 733 q 583 752 590 733 q 566 792 575 771 q 542 833 557 814 q 492 851 526 851 l 279 851 l 279 519 l 522 525 q 546 510 546 524 q 542 487 546 501 q 531 459 538 472 q 514 435 524 446 q 493 424 504 425 l 279 443 l 279 69 q 335 69 300 69 q 401 68 369 68 q 504 72 458 68 q 568 88 550 76 q 597 124 583 96 q 620 181 610 151 q 638 235 631 211 q 650 258 646 258 q 697 240 686 258 q 708 165 708 222 q 707 111 708 140 q 703 58 706 82 q 697 17 700 33 q 692 0 694 0 l 93 0 q 72 13 76 0 q 67 33 67 25 m 307 1003 q 273 1015 288 1003 q 258 1033 258 1026 l 258 1035 l 415 1264 q 429 1272 419 1272 q 455 1262 440 1272 q 482 1237 469 1251 q 503 1208 494 1222 q 513 1186 513 1193 l 513 1183 q 476 1131 501 1158 q 421 1081 450 1104 q 365 1038 392 1057 q 324 1007 338 1018 q 307 1003 315 1003 z "},"":{"ha":744,"x_min":67,"x_max":708,"o":"m 67 33 q 78 48 67 42 q 103 59 89 54 q 133 68 118 64 q 156 76 149 72 l 156 838 q 133 845 149 842 q 103 854 118 849 q 78 866 89 860 q 67 881 67 872 q 72 901 67 889 q 93 914 76 914 l 572 914 q 640 908 618 914 q 661 872 661 901 q 657 832 661 856 q 647 786 653 808 q 631 749 640 764 q 611 733 622 733 q 583 752 590 733 q 566 792 575 771 q 542 833 557 814 q 492 851 526 851 l 279 851 l 279 519 l 522 525 q 546 510 546 524 q 542 487 546 501 q 531 459 538 472 q 514 435 524 446 q 493 424 504 425 l 279 443 l 279 69 q 335 69 300 69 q 401 68 369 68 q 504 72 458 68 q 568 88 550 76 q 597 124 583 96 q 620 181 610 151 q 638 235 631 211 q 650 258 646 258 q 697 240 686 258 q 708 165 708 222 q 707 111 708 140 q 703 58 706 82 q 697 17 700 33 q 692 0 694 0 l 93 0 q 72 13 76 0 q 67 33 67 25 m 203 999 q 168 1011 183 999 q 153 1029 153 1024 l 310 1274 q 335 1281 313 1279 q 383 1283 357 1283 q 430 1281 408 1283 q 456 1274 451 1279 l 614 1029 q 599 1011 614 1024 q 567 999 583 999 q 537 1017 558 999 q 488 1065 515 1036 q 433 1130 461 1094 q 385 1197 406 1165 q 334 1131 363 1165 q 278 1067 306 1096 q 231 1018 251 1038 q 203 999 210 999 z "},"":{"ha":744,"x_min":67,"x_max":708,"o":"m 67 33 q 78 48 67 42 q 103 59 89 54 q 133 68 118 64 q 156 76 149 72 l 156 838 q 133 845 149 842 q 103 854 118 849 q 78 866 89 860 q 67 881 67 872 q 72 901 67 889 q 93 914 76 914 l 572 914 q 640 908 618 914 q 661 872 661 901 q 657 832 661 856 q 647 786 653 808 q 631 749 640 764 q 611 733 622 733 q 583 752 590 733 q 566 792 575 771 q 542 833 557 814 q 492 851 526 851 l 279 851 l 279 519 l 522 525 q 546 510 546 524 q 542 487 546 501 q 531 459 538 472 q 514 435 524 446 q 493 424 504 425 l 279 443 l 279 69 q 335 69 300 69 q 401 68 369 68 q 504 72 458 68 q 568 88 550 76 q 597 124 583 96 q 620 181 610 151 q 638 235 631 211 q 650 258 646 258 q 697 240 686 258 q 708 165 708 222 q 707 111 708 140 q 703 58 706 82 q 697 17 700 33 q 692 0 694 0 l 93 0 q 72 13 76 0 q 67 33 67 25 m 549 1025 q 497 1033 518 1025 q 465 1050 476 1040 q 449 1069 454 1060 q 444 1083 444 1079 q 451 1110 444 1094 q 469 1138 458 1125 q 494 1160 481 1151 q 522 1169 508 1169 q 607 1147 583 1169 q 631 1106 631 1125 q 623 1079 631 1093 q 603 1053 615 1065 q 577 1033 592 1042 q 549 1025 563 1025 m 244 1025 q 193 1033 214 1025 q 161 1050 172 1040 q 145 1069 150 1060 q 140 1083 140 1079 q 147 1110 140 1094 q 165 1138 154 1125 q 190 1160 176 1151 q 218 1169 204 1169 q 303 1147 279 1169 q 326 1106 326 1125 q 319 1079 326 1093 q 299 1053 311 1065 q 273 1033 288 1042 q 244 1025 258 1025 z "},"":{"ha":436,"x_min":67,"x_max":379,"o":"m 67 33 q 78 48 67 42 q 103 59 89 54 q 133 68 118 64 q 156 76 149 72 l 156 838 q 133 845 149 842 q 103 854 118 849 q 78 866 89 860 q 67 881 67 872 q 72 901 67 889 q 93 914 76 914 l 332 914 q 368 902 357 914 q 379 883 379 890 q 365 860 379 867 q 332 850 350 854 q 298 840 314 846 q 281 817 282 833 l 281 97 q 298 73 282 79 q 332 63 314 67 q 365 53 350 58 q 379 31 379 47 q 368 12 379 24 q 332 0 357 0 l 93 0 q 72 13 76 0 q 67 33 67 25 m 296 1003 q 281 1007 288 1003 q 237 1038 265 1018 q 179 1081 208 1057 q 124 1131 150 1104 q 88 1183 99 1158 l 88 1186 q 97 1208 88 1193 q 118 1237 106 1222 q 145 1262 131 1251 q 171 1272 160 1272 q 185 1264 181 1272 l 342 1035 l 342 1033 q 327 1015 342 1026 q 296 1003 313 1003 z "},"":{"ha":436,"x_min":67,"x_max":379,"o":"m 67 33 q 78 48 67 42 q 103 59 89 54 q 133 68 118 64 q 156 76 149 72 l 156 838 q 133 845 149 842 q 103 854 118 849 q 78 866 89 860 q 67 881 67 872 q 72 901 67 889 q 93 914 76 914 l 332 914 q 368 902 357 914 q 379 883 379 890 q 365 860 379 867 q 332 850 350 854 q 298 840 314 846 q 281 817 282 833 l 281 97 q 298 73 282 79 q 332 63 314 67 q 365 53 350 58 q 379 31 379 47 q 368 12 379 24 q 332 0 357 0 l 93 0 q 72 13 76 0 q 67 33 67 25 m 136 1003 q 102 1015 117 1003 q 88 1033 88 1026 l 88 1035 l 244 1264 q 258 1272 249 1272 q 284 1262 269 1272 q 311 1237 299 1251 q 333 1208 324 1222 q 342 1186 342 1193 l 342 1183 q 305 1131 331 1158 q 250 1081 279 1104 q 194 1038 221 1057 q 153 1007 167 1018 q 136 1003 144 1003 z "},"":{"ha":436,"x_min":-18,"x_max":443,"o":"m 67 33 q 78 48 67 42 q 103 59 89 54 q 133 68 118 64 q 156 76 149 72 l 156 838 q 133 845 149 842 q 103 854 118 849 q 78 866 89 860 q 67 881 67 872 q 72 901 67 889 q 93 914 76 914 l 332 914 q 368 902 357 914 q 379 883 379 890 q 365 860 379 867 q 332 850 350 854 q 298 840 314 846 q 281 817 282 833 l 281 97 q 298 73 282 79 q 332 63 314 67 q 365 53 350 58 q 379 31 379 47 q 368 12 379 24 q 332 0 357 0 l 93 0 q 72 13 76 0 q 67 33 67 25 m 32 999 q -3 1011 13 999 q -18 1029 -18 1024 l 139 1274 q 164 1281 142 1279 q 213 1283 186 1283 q 259 1281 238 1283 q 285 1274 281 1279 l 443 1029 q 428 1011 443 1024 q 396 999 413 999 q 366 1017 388 999 q 317 1065 344 1036 q 263 1130 290 1094 q 214 1197 235 1165 q 163 1131 192 1165 q 108 1067 135 1096 q 60 1018 81 1038 q 32 999 39 999 z "},"":{"ha":436,"x_min":-31,"x_max":460,"o":"m 67 33 q 78 48 67 42 q 103 59 89 54 q 133 68 118 64 q 156 76 149 72 l 156 838 q 133 845 149 842 q 103 854 118 849 q 78 866 89 860 q 67 881 67 872 q 72 901 67 889 q 93 914 76 914 l 332 914 q 368 902 357 914 q 379 883 379 890 q 365 860 379 867 q 332 850 350 854 q 298 840 314 846 q 281 817 282 833 l 281 97 q 298 73 282 79 q 332 63 314 67 q 365 53 350 58 q 379 31 379 47 q 368 12 379 24 q 332 0 357 0 l 93 0 q 72 13 76 0 q 67 33 67 25 m 378 1025 q 326 1033 347 1025 q 294 1050 306 1040 q 278 1069 283 1060 q 274 1083 274 1079 q 281 1110 274 1094 q 299 1138 288 1125 q 324 1160 310 1151 q 351 1169 338 1169 q 436 1147 413 1169 q 460 1106 460 1125 q 452 1079 460 1093 q 433 1053 444 1065 q 406 1033 421 1042 q 378 1025 392 1025 m 74 1025 q 22 1033 43 1025 q -10 1050 1 1040 q -26 1069 -21 1060 q -31 1083 -31 1079 q -24 1110 -31 1094 q -6 1138 -17 1125 q 19 1160 6 1151 q 47 1169 33 1169 q 132 1147 108 1169 q 156 1106 156 1125 q 148 1079 156 1093 q 128 1053 140 1065 q 102 1033 117 1042 q 74 1025 88 1025 z "},"":{"ha":922,"x_min":93,"x_max":882,"o":"m 93 33 q 104 48 93 42 q 130 59 115 54 q 160 68 144 64 q 182 76 175 72 l 182 439 l 119 439 q 103 447 113 439 q 93 471 93 456 q 100 490 93 481 q 116 506 107 499 q 134 518 125 514 q 149 522 143 522 l 182 522 l 182 838 q 160 845 175 842 q 130 854 144 849 q 104 866 115 860 q 93 881 93 872 q 98 901 93 889 q 119 914 103 914 l 229 914 q 322 919 265 914 q 436 924 378 924 q 635 894 551 924 q 774 807 719 864 q 856 669 829 750 q 882 485 882 588 q 854 305 882 393 q 768 147 826 217 q 621 35 710 78 q 411 -7 532 -7 q 372 -6 390 -7 q 333 -3 354 -4 q 287 -1 313 -3 q 225 0 261 0 l 119 0 q 98 13 103 0 q 93 33 93 25 m 306 67 q 344 65 318 67 q 406 63 371 63 q 667 172 576 63 q 758 471 758 281 q 740 615 758 546 q 679 735 721 683 q 572 818 638 788 q 413 849 506 849 l 306 849 l 306 522 l 479 522 q 502 516 492 522 q 513 503 513 510 q 505 472 513 485 q 485 452 497 460 q 461 442 474 444 q 439 439 449 439 l 306 439 l 306 67 z "},"":{"ha":957,"x_min":54,"x_max":938,"o":"m 54 33 q 65 48 54 42 q 91 59 76 54 q 121 68 106 64 q 143 76 136 72 l 143 814 q 128 832 142 825 q 97 844 114 839 q 67 856 81 850 q 54 872 54 863 q 59 897 54 881 q 81 914 64 914 l 192 914 q 216 906 207 914 q 236 882 225 897 l 681 286 l 750 144 l 750 838 q 728 846 743 842 q 698 855 713 850 q 672 866 683 860 q 661 881 661 872 q 666 901 661 889 q 688 914 671 914 l 890 914 q 926 902 915 914 q 938 883 938 890 q 922 860 938 865 q 888 851 907 854 q 854 840 869 847 q 839 811 839 832 l 839 36 q 830 15 839 22 q 808 5 821 8 q 779 1 794 1 q 751 0 764 0 l 317 565 l 229 722 l 229 103 q 244 74 229 82 q 278 63 260 67 q 313 54 297 60 q 328 31 328 49 q 317 12 328 24 q 281 0 306 0 l 81 0 q 59 13 64 0 q 54 33 54 25 m 267 1082 q 233 1089 254 1082 q 213 1110 213 1096 q 215 1118 213 1115 q 241 1162 226 1138 q 276 1207 256 1186 q 326 1242 297 1228 q 393 1256 354 1256 q 451 1238 425 1256 q 504 1201 478 1221 q 558 1163 531 1181 q 617 1146 585 1146 q 650 1156 635 1146 q 678 1181 665 1167 q 703 1212 692 1196 q 726 1239 715 1228 q 733 1240 726 1240 q 766 1234 746 1240 q 786 1214 786 1228 q 783 1206 786 1211 q 756 1159 772 1185 q 717 1110 740 1133 q 664 1070 694 1086 q 593 1054 633 1054 q 522 1071 550 1054 q 470 1108 493 1088 q 424 1146 447 1129 q 368 1163 400 1163 q 338 1154 350 1163 q 315 1134 325 1146 q 297 1109 306 1122 q 276 1085 288 1096 q 267 1082 274 1082 z "},"":{"ha":918,"x_min":56,"x_max":876,"o":"m 56 425 q 84 613 56 521 q 168 775 113 704 q 308 890 224 846 q 501 933 392 933 q 674 897 603 933 q 790 797 744 860 q 856 653 835 735 q 876 481 876 571 q 849 294 876 385 q 767 134 822 204 q 629 21 711 64 q 436 -22 547 -22 q 263 14 335 -22 q 144 111 190 50 q 77 253 99 172 q 56 425 56 335 m 478 58 q 615 94 561 58 q 701 183 669 129 q 744 302 732 238 q 757 426 757 367 q 740 581 757 504 q 688 717 724 657 q 595 815 651 778 q 460 851 539 851 q 322 816 376 851 q 234 726 267 781 q 188 605 201 671 q 175 479 175 539 q 193 326 175 401 q 249 191 211 250 q 343 95 286 132 q 478 58 400 58 m 585 1003 q 569 1007 576 1003 q 526 1038 554 1018 q 468 1081 497 1057 q 413 1131 439 1104 q 376 1183 388 1158 l 376 1186 q 385 1208 376 1193 q 407 1237 394 1222 q 434 1262 419 1251 q 460 1272 449 1272 q 474 1264 469 1272 l 631 1035 l 631 1033 q 616 1015 631 1026 q 585 1003 601 1003 z "},"":{"ha":918,"x_min":56,"x_max":876,"o":"m 56 425 q 84 613 56 521 q 168 775 113 704 q 308 890 224 846 q 501 933 392 933 q 674 897 603 933 q 790 797 744 860 q 856 653 835 735 q 876 481 876 571 q 849 294 876 385 q 767 134 822 204 q 629 21 711 64 q 436 -22 547 -22 q 263 14 335 -22 q 144 111 190 50 q 77 253 99 172 q 56 425 56 335 m 478 58 q 615 94 561 58 q 701 183 669 129 q 744 302 732 238 q 757 426 757 367 q 740 581 757 504 q 688 717 724 657 q 595 815 651 778 q 460 851 539 851 q 322 816 376 851 q 234 726 267 781 q 188 605 201 671 q 175 479 175 539 q 193 326 175 401 q 249 191 211 250 q 343 95 286 132 q 478 58 400 58 m 425 1003 q 391 1015 406 1003 q 376 1033 376 1026 l 376 1035 l 533 1264 q 547 1272 538 1272 q 573 1262 558 1272 q 600 1237 588 1251 q 622 1208 613 1222 q 631 1186 631 1193 l 631 1183 q 594 1131 619 1158 q 539 1081 568 1104 q 483 1038 510 1057 q 442 1007 456 1018 q 425 1003 433 1003 z "},"":{"ha":918,"x_min":56,"x_max":876,"o":"m 56 425 q 84 613 56 521 q 168 775 113 704 q 308 890 224 846 q 501 933 392 933 q 674 897 603 933 q 790 797 744 860 q 856 653 835 735 q 876 481 876 571 q 849 294 876 385 q 767 134 822 204 q 629 21 711 64 q 436 -22 547 -22 q 263 14 335 -22 q 144 111 190 50 q 77 253 99 172 q 56 425 56 335 m 478 58 q 615 94 561 58 q 701 183 669 129 q 744 302 732 238 q 757 426 757 367 q 740 581 757 504 q 688 717 724 657 q 595 815 651 778 q 460 851 539 851 q 322 816 376 851 q 234 726 267 781 q 188 605 201 671 q 175 479 175 539 q 193 326 175 401 q 249 191 211 250 q 343 95 286 132 q 478 58 400 58 m 321 999 q 286 1011 301 999 q 271 1029 271 1024 l 428 1274 q 453 1281 431 1279 q 501 1283 475 1283 q 548 1281 526 1283 q 574 1274 569 1279 l 732 1029 q 717 1011 732 1024 q 685 999 701 999 q 655 1017 676 999 q 606 1065 633 1036 q 551 1130 579 1094 q 503 1197 524 1165 q 452 1131 481 1165 q 397 1067 424 1096 q 349 1018 369 1038 q 321 999 328 999 z "},"":{"ha":918,"x_min":56,"x_max":876,"o":"m 56 425 q 84 613 56 521 q 168 775 113 704 q 308 890 224 846 q 501 933 392 933 q 674 897 603 933 q 790 797 744 860 q 856 653 835 735 q 876 481 876 571 q 849 294 876 385 q 767 134 822 204 q 629 21 711 64 q 436 -22 547 -22 q 263 14 335 -22 q 144 111 190 50 q 77 253 99 172 q 56 425 56 335 m 478 58 q 615 94 561 58 q 701 183 669 129 q 744 302 732 238 q 757 426 757 367 q 740 581 757 504 q 688 717 724 657 q 595 815 651 778 q 460 851 539 851 q 322 816 376 851 q 234 726 267 781 q 188 605 201 671 q 175 479 175 539 q 193 326 175 401 q 249 191 211 250 q 343 95 286 132 q 478 58 400 58 m 271 1082 q 238 1089 258 1082 q 217 1110 217 1096 q 219 1118 217 1115 q 245 1162 231 1138 q 281 1207 260 1186 q 330 1242 301 1228 q 397 1256 358 1256 q 456 1238 429 1256 q 508 1201 482 1221 q 562 1163 535 1181 q 621 1146 589 1146 q 654 1156 639 1146 q 683 1181 669 1167 q 708 1212 696 1196 q 731 1239 719 1228 q 738 1240 731 1240 q 770 1234 750 1240 q 790 1214 790 1228 q 788 1206 790 1211 q 760 1159 776 1185 q 722 1110 744 1133 q 668 1070 699 1086 q 597 1054 638 1054 q 526 1071 554 1054 q 474 1108 497 1088 q 428 1146 451 1129 q 372 1163 404 1163 q 342 1154 354 1163 q 319 1134 329 1146 q 301 1109 310 1122 q 281 1085 292 1096 q 271 1082 278 1082 z "},"":{"ha":918,"x_min":56,"x_max":876,"o":"m 56 425 q 84 613 56 521 q 168 775 113 704 q 308 890 224 846 q 501 933 392 933 q 674 897 603 933 q 790 797 744 860 q 856 653 835 735 q 876 481 876 571 q 849 294 876 385 q 767 134 822 204 q 629 21 711 64 q 436 -22 547 -22 q 263 14 335 -22 q 144 111 190 50 q 77 253 99 172 q 56 425 56 335 m 478 58 q 615 94 561 58 q 701 183 669 129 q 744 302 732 238 q 757 426 757 367 q 740 581 757 504 q 688 717 724 657 q 595 815 651 778 q 460 851 539 851 q 322 816 376 851 q 234 726 267 781 q 188 605 201 671 q 175 479 175 539 q 193 326 175 401 q 249 191 211 250 q 343 95 286 132 q 478 58 400 58 m 667 1025 q 615 1033 636 1025 q 583 1050 594 1040 q 567 1069 572 1060 q 563 1083 563 1079 q 569 1110 563 1094 q 588 1138 576 1125 q 613 1160 599 1151 q 640 1169 626 1169 q 725 1147 701 1169 q 749 1106 749 1125 q 741 1079 749 1093 q 722 1053 733 1065 q 695 1033 710 1042 q 667 1025 681 1025 m 363 1025 q 311 1033 332 1025 q 279 1050 290 1040 q 263 1069 268 1060 q 258 1083 258 1079 q 265 1110 258 1094 q 283 1138 272 1125 q 308 1160 294 1151 q 336 1169 322 1169 q 421 1147 397 1169 q 444 1106 444 1125 q 437 1079 444 1093 q 417 1053 429 1065 q 391 1033 406 1042 q 363 1025 376 1025 z "},"":{"ha":711,"x_min":72,"x_max":657,"o":"m 72 128 q 86 153 72 139 q 197 267 144 211 q 299 382 249 324 q 190 487 244 433 q 82 600 136 540 q 79 607 79 603 q 87 624 79 614 q 105 642 94 633 q 126 656 115 650 q 146 663 138 663 q 153 661 150 663 q 256 552 206 603 q 360 453 307 501 q 454 559 406 506 q 557 665 503 613 q 582 668 560 668 q 628 663 604 668 q 651 639 651 657 q 644 621 651 629 q 531 504 583 561 q 426 389 478 447 q 541 279 485 335 q 657 161 597 224 q 649 140 657 150 q 628 121 640 129 q 604 107 617 113 q 582 101 592 101 q 472 213 526 160 q 365 318 418 267 q 272 214 319 265 q 171 110 224 163 q 156 105 168 107 q 131 103 144 103 q 91 108 110 103 q 72 128 72 114 z "},"":{"ha":918,"x_min":56,"x_max":876,"o":"m 135 -82 q 172 -14 151 -47 q 207 47 192 19 q 92 208 128 108 q 56 425 56 307 q 84 613 56 521 q 168 775 113 704 q 308 890 224 846 q 501 933 392 933 q 587 926 547 933 q 661 903 626 918 l 704 990 q 741 1020 715 1007 q 790 1033 767 1033 q 815 1014 815 1033 q 810 992 815 1004 l 733 857 q 842 695 808 794 q 876 481 876 596 q 849 294 876 385 q 767 134 822 204 q 629 21 711 64 q 436 -22 547 -22 q 353 -15 392 -22 q 282 6 315 -7 l 228 -96 q 194 -121 215 -111 q 156 -131 174 -131 q 136 -125 144 -131 q 128 -107 128 -119 q 135 -82 128 -99 m 617 799 q 546 838 585 824 q 460 851 507 851 q 322 816 376 851 q 234 726 267 781 q 188 605 201 671 q 175 479 175 539 q 199 301 175 388 q 275 153 224 215 l 617 799 m 324 108 q 478 58 389 58 q 615 94 561 58 q 701 183 669 129 q 744 302 732 238 q 757 426 757 367 q 735 600 757 515 q 667 747 714 685 l 324 108 z "},"":{"ha":872,"x_min":44,"x_max":856,"o":"m 106 838 q 91 847 101 842 q 70 857 81 851 q 52 869 60 863 q 44 881 44 875 q 49 901 44 889 q 71 914 54 914 l 294 914 q 331 902 319 914 q 342 883 342 890 q 325 860 342 865 q 288 851 308 854 q 251 840 268 847 q 235 811 235 832 l 235 424 q 244 254 235 324 q 279 141 254 185 q 349 78 304 97 q 465 58 394 58 q 557 69 518 58 q 622 119 596 81 q 660 233 647 158 q 674 438 674 308 l 674 838 q 651 845 667 842 q 622 854 636 849 q 596 866 607 860 q 585 881 585 872 q 589 901 585 889 q 611 914 593 914 l 808 914 q 844 902 833 914 q 856 883 856 890 q 842 861 856 867 q 813 851 829 856 q 784 840 797 847 q 771 811 771 832 l 771 399 q 756 244 771 319 q 703 109 742 168 q 597 14 664 50 q 428 -22 531 -22 q 106 353 106 -22 l 106 838 m 514 1003 q 499 1007 506 1003 q 455 1038 483 1018 q 397 1081 426 1057 q 342 1131 368 1104 q 306 1183 317 1158 l 306 1186 q 315 1208 306 1193 q 336 1237 324 1222 q 363 1262 349 1251 q 389 1272 378 1272 q 403 1264 399 1272 l 560 1035 l 560 1033 q 545 1015 560 1026 q 514 1003 531 1003 z "},"":{"ha":872,"x_min":44,"x_max":856,"o":"m 106 838 q 91 847 101 842 q 70 857 81 851 q 52 869 60 863 q 44 881 44 875 q 49 901 44 889 q 71 914 54 914 l 294 914 q 331 902 319 914 q 342 883 342 890 q 325 860 342 865 q 288 851 308 854 q 251 840 268 847 q 235 811 235 832 l 235 424 q 244 254 235 324 q 279 141 254 185 q 349 78 304 97 q 465 58 394 58 q 557 69 518 58 q 622 119 596 81 q 660 233 647 158 q 674 438 674 308 l 674 838 q 651 845 667 842 q 622 854 636 849 q 596 866 607 860 q 585 881 585 872 q 589 901 585 889 q 611 914 593 914 l 808 914 q 844 902 833 914 q 856 883 856 890 q 842 861 856 867 q 813 851 829 856 q 784 840 797 847 q 771 811 771 832 l 771 399 q 756 244 771 319 q 703 109 742 168 q 597 14 664 50 q 428 -22 531 -22 q 106 353 106 -22 l 106 838 m 354 1003 q 320 1015 335 1003 q 306 1033 306 1026 l 306 1035 l 463 1264 q 476 1272 467 1272 q 502 1262 488 1272 q 529 1237 517 1251 q 551 1208 542 1222 q 560 1186 560 1193 l 560 1183 q 523 1131 549 1158 q 468 1081 497 1104 q 412 1038 439 1057 q 371 1007 385 1018 q 354 1003 363 1003 z "},"":{"ha":872,"x_min":44,"x_max":856,"o":"m 106 838 q 91 847 101 842 q 70 857 81 851 q 52 869 60 863 q 44 881 44 875 q 49 901 44 889 q 71 914 54 914 l 294 914 q 331 902 319 914 q 342 883 342 890 q 325 860 342 865 q 288 851 308 854 q 251 840 268 847 q 235 811 235 832 l 235 424 q 244 254 235 324 q 279 141 254 185 q 349 78 304 97 q 465 58 394 58 q 557 69 518 58 q 622 119 596 81 q 660 233 647 158 q 674 438 674 308 l 674 838 q 651 845 667 842 q 622 854 636 849 q 596 866 607 860 q 585 881 585 872 q 589 901 585 889 q 611 914 593 914 l 808 914 q 844 902 833 914 q 856 883 856 890 q 842 861 856 867 q 813 851 829 856 q 784 840 797 847 q 771 811 771 832 l 771 399 q 756 244 771 319 q 703 109 742 168 q 597 14 664 50 q 428 -22 531 -22 q 106 353 106 -22 l 106 838 m 250 999 q 215 1011 231 999 q 200 1029 200 1024 l 357 1274 q 382 1281 360 1279 q 431 1283 404 1283 q 477 1281 456 1283 q 503 1274 499 1279 l 661 1029 q 646 1011 661 1024 q 614 999 631 999 q 584 1017 606 999 q 535 1065 563 1036 q 481 1130 508 1094 q 432 1197 453 1165 q 381 1131 410 1165 q 326 1067 353 1096 q 278 1018 299 1038 q 250 999 257 999 z "},"":{"ha":872,"x_min":44,"x_max":856,"o":"m 106 838 q 91 847 101 842 q 70 857 81 851 q 52 869 60 863 q 44 881 44 875 q 49 901 44 889 q 71 914 54 914 l 294 914 q 331 902 319 914 q 342 883 342 890 q 325 860 342 865 q 288 851 308 854 q 251 840 268 847 q 235 811 235 832 l 235 424 q 244 254 235 324 q 279 141 254 185 q 349 78 304 97 q 465 58 394 58 q 557 69 518 58 q 622 119 596 81 q 660 233 647 158 q 674 438 674 308 l 674 838 q 651 845 667 842 q 622 854 636 849 q 596 866 607 860 q 585 881 585 872 q 589 901 585 889 q 611 914 593 914 l 808 914 q 844 902 833 914 q 856 883 856 890 q 842 861 856 867 q 813 851 829 856 q 784 840 797 847 q 771 811 771 832 l 771 399 q 756 244 771 319 q 703 109 742 168 q 597 14 664 50 q 428 -22 531 -22 q 106 353 106 -22 l 106 838 m 596 1025 q 544 1033 565 1025 q 513 1050 524 1040 q 497 1069 501 1060 q 492 1083 492 1079 q 499 1110 492 1094 q 517 1138 506 1125 q 542 1160 528 1151 q 569 1169 556 1169 q 654 1147 631 1169 q 678 1106 678 1125 q 670 1079 678 1093 q 651 1053 663 1065 q 624 1033 639 1042 q 596 1025 610 1025 m 292 1025 q 240 1033 261 1025 q 208 1050 219 1040 q 192 1069 197 1060 q 188 1083 188 1079 q 194 1110 188 1094 q 213 1138 201 1125 q 238 1160 224 1151 q 265 1169 251 1169 q 350 1147 326 1169 q 374 1106 374 1125 q 366 1079 374 1093 q 347 1053 358 1065 q 320 1033 335 1042 q 292 1025 306 1025 z "},"":{"ha":601,"x_min":-18,"x_max":799,"o":"m 200 40 q 216 58 200 51 q 254 68 232 64 q 298 75 276 72 q 331 83 319 78 l 331 381 l 60 838 q 41 845 54 840 q 15 856 28 850 q -8 867 1 861 q -18 881 -18 874 q -13 901 -18 889 q 8 914 -8 914 l 239 914 q 275 902 264 914 q 286 883 286 890 q 274 864 286 871 q 247 853 263 857 q 215 847 231 849 q 192 840 200 844 l 408 446 l 621 838 q 594 845 613 842 q 558 853 576 849 q 527 865 540 858 q 514 881 514 871 q 519 901 514 889 q 540 914 524 914 l 757 914 q 790 902 782 914 q 799 883 799 890 q 792 865 799 869 q 772 857 785 860 q 747 850 757 853 q 728 843 736 847 q 714 831 721 839 q 697 810 707 824 l 456 378 l 456 107 q 478 81 457 88 q 525 72 500 75 q 570 63 550 68 q 590 38 590 57 q 579 15 590 31 q 543 0 568 0 l 226 0 q 205 16 210 0 q 200 40 200 32 m 318 1003 q 284 1015 299 1003 q 269 1033 269 1026 l 269 1035 l 426 1264 q 440 1272 431 1272 q 466 1262 451 1272 q 493 1237 481 1251 q 515 1208 506 1222 q 524 1186 524 1193 l 524 1183 q 487 1131 513 1158 q 432 1081 461 1104 q 376 1038 403 1057 q 335 1007 349 1018 q 318 1003 326 1003 z "},"":{"ha":753,"x_min":67,"x_max":731,"o":"m 67 33 q 78 48 67 42 q 103 59 89 54 q 133 68 118 64 q 156 76 149 72 l 156 838 q 133 845 149 842 q 103 854 118 849 q 78 866 89 860 q 67 881 67 872 q 72 901 67 889 q 93 914 76 914 l 332 914 q 368 902 357 914 q 379 883 379 890 q 365 860 379 867 q 332 850 350 854 q 298 840 314 846 q 281 817 282 833 l 281 743 q 316 746 300 744 q 349 749 332 747 q 385 751 365 750 q 435 751 406 751 q 519 742 468 751 q 614 706 569 732 q 668 660 646 686 q 704 604 690 633 q 724 544 718 575 q 731 486 731 514 q 697 346 731 411 q 600 236 664 281 q 537 203 571 215 q 468 186 503 192 q 399 179 433 181 q 332 178 364 178 q 281 182 314 178 l 281 103 q 299 74 281 82 q 338 63 317 67 q 378 54 360 60 q 396 31 396 49 q 385 12 396 24 q 349 0 374 0 l 93 0 q 72 13 76 0 q 67 33 67 25 m 281 264 q 335 260 304 261 q 389 258 365 258 q 465 267 426 258 q 535 297 504 276 q 586 354 567 318 q 606 444 606 390 q 590 556 606 511 q 544 628 575 601 q 465 667 513 656 q 354 679 418 679 q 319 678 338 679 q 281 676 300 678 l 281 264 z "},"":{"ha":715,"x_min":15,"x_max":678,"o":"m 118 558 l 43 558 q 20 565 25 558 q 15 583 15 572 q 27 617 15 599 q 58 636 39 636 l 118 636 q 141 770 121 703 q 199 892 161 838 q 290 979 236 946 q 417 1013 344 1013 q 479 1001 447 1013 q 537 968 511 990 q 579 913 563 946 q 596 836 596 879 q 585 753 596 785 q 553 697 574 721 q 505 653 533 674 q 440 601 476 632 q 438 590 438 594 q 438 578 438 585 q 456 536 438 556 q 501 497 474 517 q 558 453 528 476 q 616 403 589 431 q 660 340 643 375 q 678 258 678 304 q 660 156 678 203 q 610 74 642 108 q 535 19 579 39 q 439 0 492 0 l 378 0 q 358 17 358 6 q 372 71 358 57 q 431 85 385 85 q 501 89 475 85 q 542 106 528 93 q 562 145 557 119 q 567 213 567 171 q 531 311 567 271 q 453 385 496 351 q 374 453 410 419 q 339 532 339 488 q 362 603 339 576 q 412 653 385 629 q 461 708 439 678 q 483 788 483 738 q 458 891 483 849 q 360 933 432 933 q 292 912 317 933 q 254 861 267 890 q 238 801 242 832 q 235 749 235 769 l 235 24 q 223 8 232 15 q 201 -7 214 0 q 175 -18 189 -14 q 150 -22 161 -22 q 118 -6 131 -22 l 118 558 z "},"":{"ha":661,"x_min":54,"x_max":642,"o":"m 54 140 q 86 246 54 203 q 171 317 118 289 q 291 361 224 346 q 429 382 358 376 l 429 413 q 425 479 429 446 q 406 540 421 513 q 360 576 389 568 q 304 583 332 583 q 246 581 267 583 q 215 574 225 579 q 202 558 204 568 q 200 529 200 547 q 205 505 200 510 q 210 493 210 500 q 201 470 210 482 q 178 449 192 458 q 149 435 165 440 q 119 429 133 429 q 81 448 88 429 q 74 481 74 467 q 106 546 74 514 q 185 604 139 578 q 282 647 232 631 q 367 663 332 663 q 462 644 425 663 q 518 597 499 626 q 544 531 538 568 q 551 457 551 494 l 551 60 q 583 66 567 60 q 617 72 600 72 q 637 67 632 72 q 642 51 642 61 q 631 34 642 46 q 599 10 619 22 q 553 -12 579 -3 q 494 -22 526 -22 q 449 -11 468 -22 q 429 26 429 0 l 429 79 q 350 6 393 35 q 246 -22 307 -22 q 158 -7 194 -22 q 98 33 121 8 q 65 85 75 57 q 54 140 54 114 m 185 186 q 213 93 185 131 q 315 56 240 56 q 374 76 343 56 q 429 131 406 97 l 429 318 q 347 310 390 317 q 268 290 304 304 q 208 251 232 276 q 185 186 185 226 m 388 767 q 347 804 374 778 q 290 863 319 831 q 235 928 261 894 q 199 986 210 961 l 199 989 q 208 1010 199 996 q 229 1038 217 1024 q 256 1063 242 1053 q 282 1074 271 1074 q 296 1067 293 1074 l 453 796 l 453 794 q 438 775 453 788 q 404 763 424 763 q 388 767 396 763 z "},"":{"ha":661,"x_min":54,"x_max":642,"o":"m 54 140 q 86 246 54 203 q 171 317 118 289 q 291 361 224 346 q 429 382 358 376 l 429 413 q 425 479 429 446 q 406 540 421 513 q 360 576 389 568 q 304 583 332 583 q 246 581 267 583 q 215 574 225 579 q 202 558 204 568 q 200 529 200 547 q 205 505 200 510 q 210 493 210 500 q 201 470 210 482 q 178 449 192 458 q 149 435 165 440 q 119 429 133 429 q 81 448 88 429 q 74 481 74 467 q 106 546 74 514 q 185 604 139 578 q 282 647 232 631 q 367 663 332 663 q 462 644 425 663 q 518 597 499 626 q 544 531 538 568 q 551 457 551 494 l 551 60 q 583 66 567 60 q 617 72 600 72 q 637 67 632 72 q 642 51 642 61 q 631 34 642 46 q 599 10 619 22 q 553 -12 579 -3 q 494 -22 526 -22 q 449 -11 468 -22 q 429 26 429 0 l 429 79 q 350 6 393 35 q 246 -22 307 -22 q 158 -7 194 -22 q 98 33 121 8 q 65 85 75 57 q 54 140 54 114 m 185 186 q 213 93 185 131 q 315 56 240 56 q 374 76 343 56 q 429 131 406 97 l 429 318 q 347 310 390 317 q 268 290 304 304 q 208 251 232 276 q 185 186 185 226 m 276 763 q 242 776 258 763 q 226 794 226 789 l 226 796 l 383 1067 q 397 1074 389 1074 q 424 1063 410 1074 q 451 1038 439 1053 q 472 1010 464 1024 q 481 989 481 996 l 481 986 q 444 928 469 961 q 389 863 418 894 q 333 804 360 831 q 292 767 306 778 q 276 763 286 763 z "},"":{"ha":661,"x_min":54,"x_max":642,"o":"m 54 140 q 86 246 54 203 q 171 317 118 289 q 291 361 224 346 q 429 382 358 376 l 429 413 q 425 479 429 446 q 406 540 421 513 q 360 576 389 568 q 304 583 332 583 q 246 581 267 583 q 215 574 225 579 q 202 558 204 568 q 200 529 200 547 q 205 505 200 510 q 210 493 210 500 q 201 470 210 482 q 178 449 192 458 q 149 435 165 440 q 119 429 133 429 q 81 448 88 429 q 74 481 74 467 q 106 546 74 514 q 185 604 139 578 q 282 647 232 631 q 367 663 332 663 q 462 644 425 663 q 518 597 499 626 q 544 531 538 568 q 551 457 551 494 l 551 60 q 583 66 567 60 q 617 72 600 72 q 637 67 632 72 q 642 51 642 61 q 631 34 642 46 q 599 10 619 22 q 553 -12 579 -3 q 494 -22 526 -22 q 449 -11 468 -22 q 429 26 429 0 l 429 79 q 350 6 393 35 q 246 -22 307 -22 q 158 -7 194 -22 q 98 33 121 8 q 65 85 75 57 q 54 140 54 114 m 185 186 q 213 93 185 131 q 315 56 240 56 q 374 76 343 56 q 429 131 406 97 l 429 318 q 347 310 390 317 q 268 290 304 304 q 208 251 232 276 q 185 186 185 226 m 157 779 q 122 792 138 779 q 107 810 107 804 l 264 1054 q 289 1062 267 1060 q 338 1064 311 1064 q 384 1062 363 1064 q 410 1054 406 1060 l 568 810 q 553 792 568 804 q 521 779 538 779 q 491 798 513 779 q 442 846 469 817 q 388 910 415 875 q 339 978 360 946 q 288 911 317 946 q 233 847 260 876 q 185 799 206 818 q 157 779 164 779 z "},"":{"ha":661,"x_min":54,"x_max":642,"o":"m 54 140 q 86 246 54 203 q 171 317 118 289 q 291 361 224 346 q 429 382 358 376 l 429 413 q 425 479 429 446 q 406 540 421 513 q 360 576 389 568 q 304 583 332 583 q 246 581 267 583 q 215 574 225 579 q 202 558 204 568 q 200 529 200 547 q 205 505 200 510 q 210 493 210 500 q 201 470 210 482 q 178 449 192 458 q 149 435 165 440 q 119 429 133 429 q 81 448 88 429 q 74 481 74 467 q 106 546 74 514 q 185 604 139 578 q 282 647 232 631 q 367 663 332 663 q 462 644 425 663 q 518 597 499 626 q 544 531 538 568 q 551 457 551 494 l 551 60 q 583 66 567 60 q 617 72 600 72 q 637 67 632 72 q 642 51 642 61 q 631 34 642 46 q 599 10 619 22 q 553 -12 579 -3 q 494 -22 526 -22 q 449 -11 468 -22 q 429 26 429 0 l 429 79 q 350 6 393 35 q 246 -22 307 -22 q 158 -7 194 -22 q 98 33 121 8 q 65 85 75 57 q 54 140 54 114 m 185 186 q 213 93 185 131 q 315 56 240 56 q 374 76 343 56 q 429 131 406 97 l 429 318 q 347 310 390 317 q 268 290 304 304 q 208 251 232 276 q 185 186 185 226 m 149 831 q 117 837 136 831 q 97 856 97 843 q 101 867 97 861 q 125 911 113 888 q 156 956 138 935 q 199 990 174 976 q 263 1004 225 1004 q 315 987 296 1004 q 349 949 333 969 q 383 912 365 929 q 429 894 400 894 q 458 905 444 894 q 482 930 471 915 q 503 960 493 944 q 525 988 514 976 q 533 989 525 989 q 565 983 546 989 q 585 963 585 976 q 582 954 585 960 q 559 908 572 933 q 527 858 546 882 q 483 819 508 835 q 421 803 457 803 q 354 819 378 803 q 315 857 331 836 q 283 894 299 878 q 240 911 268 911 q 213 903 224 911 q 192 883 201 894 q 176 858 183 871 q 158 833 168 844 q 149 831 156 831 z "},"":{"ha":661,"x_min":54,"x_max":642,"o":"m 54 140 q 86 246 54 203 q 171 317 118 289 q 291 361 224 346 q 429 382 358 376 l 429 413 q 425 479 429 446 q 406 540 421 513 q 360 576 389 568 q 304 583 332 583 q 246 581 267 583 q 215 574 225 579 q 202 558 204 568 q 200 529 200 547 q 205 505 200 510 q 210 493 210 500 q 201 470 210 482 q 178 449 192 458 q 149 435 165 440 q 119 429 133 429 q 81 448 88 429 q 74 481 74 467 q 106 546 74 514 q 185 604 139 578 q 282 647 232 631 q 367 663 332 663 q 462 644 425 663 q 518 597 499 626 q 544 531 538 568 q 551 457 551 494 l 551 60 q 583 66 567 60 q 617 72 600 72 q 637 67 632 72 q 642 51 642 61 q 631 34 642 46 q 599 10 619 22 q 553 -12 579 -3 q 494 -22 526 -22 q 449 -11 468 -22 q 429 26 429 0 l 429 79 q 350 6 393 35 q 246 -22 307 -22 q 158 -7 194 -22 q 98 33 121 8 q 65 85 75 57 q 54 140 54 114 m 185 186 q 213 93 185 131 q 315 56 240 56 q 374 76 343 56 q 429 131 406 97 l 429 318 q 347 310 390 317 q 268 290 304 304 q 208 251 232 276 q 185 186 185 226 m 503 769 q 451 777 472 769 q 419 794 431 785 q 403 814 408 804 q 399 828 399 824 q 406 854 399 839 q 424 883 413 869 q 449 905 435 896 q 476 914 463 914 q 561 892 538 914 q 585 850 585 869 q 577 824 585 838 q 558 798 569 810 q 531 778 546 786 q 503 769 517 769 m 199 769 q 147 777 168 769 q 115 794 126 785 q 99 814 104 804 q 94 828 94 824 q 101 854 94 839 q 119 883 108 869 q 144 905 131 896 q 172 914 158 914 q 257 892 233 914 q 281 850 281 869 q 273 824 281 838 q 253 798 265 810 q 227 778 242 786 q 199 769 213 769 z "},"":{"ha":661,"x_min":54,"x_max":642,"o":"m 54 140 q 86 246 54 203 q 171 317 118 289 q 291 361 224 346 q 429 382 358 376 l 429 413 q 425 479 429 446 q 406 540 421 513 q 360 576 389 568 q 304 583 332 583 q 246 581 267 583 q 215 574 225 579 q 202 558 204 568 q 200 529 200 547 q 205 505 200 510 q 210 493 210 500 q 201 470 210 482 q 178 449 192 458 q 149 435 165 440 q 119 429 133 429 q 81 448 88 429 q 74 481 74 467 q 106 546 74 514 q 185 604 139 578 q 282 647 232 631 q 367 663 332 663 q 462 644 425 663 q 518 597 499 626 q 544 531 538 568 q 551 457 551 494 l 551 60 q 583 66 567 60 q 617 72 600 72 q 637 67 632 72 q 642 51 642 61 q 631 34 642 46 q 599 10 619 22 q 553 -12 579 -3 q 494 -22 526 -22 q 449 -11 468 -22 q 429 26 429 0 l 429 79 q 350 6 393 35 q 246 -22 307 -22 q 158 -7 194 -22 q 98 33 121 8 q 65 85 75 57 q 54 140 54 114 m 185 186 q 213 93 185 131 q 315 56 240 56 q 374 76 343 56 q 429 131 406 97 l 429 318 q 347 310 390 317 q 268 290 304 304 q 208 251 232 276 q 185 186 185 226 m 325 775 q 260 783 294 775 q 199 811 226 792 q 153 863 171 831 q 135 944 135 896 q 195 1076 135 1024 q 356 1128 256 1128 q 417 1120 385 1128 q 477 1094 450 1113 q 522 1043 504 1075 q 540 964 540 1011 q 483 828 540 882 q 325 775 425 775 m 332 846 l 340 846 q 414 878 385 850 q 443 954 443 907 q 433 1006 443 986 q 409 1038 424 1026 q 377 1055 394 1050 q 346 1060 360 1060 q 264 1028 297 1060 q 231 951 231 997 q 240 899 231 919 q 265 866 250 878 q 299 850 281 854 q 332 846 317 846 z "},"":{"ha":1018,"x_min":54,"x_max":961,"o":"m 54 140 q 87 247 54 203 q 174 319 119 290 q 297 363 228 347 q 436 382 365 378 l 436 413 q 433 479 436 446 q 413 540 429 513 q 365 576 396 568 q 304 583 333 583 q 246 581 267 583 q 215 574 225 579 q 202 558 204 568 q 200 529 200 547 q 205 505 200 510 q 210 493 210 500 q 201 470 210 482 q 178 449 192 458 q 149 435 165 440 q 119 429 133 429 q 81 448 88 429 q 74 481 74 467 q 108 553 74 519 q 189 610 142 586 q 286 649 236 635 q 367 663 336 663 q 472 640 435 663 q 529 583 510 618 q 609 641 563 619 q 718 663 656 663 q 844 631 797 663 q 917 551 892 600 q 951 445 943 503 q 961 333 960 388 q 943 310 961 313 q 906 307 925 307 l 553 307 q 563 215 554 260 q 590 136 571 171 q 640 80 608 101 q 719 58 672 58 q 803 66 771 58 q 856 83 835 74 q 891 99 876 92 q 922 107 906 107 q 942 92 942 107 q 921 53 942 74 q 865 16 900 33 q 783 -12 829 -1 q 685 -22 736 -22 q 539 15 592 -22 q 463 114 486 53 q 369 18 419 58 q 246 -22 319 -22 q 158 -7 194 -22 q 98 33 121 8 q 65 85 75 57 q 54 140 54 114 m 824 379 q 817 460 822 422 q 796 526 811 499 q 751 571 781 554 q 675 588 722 588 q 617 571 640 588 q 581 525 594 554 q 560 456 567 496 q 553 369 554 417 l 824 379 m 185 186 q 213 93 185 131 q 315 56 240 56 q 379 76 346 56 q 436 132 413 97 l 436 318 q 351 310 396 317 q 270 290 307 304 q 209 251 233 276 q 185 186 185 226 z "},"":{"ha":582,"x_min":44,"x_max":550,"o":"m 271 -17 q 170 22 213 -7 q 100 90 128 50 q 58 178 72 129 q 44 281 44 228 q 67 437 44 367 q 132 557 90 507 q 233 635 174 607 q 368 663 293 663 q 424 657 393 663 q 480 637 454 651 q 523 599 506 622 q 540 538 540 575 q 531 499 540 515 q 508 473 522 483 q 478 456 494 463 q 444 447 461 450 q 424 455 432 447 q 413 488 415 463 q 386 572 406 551 q 325 592 367 592 q 254 572 283 592 q 207 516 225 551 q 181 434 189 481 q 172 333 172 388 q 183 234 172 283 q 218 146 194 185 q 279 83 242 107 q 369 58 317 58 q 415 67 397 58 q 447 87 432 76 q 477 106 461 97 q 518 114 493 114 q 543 108 536 114 q 550 94 550 101 q 531 58 550 76 q 485 23 513 39 q 426 -5 458 7 q 369 -19 394 -17 l 369 -89 q 419 -94 393 -89 q 468 -112 446 -100 q 505 -146 490 -125 q 519 -196 519 -167 q 502 -269 519 -237 q 456 -323 485 -301 q 388 -356 426 -344 q 308 -367 350 -367 q 279 -365 299 -367 q 240 -358 260 -362 q 205 -347 219 -354 q 190 -328 190 -339 q 198 -299 190 -314 q 211 -285 206 -285 q 238 -289 222 -285 q 265 -293 254 -293 q 310 -290 288 -293 q 349 -276 332 -286 q 377 -249 367 -267 q 388 -203 388 -232 q 354 -151 388 -165 q 278 -137 321 -137 q 265 -137 271 -137 q 251 -139 258 -137 l 271 -17 z "},"":{"ha":668,"x_min":51,"x_max":611,"o":"m 51 281 q 74 431 51 361 q 137 551 96 500 q 237 633 178 603 q 368 663 296 663 q 494 631 447 663 q 567 551 542 600 q 601 445 593 503 q 611 333 610 388 q 593 310 611 313 q 556 307 575 307 l 179 307 q 194 215 182 260 q 228 136 206 171 q 287 80 251 101 q 369 58 322 58 q 453 66 421 58 q 506 83 485 74 q 541 99 526 92 q 572 107 556 107 q 592 92 592 107 q 571 53 592 74 q 515 16 550 33 q 433 -12 479 -1 q 335 -22 386 -22 q 208 3 261 -22 q 119 69 154 28 q 68 166 85 111 q 51 281 51 221 m 474 379 q 467 460 472 422 q 446 526 461 499 q 401 571 431 554 q 325 588 372 588 q 220 526 256 588 q 179 369 185 464 l 474 379 m 411 767 q 370 804 397 778 q 314 863 343 831 q 259 928 285 894 q 222 986 233 961 l 222 989 q 231 1010 222 996 q 253 1038 240 1024 q 280 1063 265 1053 q 306 1074 294 1074 q 319 1067 317 1074 l 476 796 l 476 794 q 462 775 476 788 q 428 763 447 763 q 411 767 419 763 z "},"":{"ha":668,"x_min":51,"x_max":611,"o":"m 51 281 q 74 431 51 361 q 137 551 96 500 q 237 633 178 603 q 368 663 296 663 q 494 631 447 663 q 567 551 542 600 q 601 445 593 503 q 611 333 610 388 q 593 310 611 313 q 556 307 575 307 l 179 307 q 194 215 182 260 q 228 136 206 171 q 287 80 251 101 q 369 58 322 58 q 453 66 421 58 q 506 83 485 74 q 541 99 526 92 q 572 107 556 107 q 592 92 592 107 q 571 53 592 74 q 515 16 550 33 q 433 -12 479 -1 q 335 -22 386 -22 q 208 3 261 -22 q 119 69 154 28 q 68 166 85 111 q 51 281 51 221 m 474 379 q 467 460 472 422 q 446 526 461 499 q 401 571 431 554 q 325 588 372 588 q 220 526 256 588 q 179 369 185 464 l 474 379 m 300 763 q 266 776 282 763 q 250 794 250 789 l 250 796 l 407 1067 q 421 1074 413 1074 q 448 1063 433 1074 q 475 1038 463 1053 q 496 1010 488 1024 q 504 989 504 996 l 504 986 q 467 928 493 961 q 413 863 442 894 q 356 804 383 831 q 315 767 329 778 q 300 763 310 763 z "},"":{"ha":668,"x_min":51,"x_max":611,"o":"m 51 281 q 74 431 51 361 q 137 551 96 500 q 237 633 178 603 q 368 663 296 663 q 494 631 447 663 q 567 551 542 600 q 601 445 593 503 q 611 333 610 388 q 593 310 611 313 q 556 307 575 307 l 179 307 q 194 215 182 260 q 228 136 206 171 q 287 80 251 101 q 369 58 322 58 q 453 66 421 58 q 506 83 485 74 q 541 99 526 92 q 572 107 556 107 q 592 92 592 107 q 571 53 592 74 q 515 16 550 33 q 433 -12 479 -1 q 335 -22 386 -22 q 208 3 261 -22 q 119 69 154 28 q 68 166 85 111 q 51 281 51 221 m 474 379 q 467 460 472 422 q 446 526 461 499 q 401 571 431 554 q 325 588 372 588 q 220 526 256 588 q 179 369 185 464 l 474 379 m 181 779 q 146 792 161 779 q 131 810 131 804 l 288 1054 q 313 1062 290 1060 q 361 1064 335 1064 q 408 1062 386 1064 q 433 1054 429 1060 l 592 810 q 576 792 592 804 q 544 779 561 779 q 515 798 536 779 q 466 846 493 817 q 411 910 439 875 q 363 978 383 946 q 312 911 340 946 q 256 847 283 876 q 208 799 229 818 q 181 779 188 779 z "},"":{"ha":668,"x_min":51,"x_max":611,"o":"m 51 281 q 74 431 51 361 q 137 551 96 500 q 237 633 178 603 q 368 663 296 663 q 494 631 447 663 q 567 551 542 600 q 601 445 593 503 q 611 333 610 388 q 593 310 611 313 q 556 307 575 307 l 179 307 q 194 215 182 260 q 228 136 206 171 q 287 80 251 101 q 369 58 322 58 q 453 66 421 58 q 506 83 485 74 q 541 99 526 92 q 572 107 556 107 q 592 92 592 107 q 571 53 592 74 q 515 16 550 33 q 433 -12 479 -1 q 335 -22 386 -22 q 208 3 261 -22 q 119 69 154 28 q 68 166 85 111 q 51 281 51 221 m 474 379 q 467 460 472 422 q 446 526 461 499 q 401 571 431 554 q 325 588 372 588 q 220 526 256 588 q 179 369 185 464 l 474 379 m 526 769 q 475 777 496 769 q 443 794 454 785 q 427 814 432 804 q 422 828 422 824 q 429 854 422 839 q 447 883 436 869 q 472 905 458 896 q 500 914 486 914 q 585 892 561 914 q 608 850 608 869 q 601 824 608 838 q 581 798 593 810 q 555 778 569 786 q 526 769 540 769 m 222 769 q 171 777 192 769 q 139 794 150 785 q 123 814 128 804 q 118 828 118 824 q 125 854 118 839 q 143 883 132 869 q 168 905 154 896 q 196 914 182 914 q 281 892 257 914 q 304 850 304 869 q 297 824 304 838 q 277 798 289 810 q 251 778 265 786 q 222 769 236 769 z "},"":{"ha":389,"x_min":60,"x_max":364,"o":"m 60 28 q 71 42 60 35 q 97 55 82 49 q 127 66 113 61 q 150 75 142 71 l 150 528 q 120 535 136 531 q 91 546 104 540 q 69 557 78 551 q 60 568 60 563 q 76 597 60 582 q 118 622 93 611 q 171 641 143 633 q 221 649 199 649 q 249 646 233 649 q 267 635 264 643 l 267 103 q 282 74 267 82 q 315 63 297 67 q 349 53 333 58 q 364 31 364 47 q 317 0 364 0 l 86 0 q 65 10 69 0 q 60 28 60 19 m 250 767 q 209 804 236 778 q 153 863 182 831 q 98 928 124 894 q 61 986 72 961 l 61 989 q 70 1010 61 996 q 92 1038 79 1024 q 119 1063 104 1053 q 144 1074 133 1074 q 158 1067 156 1074 l 315 796 l 315 794 q 301 775 315 788 q 267 763 286 763 q 250 767 258 763 z "},"":{"ha":389,"x_min":60,"x_max":364,"o":"m 60 28 q 71 42 60 35 q 97 55 82 49 q 127 66 113 61 q 150 75 142 71 l 150 528 q 120 535 136 531 q 91 546 104 540 q 69 557 78 551 q 60 568 60 563 q 76 597 60 582 q 118 622 93 611 q 171 641 143 633 q 221 649 199 649 q 249 646 233 649 q 267 635 264 643 l 267 103 q 282 74 267 82 q 315 63 297 67 q 349 53 333 58 q 364 31 364 47 q 317 0 364 0 l 86 0 q 65 10 69 0 q 60 28 60 19 m 139 763 q 105 776 121 763 q 89 794 89 789 l 89 796 l 246 1067 q 260 1074 251 1074 q 287 1063 272 1074 q 314 1038 301 1053 q 335 1010 326 1024 q 343 989 343 996 l 343 986 q 306 928 332 961 q 251 863 281 894 q 195 804 222 831 q 154 767 168 778 q 139 763 149 763 z "},"":{"ha":389,"x_min":-31,"x_max":431,"o":"m 60 28 q 71 42 60 35 q 97 55 82 49 q 127 66 113 61 q 150 75 142 71 l 150 528 q 120 535 136 531 q 91 546 104 540 q 69 557 78 551 q 60 568 60 563 q 76 597 60 582 q 118 622 93 611 q 171 641 143 633 q 221 649 199 649 q 249 646 233 649 q 267 635 264 643 l 267 103 q 282 74 267 82 q 315 63 297 67 q 349 53 333 58 q 364 31 364 47 q 317 0 364 0 l 86 0 q 65 10 69 0 q 60 28 60 19 m 19 779 q -15 792 0 779 q -31 810 -31 804 l 126 1054 q 151 1062 129 1060 q 200 1064 174 1064 q 247 1062 225 1064 q 272 1054 268 1060 l 431 810 q 415 792 431 804 q 383 779 400 779 q 353 798 375 779 q 305 846 332 817 q 250 910 278 875 q 201 978 222 946 q 151 911 179 946 q 95 847 122 876 q 47 799 68 818 q 19 779 26 779 z "},"":{"ha":389,"x_min":-43,"x_max":447,"o":"m 60 28 q 71 42 60 35 q 97 55 82 49 q 127 66 113 61 q 150 75 142 71 l 150 528 q 120 535 136 531 q 91 546 104 540 q 69 557 78 551 q 60 568 60 563 q 76 597 60 582 q 118 622 93 611 q 171 641 143 633 q 221 649 199 649 q 249 646 233 649 q 267 635 264 643 l 267 103 q 282 74 267 82 q 315 63 297 67 q 349 53 333 58 q 364 31 364 47 q 317 0 364 0 l 86 0 q 65 10 69 0 q 60 28 60 19 m 365 769 q 314 777 335 769 q 282 794 293 785 q 266 814 271 804 q 261 828 261 824 q 268 854 261 839 q 286 883 275 869 q 311 905 297 896 q 339 914 325 914 q 424 892 400 914 q 447 850 447 869 q 440 824 447 838 q 420 798 432 810 q 394 778 408 786 q 365 769 379 769 m 61 769 q 10 777 31 769 q -22 794 -11 785 q -38 814 -33 804 q -43 828 -43 824 q -36 854 -43 839 q -18 883 -29 869 q 7 905 -7 896 q 35 914 21 914 q 119 892 96 914 q 143 850 143 869 q 135 824 143 838 q 116 798 128 810 q 90 778 104 786 q 61 769 75 769 z "},"":{"ha":688,"x_min":51,"x_max":635,"o":"m 300 -22 q 192 3 239 -22 q 115 72 146 28 q 67 177 83 117 q 51 308 51 238 q 70 433 51 371 q 130 547 89 496 q 233 631 171 599 q 383 663 296 663 q 472 646 425 663 q 395 790 440 722 q 289 911 350 858 q 261 877 275 894 q 233 845 247 860 q 201 822 218 831 q 164 813 185 813 q 149 814 154 813 q 143 822 143 815 q 153 845 143 831 q 179 878 164 860 q 211 915 194 896 q 242 950 228 935 q 90 1028 171 1000 q 68 1036 74 1031 q 63 1049 63 1042 q 82 1076 63 1064 q 119 1088 101 1088 q 293 1007 219 1050 q 319 1038 306 1021 q 347 1072 332 1056 q 379 1098 363 1088 q 415 1108 396 1108 q 432 1093 432 1108 q 423 1067 432 1082 q 400 1035 414 1051 q 372 1002 386 1018 q 344 972 357 986 q 479 840 422 917 q 586 656 536 764 q 610 587 601 625 q 625 510 619 549 q 633 434 631 471 q 635 367 635 397 q 615 220 635 290 q 555 96 596 150 q 451 10 514 42 q 300 -22 388 -22 m 364 57 q 449 80 417 57 q 497 140 481 103 q 519 226 514 178 q 525 322 525 274 q 519 430 525 385 q 500 524 514 475 q 424 567 468 550 q 332 585 381 585 q 256 567 288 585 q 203 518 224 549 q 172 446 182 488 q 161 356 161 404 q 174 256 161 308 q 213 158 188 203 q 276 85 239 114 q 364 57 314 57 z "},"":{"ha":769,"x_min":47,"x_max":746,"o":"m 60 28 q 69 41 60 35 q 90 53 78 47 q 115 63 103 58 q 133 71 128 68 l 133 528 q 76 546 106 533 q 47 568 47 558 q 64 597 47 582 q 105 622 81 611 q 157 641 129 633 q 206 649 185 649 q 239 635 236 649 l 239 564 q 344 635 288 607 q 471 663 400 663 q 556 649 519 663 q 621 600 593 636 q 656 528 649 564 q 664 457 664 493 l 664 94 q 677 72 664 78 q 706 61 690 65 q 733 51 721 57 q 746 31 746 46 q 735 12 746 24 q 699 0 724 0 l 497 0 q 476 10 481 0 q 471 28 471 19 q 480 41 471 35 q 501 53 489 47 q 524 63 513 58 q 542 71 536 68 l 542 404 q 506 542 542 501 q 417 582 471 582 q 330 566 375 582 q 253 521 285 550 l 253 103 q 267 74 253 82 q 300 63 282 67 q 333 53 318 58 q 347 31 347 47 q 300 0 347 0 l 86 0 q 65 10 69 0 q 60 28 60 19 m 215 831 q 183 837 203 831 q 164 856 164 843 q 168 867 164 861 q 192 911 179 888 q 222 956 204 935 q 266 990 240 976 q 329 1004 292 1004 q 381 987 363 1004 q 416 949 400 969 q 449 912 432 929 q 496 894 467 894 q 524 905 511 894 q 549 930 538 915 q 570 960 560 944 q 592 988 581 976 q 600 989 592 989 q 632 983 613 989 q 651 963 651 976 q 649 954 651 960 q 626 908 639 933 q 594 858 613 882 q 549 819 575 835 q 488 803 524 803 q 421 819 444 803 q 381 857 397 836 q 350 894 365 878 q 307 911 335 911 q 279 903 290 911 q 259 883 268 894 q 242 858 250 871 q 225 833 235 844 q 215 831 222 831 z "},"":{"ha":733,"x_min":61,"x_max":672,"o":"m 61 292 q 82 429 61 363 q 144 548 103 496 q 249 631 186 600 q 393 663 311 663 q 522 633 468 663 q 608 558 575 604 q 657 453 642 511 q 672 339 672 396 q 667 267 672 306 q 649 192 661 229 q 616 120 636 154 q 565 60 596 86 q 459 -1 521 19 q 335 -22 397 -22 q 228 -3 278 -22 q 141 56 178 17 q 83 154 104 96 q 61 292 61 213 m 188 339 q 198 237 188 289 q 232 142 208 185 q 297 72 256 100 q 397 44 338 44 q 467 65 439 44 q 514 121 496 86 q 540 200 532 156 q 547 292 547 244 q 537 397 547 343 q 502 495 526 451 q 438 567 478 539 q 339 596 399 596 q 268 574 297 596 q 222 515 239 551 q 196 432 204 478 q 188 339 188 386 m 417 767 q 376 804 403 778 q 319 863 349 831 q 265 928 290 894 q 228 986 239 961 l 228 989 q 237 1010 228 996 q 258 1038 246 1024 q 285 1063 271 1053 q 311 1074 300 1074 q 325 1067 322 1074 l 482 796 l 482 794 q 467 775 482 788 q 433 763 453 763 q 417 767 425 763 z "},"":{"ha":733,"x_min":61,"x_max":672,"o":"m 61 292 q 82 429 61 363 q 144 548 103 496 q 249 631 186 600 q 393 663 311 663 q 522 633 468 663 q 608 558 575 604 q 657 453 642 511 q 672 339 672 396 q 667 267 672 306 q 649 192 661 229 q 616 120 636 154 q 565 60 596 86 q 459 -1 521 19 q 335 -22 397 -22 q 228 -3 278 -22 q 141 56 178 17 q 83 154 104 96 q 61 292 61 213 m 188 339 q 198 237 188 289 q 232 142 208 185 q 297 72 256 100 q 397 44 338 44 q 467 65 439 44 q 514 121 496 86 q 540 200 532 156 q 547 292 547 244 q 537 397 547 343 q 502 495 526 451 q 438 567 478 539 q 339 596 399 596 q 268 574 297 596 q 222 515 239 551 q 196 432 204 478 q 188 339 188 386 m 306 763 q 272 776 288 763 q 256 794 256 789 l 256 796 l 413 1067 q 426 1074 418 1074 q 453 1063 439 1074 q 481 1038 468 1053 q 501 1010 493 1024 q 510 989 510 996 l 510 986 q 473 928 499 961 q 418 863 447 894 q 362 804 389 831 q 321 767 335 778 q 306 763 315 763 z "},"":{"ha":733,"x_min":61,"x_max":672,"o":"m 61 292 q 82 429 61 363 q 144 548 103 496 q 249 631 186 600 q 393 663 311 663 q 522 633 468 663 q 608 558 575 604 q 657 453 642 511 q 672 339 672 396 q 667 267 672 306 q 649 192 661 229 q 616 120 636 154 q 565 60 596 86 q 459 -1 521 19 q 335 -22 397 -22 q 228 -3 278 -22 q 141 56 178 17 q 83 154 104 96 q 61 292 61 213 m 188 339 q 198 237 188 289 q 232 142 208 185 q 297 72 256 100 q 397 44 338 44 q 467 65 439 44 q 514 121 496 86 q 540 200 532 156 q 547 292 547 244 q 537 397 547 343 q 502 495 526 451 q 438 567 478 539 q 339 596 399 596 q 268 574 297 596 q 222 515 239 551 q 196 432 204 478 q 188 339 188 386 m 186 779 q 151 792 167 779 q 136 810 136 804 l 293 1054 q 318 1062 296 1060 q 367 1064 340 1064 q 413 1062 392 1064 q 439 1054 435 1060 l 597 810 q 582 792 597 804 q 550 779 567 779 q 520 798 542 779 q 472 846 499 817 q 417 910 444 875 q 368 978 389 946 q 317 911 346 946 q 262 847 289 876 q 214 799 235 818 q 186 779 193 779 z "},"":{"ha":733,"x_min":61,"x_max":672,"o":"m 61 292 q 82 429 61 363 q 144 548 103 496 q 249 631 186 600 q 393 663 311 663 q 522 633 468 663 q 608 558 575 604 q 657 453 642 511 q 672 339 672 396 q 667 267 672 306 q 649 192 661 229 q 616 120 636 154 q 565 60 596 86 q 459 -1 521 19 q 335 -22 397 -22 q 228 -3 278 -22 q 141 56 178 17 q 83 154 104 96 q 61 292 61 213 m 188 339 q 198 237 188 289 q 232 142 208 185 q 297 72 256 100 q 397 44 338 44 q 467 65 439 44 q 514 121 496 86 q 540 200 532 156 q 547 292 547 244 q 537 397 547 343 q 502 495 526 451 q 438 567 478 539 q 339 596 399 596 q 268 574 297 596 q 222 515 239 551 q 196 432 204 478 q 188 339 188 386 m 178 831 q 146 837 165 831 q 126 856 126 843 q 131 867 126 861 q 154 911 142 888 q 185 956 167 935 q 228 990 203 976 q 292 1004 254 1004 q 344 987 325 1004 q 378 949 363 969 q 412 912 394 929 q 458 894 429 894 q 487 905 474 894 q 511 930 500 915 q 533 960 522 944 q 554 988 543 976 q 563 989 554 989 q 594 983 575 989 q 614 963 614 976 q 611 954 614 960 q 588 908 601 933 q 556 858 575 882 q 512 819 538 835 q 450 803 486 803 q 383 819 407 803 q 344 857 360 836 q 313 894 328 878 q 269 911 297 911 q 242 903 253 911 q 222 883 231 894 q 205 858 213 871 q 188 833 197 844 q 178 831 185 831 z "},"":{"ha":733,"x_min":61,"x_max":672,"o":"m 61 292 q 82 429 61 363 q 144 548 103 496 q 249 631 186 600 q 393 663 311 663 q 522 633 468 663 q 608 558 575 604 q 657 453 642 511 q 672 339 672 396 q 667 267 672 306 q 649 192 661 229 q 616 120 636 154 q 565 60 596 86 q 459 -1 521 19 q 335 -22 397 -22 q 228 -3 278 -22 q 141 56 178 17 q 83 154 104 96 q 61 292 61 213 m 188 339 q 198 237 188 289 q 232 142 208 185 q 297 72 256 100 q 397 44 338 44 q 467 65 439 44 q 514 121 496 86 q 540 200 532 156 q 547 292 547 244 q 537 397 547 343 q 502 495 526 451 q 438 567 478 539 q 339 596 399 596 q 268 574 297 596 q 222 515 239 551 q 196 432 204 478 q 188 339 188 386 m 532 769 q 481 777 501 769 q 449 794 460 785 q 433 814 438 804 q 428 828 428 824 q 435 854 428 839 q 453 883 442 869 q 478 905 464 896 q 506 914 492 914 q 590 892 567 914 q 614 850 614 869 q 606 824 614 838 q 587 798 599 810 q 560 778 575 786 q 532 769 546 769 m 228 769 q 176 777 197 769 q 144 794 156 785 q 128 814 133 804 q 124 828 124 824 q 131 854 124 839 q 149 883 138 869 q 174 905 160 896 q 201 914 188 914 q 286 892 263 914 q 310 850 310 869 q 302 824 310 838 q 283 798 294 810 q 256 778 271 786 q 228 769 242 769 z "},"":{"ha":808,"x_min":96,"x_max":710,"o":"m 397 626 q 345 634 365 626 q 313 651 325 642 q 297 671 301 661 q 292 685 292 681 q 298 710 292 696 q 315 738 304 725 q 340 760 326 751 q 369 769 354 769 q 452 748 431 769 q 474 707 474 726 q 467 681 474 694 q 449 655 460 667 q 424 635 438 643 q 397 626 411 626 m 122 444 q 96 469 96 454 q 103 486 96 478 q 122 501 111 494 q 143 513 132 508 q 160 519 154 518 l 682 519 q 710 504 710 518 q 701 486 710 496 q 678 467 692 476 q 649 452 664 458 q 622 444 633 446 l 122 444 m 306 254 q 312 280 306 265 q 329 308 318 294 q 354 330 340 321 q 383 339 368 339 q 466 317 444 339 q 488 276 488 296 q 481 250 488 264 q 463 224 474 236 q 438 204 451 213 q 411 196 425 196 q 359 203 379 196 q 327 221 339 211 q 310 240 315 231 q 306 254 306 250 z "},"":{"ha":733,"x_min":61,"x_max":672,"o":"m 138 -85 q 165 -34 150 -58 q 192 14 179 -10 q 97 119 132 50 q 61 292 61 188 q 82 429 61 363 q 144 548 103 496 q 249 631 186 600 q 393 663 311 663 q 438 659 417 663 q 479 650 460 656 l 518 732 q 549 763 529 749 q 589 776 568 776 q 613 757 613 776 q 607 733 613 746 l 546 618 q 603 564 579 596 q 642 495 626 532 q 665 418 658 458 q 672 339 672 378 q 667 267 672 306 q 649 192 661 229 q 616 120 636 154 q 565 60 596 86 q 459 -1 521 19 q 335 -22 397 -22 q 263 -14 299 -22 l 215 -97 q 189 -122 203 -112 q 157 -132 175 -132 q 131 -110 131 -132 q 138 -85 131 -103 m 442 564 q 396 588 421 579 q 339 596 371 596 q 268 574 297 596 q 222 515 239 551 q 196 432 204 478 q 188 339 188 386 q 201 220 188 281 q 249 115 215 160 l 442 564 m 297 71 q 342 51 318 58 q 397 44 367 44 q 467 65 439 44 q 514 121 496 86 q 540 200 532 156 q 547 292 547 244 q 535 409 547 350 q 490 514 522 468 l 297 71 z "},"":{"ha":697,"x_min":22,"x_max":667,"o":"m 124 40 q 93 113 99 78 q 88 183 88 149 l 85 563 q 40 580 58 567 q 22 603 22 593 q 61 634 22 624 q 174 644 100 644 q 197 642 189 644 q 207 631 204 640 l 207 250 q 215 142 207 182 q 238 83 224 103 q 274 59 253 64 q 322 54 296 54 q 401 70 361 54 q 475 113 442 86 l 475 561 q 415 576 443 565 q 388 601 388 586 q 432 633 388 622 q 561 643 476 643 q 581 640 572 643 q 592 626 589 638 l 592 60 q 609 65 604 60 q 638 69 614 69 q 667 49 667 69 q 658 31 667 43 q 634 8 650 19 q 594 -13 618 -4 q 538 -22 569 -22 q 494 -11 513 -22 q 475 26 475 0 l 475 61 q 388 1 433 25 q 278 -22 342 -22 q 192 -9 236 -22 q 124 40 147 4 m 378 767 q 337 804 364 778 q 281 863 310 831 q 226 928 251 894 q 189 986 200 961 l 189 989 q 198 1010 189 996 q 219 1038 207 1024 q 247 1063 232 1053 q 272 1074 261 1074 q 286 1067 283 1074 l 443 796 l 443 794 q 428 775 443 788 q 394 763 414 763 q 378 767 386 763 z "},"":{"ha":697,"x_min":22,"x_max":667,"o":"m 124 40 q 93 113 99 78 q 88 183 88 149 l 85 563 q 40 580 58 567 q 22 603 22 593 q 61 634 22 624 q 174 644 100 644 q 197 642 189 644 q 207 631 204 640 l 207 250 q 215 142 207 182 q 238 83 224 103 q 274 59 253 64 q 322 54 296 54 q 401 70 361 54 q 475 113 442 86 l 475 561 q 415 576 443 565 q 388 601 388 586 q 432 633 388 622 q 561 643 476 643 q 581 640 572 643 q 592 626 589 638 l 592 60 q 609 65 604 60 q 638 69 614 69 q 667 49 667 69 q 658 31 667 43 q 634 8 650 19 q 594 -13 618 -4 q 538 -22 569 -22 q 494 -11 513 -22 q 475 26 475 0 l 475 61 q 388 1 433 25 q 278 -22 342 -22 q 192 -9 236 -22 q 124 40 147 4 m 267 763 q 233 776 249 763 q 217 794 217 789 l 217 796 l 374 1067 q 388 1074 379 1074 q 415 1063 400 1074 q 442 1038 429 1053 q 463 1010 454 1024 q 471 989 471 996 l 471 986 q 434 928 460 961 q 379 863 408 894 q 323 804 350 831 q 282 767 296 778 q 267 763 276 763 z "},"":{"ha":697,"x_min":22,"x_max":667,"o":"m 124 40 q 93 113 99 78 q 88 183 88 149 l 85 563 q 40 580 58 567 q 22 603 22 593 q 61 634 22 624 q 174 644 100 644 q 197 642 189 644 q 207 631 204 640 l 207 250 q 215 142 207 182 q 238 83 224 103 q 274 59 253 64 q 322 54 296 54 q 401 70 361 54 q 475 113 442 86 l 475 561 q 415 576 443 565 q 388 601 388 586 q 432 633 388 622 q 561 643 476 643 q 581 640 572 643 q 592 626 589 638 l 592 60 q 609 65 604 60 q 638 69 614 69 q 667 49 667 69 q 658 31 667 43 q 634 8 650 19 q 594 -13 618 -4 q 538 -22 569 -22 q 494 -11 513 -22 q 475 26 475 0 l 475 61 q 388 1 433 25 q 278 -22 342 -22 q 192 -9 236 -22 q 124 40 147 4 m 147 779 q 113 792 128 779 q 97 810 97 804 l 254 1054 q 279 1062 257 1060 q 328 1064 301 1064 q 374 1062 353 1064 q 400 1054 396 1060 l 558 810 q 543 792 558 804 q 511 779 528 779 q 481 798 503 779 q 433 846 460 817 q 378 910 406 875 q 329 978 350 946 q 278 911 307 946 q 223 847 250 876 q 175 799 196 818 q 147 779 154 779 z "},"":{"ha":697,"x_min":22,"x_max":667,"o":"m 124 40 q 93 113 99 78 q 88 183 88 149 l 85 563 q 40 580 58 567 q 22 603 22 593 q 61 634 22 624 q 174 644 100 644 q 197 642 189 644 q 207 631 204 640 l 207 250 q 215 142 207 182 q 238 83 224 103 q 274 59 253 64 q 322 54 296 54 q 401 70 361 54 q 475 113 442 86 l 475 561 q 415 576 443 565 q 388 601 388 586 q 432 633 388 622 q 561 643 476 643 q 581 640 572 643 q 592 626 589 638 l 592 60 q 609 65 604 60 q 638 69 614 69 q 667 49 667 69 q 658 31 667 43 q 634 8 650 19 q 594 -13 618 -4 q 538 -22 569 -22 q 494 -11 513 -22 q 475 26 475 0 l 475 61 q 388 1 433 25 q 278 -22 342 -22 q 192 -9 236 -22 q 124 40 147 4 m 493 769 q 442 777 463 769 q 410 794 421 785 q 394 814 399 804 q 389 828 389 824 q 396 854 389 839 q 414 883 403 869 q 439 905 425 896 q 467 914 453 914 q 551 892 528 914 q 575 850 575 869 q 567 824 575 838 q 548 798 560 810 q 522 778 536 786 q 493 769 507 769 m 189 769 q 138 777 158 769 q 106 794 117 785 q 90 814 94 804 q 85 828 85 824 q 92 854 85 839 q 110 883 99 869 q 135 905 121 896 q 163 914 149 914 q 247 892 224 914 q 271 850 271 869 q 263 824 271 838 q 244 798 256 810 q 217 778 232 786 q 189 769 203 769 z "},"":{"ha":656,"x_min":-17,"x_max":688,"o":"m 111 -110 q 136 -123 131 -110 q 147 -153 142 -136 q 163 -183 151 -169 q 204 -196 174 -196 q 265 -155 238 -196 q 311 -57 292 -114 l 53 549 l 19 572 q -11 585 -6 575 q -17 619 -17 594 q -14 631 -17 625 q 8 636 -11 636 l 219 636 q 242 625 235 636 q 249 604 249 614 q 226 583 249 589 q 174 572 203 576 l 297 251 l 357 67 l 401 251 l 510 572 q 479 577 496 575 q 448 583 463 579 q 424 592 433 586 q 415 604 415 597 q 423 625 415 614 q 446 636 431 636 l 649 636 q 678 631 669 636 q 688 619 688 625 q 663 584 688 594 q 608 571 638 574 l 383 -58 q 329 -172 357 -126 q 272 -247 301 -218 q 213 -287 243 -275 q 150 -299 182 -299 q 113 -290 132 -299 q 77 -267 93 -282 q 51 -231 61 -251 q 40 -186 40 -211 q 55 -135 40 -160 q 111 -110 69 -110 m 269 763 q 235 776 251 763 q 219 794 219 789 l 219 796 l 376 1067 q 390 1074 382 1074 q 417 1063 403 1074 q 444 1038 432 1053 q 465 1010 457 1024 q 474 989 474 996 l 474 986 q 437 928 463 961 q 382 863 411 894 q 326 804 353 831 q 285 767 299 778 q 269 763 279 763 z "},"":{"ha":708,"x_min":32,"x_max":668,"o":"m 210 -89 l 210 -240 q 277 -251 258 -240 q 296 -287 296 -262 q 282 -299 296 -294 q 221 -303 268 -303 l 61 -303 q 35 -286 35 -296 q 55 -263 35 -274 q 97 -243 75 -253 l 97 901 q 49 914 67 906 q 32 931 32 922 q 48 960 32 949 q 87 978 64 972 q 135 988 110 985 q 182 990 161 990 q 214 978 208 990 l 214 779 l 200 578 q 291 639 242 615 q 403 663 340 663 q 503 643 456 663 q 588 586 551 624 q 646 494 624 549 q 668 369 668 439 q 647 230 668 300 q 581 103 625 160 q 469 13 536 47 q 313 -22 403 -22 q 251 -17 281 -22 q 196 -1 221 -11 l 210 -89 m 211 113 q 244 85 224 96 q 287 67 265 74 q 329 59 308 61 q 363 57 350 57 q 444 77 410 57 q 499 132 478 97 q 531 212 521 167 q 542 308 542 257 q 488 508 542 432 q 339 585 435 585 q 272 572 307 585 q 210 528 238 558 l 211 113 z "},"":{"ha":656,"x_min":-17,"x_max":688,"o":"m 111 -110 q 136 -123 131 -110 q 147 -153 142 -136 q 163 -183 151 -169 q 204 -196 174 -196 q 265 -155 238 -196 q 311 -57 292 -114 l 53 549 l 19 572 q -11 585 -6 575 q -17 619 -17 594 q -14 631 -17 625 q 8 636 -11 636 l 219 636 q 242 625 235 636 q 249 604 249 614 q 226 583 249 589 q 174 572 203 576 l 297 251 l 357 67 l 401 251 l 510 572 q 479 577 496 575 q 448 583 463 579 q 424 592 433 586 q 415 604 415 597 q 423 625 415 614 q 446 636 431 636 l 649 636 q 678 631 669 636 q 688 619 688 625 q 663 584 688 594 q 608 571 638 574 l 383 -58 q 329 -172 357 -126 q 272 -247 301 -218 q 213 -287 243 -275 q 150 -299 182 -299 q 113 -290 132 -299 q 77 -267 93 -282 q 51 -231 61 -251 q 40 -186 40 -211 q 55 -135 40 -160 q 111 -110 69 -110 m 496 769 q 444 777 465 769 q 413 794 424 785 q 397 814 401 804 q 392 828 392 824 q 399 854 392 839 q 417 883 406 869 q 442 905 428 896 q 469 914 456 914 q 554 892 531 914 q 578 850 578 869 q 570 824 578 838 q 551 798 563 810 q 524 778 539 786 q 496 769 510 769 m 192 769 q 140 777 161 769 q 108 794 119 785 q 92 814 97 804 q 88 828 88 824 q 94 854 88 839 q 113 883 101 869 q 138 905 124 896 q 165 914 151 914 q 250 892 226 914 q 274 850 274 869 q 266 824 274 838 q 247 798 258 810 q 220 778 235 786 q 192 769 206 769 z "},"":{"ha":793,"x_min":-47,"x_max":832,"o":"m -21 0 q -42 10 -37 0 q -47 28 -47 19 q -36 42 -47 36 q -10 53 -25 49 q 19 62 4 58 q 42 69 35 65 l 325 854 q 363 908 342 890 q 413 926 383 926 q 447 921 431 926 q 532 701 497 799 q 598 511 567 603 q 662 324 629 419 q 739 110 694 229 q 763 74 751 82 q 806 57 774 65 q 825 49 818 54 q 832 31 832 44 q 821 12 832 24 q 785 0 810 0 l 574 0 q 552 10 557 0 q 547 28 547 19 q 564 46 547 40 l 617 69 q 581 174 597 124 q 550 272 565 224 q 378 273 457 272 q 206 274 300 274 l 146 100 q 161 74 146 81 q 194 63 176 67 q 226 53 211 58 q 240 31 240 47 q 193 0 240 0 l -21 0 m 232 353 q 384 351 318 353 q 526 350 450 350 q 464 559 496 454 q 383 789 432 664 l 232 353 m 211 1078 q 194 1086 204 1078 q 185 1110 185 1094 q 201 1149 185 1129 q 240 1169 217 1169 l 574 1169 q 599 1162 593 1169 q 604 1143 604 1154 q 583 1094 604 1111 q 531 1078 563 1078 l 211 1078 z "},"":{"ha":661,"x_min":54,"x_max":642,"o":"m 54 140 q 86 246 54 203 q 171 317 118 289 q 291 361 224 346 q 429 382 358 376 l 429 413 q 425 479 429 446 q 406 540 421 513 q 360 576 389 568 q 304 583 332 583 q 246 581 267 583 q 215 574 225 579 q 202 558 204 568 q 200 529 200 547 q 205 505 200 510 q 210 493 210 500 q 201 470 210 482 q 178 449 192 458 q 149 435 165 440 q 119 429 133 429 q 81 448 88 429 q 74 481 74 467 q 106 546 74 514 q 185 604 139 578 q 282 647 232 631 q 367 663 332 663 q 462 644 425 663 q 518 597 499 626 q 544 531 538 568 q 551 457 551 494 l 551 60 q 583 66 567 60 q 617 72 600 72 q 637 67 632 72 q 642 51 642 61 q 631 34 642 46 q 599 10 619 22 q 553 -12 579 -3 q 494 -22 526 -22 q 449 -11 468 -22 q 429 26 429 0 l 429 79 q 350 6 393 35 q 246 -22 307 -22 q 158 -7 194 -22 q 98 33 121 8 q 65 85 75 57 q 54 140 54 114 m 185 186 q 213 93 185 131 q 315 56 240 56 q 374 76 343 56 q 429 131 406 97 l 429 318 q 347 310 390 317 q 268 290 304 304 q 208 251 232 276 q 185 186 185 226 m 154 847 q 138 856 147 847 q 128 879 128 864 q 144 919 128 899 q 183 939 160 939 l 517 939 q 542 931 536 939 q 547 913 547 924 q 526 864 547 881 q 474 847 506 847 l 154 847 z "},"":{"ha":793,"x_min":-47,"x_max":832,"o":"m -21 0 q -42 10 -37 0 q -47 28 -47 19 q -36 42 -47 36 q -10 53 -25 49 q 19 62 4 58 q 42 69 35 65 l 325 854 q 363 908 342 890 q 413 926 383 926 q 447 921 431 926 q 532 701 497 799 q 598 511 567 603 q 662 324 629 419 q 739 110 694 229 q 763 74 751 82 q 806 57 774 65 q 825 49 818 54 q 832 31 832 44 q 821 12 832 24 q 785 0 810 0 l 574 0 q 552 10 557 0 q 547 28 547 19 q 564 46 547 40 l 617 69 q 581 174 597 124 q 550 272 565 224 q 378 273 457 272 q 206 274 300 274 l 146 100 q 161 74 146 81 q 194 63 176 67 q 226 53 211 58 q 240 31 240 47 q 193 0 240 0 l -21 0 m 232 353 q 384 351 318 353 q 526 350 450 350 q 464 559 496 454 q 383 789 432 664 l 232 353 m 392 1040 q 303 1060 344 1040 q 231 1107 261 1079 q 183 1168 200 1135 q 165 1228 165 1201 q 178 1253 165 1239 q 206 1268 190 1268 q 226 1248 214 1268 q 261 1203 239 1228 q 317 1159 283 1179 q 399 1139 350 1139 q 477 1159 444 1139 q 532 1203 510 1179 q 567 1248 554 1228 q 588 1268 581 1268 q 612 1256 599 1268 q 625 1232 625 1243 l 625 1228 q 597 1167 617 1200 q 546 1106 576 1135 q 476 1059 515 1078 q 392 1040 438 1040 z "},"":{"ha":661,"x_min":54,"x_max":642,"o":"m 54 140 q 86 246 54 203 q 171 317 118 289 q 291 361 224 346 q 429 382 358 376 l 429 413 q 425 479 429 446 q 406 540 421 513 q 360 576 389 568 q 304 583 332 583 q 246 581 267 583 q 215 574 225 579 q 202 558 204 568 q 200 529 200 547 q 205 505 200 510 q 210 493 210 500 q 201 470 210 482 q 178 449 192 458 q 149 435 165 440 q 119 429 133 429 q 81 448 88 429 q 74 481 74 467 q 106 546 74 514 q 185 604 139 578 q 282 647 232 631 q 367 663 332 663 q 462 644 425 663 q 518 597 499 626 q 544 531 538 568 q 551 457 551 494 l 551 60 q 583 66 567 60 q 617 72 600 72 q 637 67 632 72 q 642 51 642 61 q 631 34 642 46 q 599 10 619 22 q 553 -12 579 -3 q 494 -22 526 -22 q 449 -11 468 -22 q 429 26 429 0 l 429 79 q 350 6 393 35 q 246 -22 307 -22 q 158 -7 194 -22 q 98 33 121 8 q 65 85 75 57 q 54 140 54 114 m 185 186 q 213 93 185 131 q 315 56 240 56 q 374 76 343 56 q 429 131 406 97 l 429 318 q 347 310 390 317 q 268 290 304 304 q 208 251 232 276 q 185 186 185 226 m 335 819 q 256 834 290 819 q 197 872 222 849 q 158 924 172 896 q 136 979 143 953 l 136 982 q 150 1008 136 993 q 176 1022 164 1022 q 194 1006 183 1022 q 224 971 206 990 q 271 935 243 951 q 340 919 299 919 q 407 935 379 919 q 454 971 435 951 q 485 1006 474 990 q 503 1022 497 1022 q 527 1010 515 1022 q 539 986 539 997 l 539 982 q 515 925 532 954 q 471 872 497 896 q 410 834 444 849 q 335 819 376 819 z "},"":{"ha":793,"x_min":-47,"x_max":860,"o":"m -21 0 q -42 10 -37 0 q -47 28 -47 19 q -36 42 -47 36 q -10 53 -25 49 q 19 62 4 58 q 42 69 35 65 l 325 854 q 363 908 342 890 q 413 926 383 926 q 447 921 431 926 q 532 701 497 799 q 598 511 567 603 q 662 324 629 419 q 739 110 694 229 q 763 74 751 82 q 806 57 774 65 q 825 49 818 54 q 832 31 832 44 q 821 12 832 24 q 785 0 810 0 l 750 0 q 703 -53 722 -22 q 685 -132 685 -83 q 697 -169 685 -147 q 738 -190 710 -190 q 779 -187 756 -190 q 833 -165 803 -183 q 840 -164 836 -164 q 855 -174 850 -164 q 860 -189 860 -183 q 855 -211 860 -194 q 835 -245 850 -228 q 789 -276 819 -262 q 706 -290 758 -290 q 602 -255 646 -290 q 558 -157 558 -219 q 590 -61 558 -99 q 665 0 622 -24 l 574 0 q 552 10 557 0 q 547 28 547 19 q 564 46 547 40 l 617 69 q 581 174 597 124 q 550 272 565 224 q 378 273 457 272 q 206 274 300 274 l 146 100 q 161 74 146 81 q 194 63 176 67 q 226 53 211 58 q 240 31 240 47 q 193 0 240 0 l -21 0 m 232 353 q 384 351 318 353 q 526 350 450 350 q 464 559 496 454 q 383 789 432 664 l 232 353 z "},"":{"ha":661,"x_min":54,"x_max":678,"o":"m 54 140 q 86 246 54 203 q 171 317 118 289 q 291 361 224 346 q 429 382 358 376 l 429 413 q 425 479 429 446 q 406 540 421 513 q 360 576 389 568 q 304 583 332 583 q 246 581 267 583 q 215 574 225 579 q 202 558 204 568 q 200 529 200 547 q 205 505 200 510 q 210 493 210 500 q 201 470 210 482 q 178 449 192 458 q 149 435 165 440 q 119 429 133 429 q 81 448 88 429 q 74 481 74 467 q 106 546 74 514 q 185 604 139 578 q 282 647 232 631 q 367 663 332 663 q 462 644 425 663 q 518 597 499 626 q 544 531 538 568 q 551 457 551 494 l 551 60 q 583 66 567 60 q 617 72 600 72 q 637 67 632 72 q 642 51 642 61 q 617 22 642 43 q 551 -12 592 0 q 516 -60 529 -32 q 503 -132 503 -87 q 515 -169 503 -147 q 554 -190 526 -190 q 594 -187 569 -190 q 651 -165 618 -183 q 658 -164 654 -164 q 673 -174 668 -164 q 678 -189 678 -183 q 672 -211 678 -194 q 651 -245 667 -228 q 604 -276 635 -262 q 524 -290 574 -290 q 419 -255 461 -290 q 376 -157 376 -219 q 403 -78 376 -112 q 467 -18 431 -43 q 440 -3 450 -14 q 429 26 429 7 l 429 79 q 350 6 393 35 q 246 -22 307 -22 q 158 -7 194 -22 q 98 33 121 8 q 65 85 75 57 q 54 140 54 114 m 185 186 q 213 93 185 131 q 315 56 240 56 q 374 76 343 56 q 429 131 406 97 l 429 318 q 347 310 390 317 q 268 290 304 304 q 208 251 232 276 q 185 186 185 226 z "},"":{"ha":788,"x_min":57,"x_max":764,"o":"m 435 -22 q 299 7 367 -22 q 178 94 232 36 q 90 238 124 151 q 57 436 57 324 q 91 643 57 551 q 186 799 125 735 q 332 899 247 864 q 518 933 417 933 q 598 924 558 933 q 671 899 638 914 q 726 867 704 885 q 749 833 747 850 q 750 782 749 814 q 749 720 751 750 q 735 668 746 690 q 700 646 725 646 q 682 665 692 646 q 665 707 672 683 q 646 768 656 733 q 621 800 640 785 q 574 828 601 815 q 515 848 547 840 q 454 856 483 856 q 325 824 376 856 q 242 739 274 792 q 199 617 211 686 q 186 474 186 547 q 210 303 186 379 q 276 172 233 226 q 378 89 319 118 q 504 60 436 60 q 534 63 515 60 q 574 70 553 65 q 615 84 594 75 q 649 106 635 93 q 668 120 656 111 q 694 138 681 129 q 719 152 707 146 q 735 158 731 158 q 754 155 744 158 q 764 143 764 151 q 761 128 764 136 q 751 114 758 121 q 435 -22 643 -22 m 397 1003 q 363 1015 378 1003 q 349 1033 349 1026 l 349 1035 l 506 1264 q 519 1272 510 1272 q 545 1262 531 1272 q 572 1237 560 1251 q 594 1208 585 1222 q 603 1186 603 1193 l 603 1183 q 566 1131 592 1158 q 511 1081 540 1104 q 455 1038 482 1057 q 414 1007 428 1018 q 397 1003 406 1003 z "},"":{"ha":582,"x_min":44,"x_max":550,"o":"m 44 281 q 67 437 44 367 q 132 557 90 507 q 233 635 174 607 q 368 663 293 663 q 424 657 393 663 q 480 637 454 651 q 523 599 506 622 q 540 538 540 575 q 531 499 540 515 q 508 473 522 483 q 478 456 494 463 q 444 447 461 450 q 424 455 432 447 q 413 488 415 463 q 386 572 406 551 q 325 592 367 592 q 254 572 283 592 q 207 516 225 551 q 181 434 189 481 q 172 333 172 388 q 183 234 172 283 q 218 146 194 185 q 279 83 242 107 q 369 58 317 58 q 415 67 397 58 q 447 87 432 76 q 477 106 461 97 q 518 114 493 114 q 543 108 536 114 q 550 94 550 101 q 528 53 550 74 q 474 15 507 32 q 404 -12 442 -1 q 335 -22 367 -22 q 206 3 261 -22 q 115 69 151 28 q 62 166 79 111 q 44 281 44 221 m 289 763 q 255 776 271 763 q 239 794 239 789 l 239 796 l 396 1067 q 410 1074 401 1074 q 437 1063 422 1074 q 464 1038 451 1053 q 485 1010 476 1024 q 493 989 493 996 l 493 986 q 456 928 482 961 q 401 863 431 894 q 345 804 372 831 q 304 767 318 778 q 289 763 299 763 z "},"":{"ha":788,"x_min":57,"x_max":764,"o":"m 435 -22 q 299 7 367 -22 q 178 94 232 36 q 90 238 124 151 q 57 436 57 324 q 91 643 57 551 q 186 799 125 735 q 332 899 247 864 q 518 933 417 933 q 598 924 558 933 q 671 899 638 914 q 726 867 704 885 q 749 833 747 850 q 750 782 749 814 q 749 720 751 750 q 735 668 746 690 q 700 646 725 646 q 682 665 692 646 q 665 707 672 683 q 646 768 656 733 q 621 800 640 785 q 574 828 601 815 q 515 848 547 840 q 454 856 483 856 q 325 824 376 856 q 242 739 274 792 q 199 617 211 686 q 186 474 186 547 q 210 303 186 379 q 276 172 233 226 q 378 89 319 118 q 504 60 436 60 q 534 63 515 60 q 574 70 553 65 q 615 84 594 75 q 649 106 635 93 q 668 120 656 111 q 694 138 681 129 q 719 152 707 146 q 735 158 731 158 q 754 155 744 158 q 764 143 764 151 q 761 128 764 136 q 751 114 758 121 q 435 -22 643 -22 m 293 999 q 258 1011 274 999 q 243 1029 243 1024 l 400 1274 q 425 1281 403 1279 q 474 1283 447 1283 q 520 1281 499 1283 q 546 1274 542 1279 l 704 1029 q 689 1011 704 1024 q 657 999 674 999 q 627 1017 649 999 q 578 1065 606 1036 q 524 1130 551 1094 q 475 1197 496 1165 q 424 1131 453 1165 q 369 1067 396 1096 q 321 1018 342 1038 q 293 999 300 999 z "},"":{"ha":582,"x_min":44,"x_max":581,"o":"m 44 281 q 67 437 44 367 q 132 557 90 507 q 233 635 174 607 q 368 663 293 663 q 424 657 393 663 q 480 637 454 651 q 523 599 506 622 q 540 538 540 575 q 531 499 540 515 q 508 473 522 483 q 478 456 494 463 q 444 447 461 450 q 424 455 432 447 q 413 488 415 463 q 386 572 406 551 q 325 592 367 592 q 254 572 283 592 q 207 516 225 551 q 181 434 189 481 q 172 333 172 388 q 183 234 172 283 q 218 146 194 185 q 279 83 242 107 q 369 58 317 58 q 415 67 397 58 q 447 87 432 76 q 477 106 461 97 q 518 114 493 114 q 543 108 536 114 q 550 94 550 101 q 528 53 550 74 q 474 15 507 32 q 404 -12 442 -1 q 335 -22 367 -22 q 206 3 261 -22 q 115 69 151 28 q 62 166 79 111 q 44 281 44 221 m 169 779 q 135 792 150 779 q 119 810 119 804 l 276 1054 q 301 1062 279 1060 q 350 1064 324 1064 q 397 1062 375 1064 q 422 1054 418 1060 l 581 810 q 565 792 581 804 q 533 779 550 779 q 503 798 525 779 q 455 846 482 817 q 400 910 428 875 q 351 978 372 946 q 301 911 329 946 q 245 847 272 876 q 197 799 218 818 q 169 779 176 779 z "},"":{"ha":788,"x_min":57,"x_max":764,"o":"m 435 -22 q 299 7 367 -22 q 178 94 232 36 q 90 238 124 151 q 57 436 57 324 q 91 643 57 551 q 186 799 125 735 q 332 899 247 864 q 518 933 417 933 q 598 924 558 933 q 671 899 638 914 q 726 867 704 885 q 749 833 747 850 q 750 782 749 814 q 749 720 751 750 q 735 668 746 690 q 700 646 725 646 q 682 665 692 646 q 665 707 672 683 q 646 768 656 733 q 621 800 640 785 q 574 828 601 815 q 515 848 547 840 q 454 856 483 856 q 325 824 376 856 q 242 739 274 792 q 199 617 211 686 q 186 474 186 547 q 210 303 186 379 q 276 172 233 226 q 378 89 319 118 q 504 60 436 60 q 534 63 515 60 q 574 70 553 65 q 615 84 594 75 q 649 106 635 93 q 668 120 656 111 q 694 138 681 129 q 719 152 707 146 q 735 158 731 158 q 754 155 744 158 q 764 143 764 151 q 761 128 764 136 q 751 114 758 121 q 435 -22 643 -22 m 486 1054 q 435 1062 456 1054 q 403 1079 414 1069 q 387 1099 392 1089 q 382 1113 382 1108 q 389 1139 382 1124 q 407 1167 396 1154 q 432 1190 418 1181 q 460 1199 446 1199 q 544 1176 521 1199 q 568 1135 568 1154 q 560 1108 568 1122 q 541 1083 553 1094 q 515 1063 529 1071 q 486 1054 500 1054 z "},"":{"ha":582,"x_min":44,"x_max":550,"o":"m 44 281 q 67 437 44 367 q 132 557 90 507 q 233 635 174 607 q 368 663 293 663 q 424 657 393 663 q 480 637 454 651 q 523 599 506 622 q 540 538 540 575 q 531 499 540 515 q 508 473 522 483 q 478 456 494 463 q 444 447 461 450 q 424 455 432 447 q 413 488 415 463 q 386 572 406 551 q 325 592 367 592 q 254 572 283 592 q 207 516 225 551 q 181 434 189 481 q 172 333 172 388 q 183 234 172 283 q 218 146 194 185 q 279 83 242 107 q 369 58 317 58 q 415 67 397 58 q 447 87 432 76 q 477 106 461 97 q 518 114 493 114 q 543 108 536 114 q 550 94 550 101 q 528 53 550 74 q 474 15 507 32 q 404 -12 442 -1 q 335 -22 367 -22 q 206 3 261 -22 q 115 69 151 28 q 62 166 79 111 q 44 281 44 221 m 363 769 q 311 777 332 769 q 279 794 290 785 q 263 814 268 804 q 258 828 258 824 q 265 854 258 839 q 283 883 272 869 q 308 905 294 896 q 336 914 322 914 q 421 892 397 914 q 444 850 444 869 q 437 824 444 838 q 417 798 429 810 q 391 778 406 786 q 363 769 376 769 z "},"":{"ha":788,"x_min":57,"x_max":764,"o":"m 435 -22 q 299 7 367 -22 q 178 94 232 36 q 90 238 124 151 q 57 436 57 324 q 91 643 57 551 q 186 799 125 735 q 332 899 247 864 q 518 933 417 933 q 598 924 558 933 q 671 899 638 914 q 726 867 704 885 q 749 833 747 850 q 750 782 749 814 q 749 720 751 750 q 735 668 746 690 q 700 646 725 646 q 682 665 692 646 q 665 707 672 683 q 646 768 656 733 q 621 800 640 785 q 574 828 601 815 q 515 848 547 840 q 454 856 483 856 q 325 824 376 856 q 242 739 274 792 q 199 617 211 686 q 186 474 186 547 q 210 303 186 379 q 276 172 233 226 q 378 89 319 118 q 504 60 436 60 q 534 63 515 60 q 574 70 553 65 q 615 84 594 75 q 649 106 635 93 q 668 120 656 111 q 694 138 681 129 q 719 152 707 146 q 735 158 731 158 q 754 155 744 158 q 764 143 764 151 q 761 128 764 136 q 751 114 758 121 q 435 -22 643 -22 m 243 1261 l 243 1263 q 258 1281 243 1268 q 293 1293 274 1293 q 321 1274 300 1293 q 369 1225 342 1254 q 424 1160 396 1196 q 475 1093 453 1125 q 524 1160 496 1125 q 578 1225 551 1196 q 627 1274 606 1254 q 657 1293 649 1293 q 689 1281 674 1293 q 704 1263 704 1268 l 546 1018 q 520 1010 542 1013 q 474 1008 499 1008 q 425 1010 447 1008 q 400 1018 403 1013 l 243 1261 z "},"":{"ha":582,"x_min":44,"x_max":581,"o":"m 44 281 q 67 437 44 367 q 132 557 90 507 q 233 635 174 607 q 368 663 293 663 q 424 657 393 663 q 480 637 454 651 q 523 599 506 622 q 540 538 540 575 q 531 499 540 515 q 508 473 522 483 q 478 456 494 463 q 444 447 461 450 q 424 455 432 447 q 413 488 415 463 q 386 572 406 551 q 325 592 367 592 q 254 572 283 592 q 207 516 225 551 q 181 434 189 481 q 172 333 172 388 q 183 234 172 283 q 218 146 194 185 q 279 83 242 107 q 369 58 317 58 q 415 67 397 58 q 447 87 432 76 q 477 106 461 97 q 518 114 493 114 q 543 108 536 114 q 550 94 550 101 q 528 53 550 74 q 474 15 507 32 q 404 -12 442 -1 q 335 -22 367 -22 q 206 3 261 -22 q 115 69 151 28 q 62 166 79 111 q 44 281 44 221 m 119 1060 l 119 1061 q 135 1079 119 1067 q 169 1092 150 1092 q 197 1072 176 1092 q 245 1024 218 1053 q 301 959 272 994 q 351 892 329 924 q 400 959 372 924 q 455 1024 428 994 q 503 1072 482 1053 q 533 1092 525 1092 q 565 1079 550 1092 q 581 1061 581 1067 l 422 817 q 397 809 418 811 q 350 807 375 807 q 301 809 324 807 q 276 817 279 811 l 119 1060 z "},"":{"ha":900,"x_min":67,"x_max":856,"o":"m 67 33 q 78 48 67 42 q 103 59 89 54 q 133 68 118 64 q 156 76 149 72 l 156 838 q 133 845 149 842 q 103 854 118 849 q 78 866 89 860 q 67 881 67 872 q 72 901 67 889 q 93 914 76 914 l 203 914 q 295 919 239 914 q 410 924 351 924 q 609 894 525 924 q 748 807 693 864 q 829 669 803 750 q 856 485 856 588 q 828 305 856 393 q 742 147 800 217 q 594 35 683 78 q 385 -7 506 -7 q 346 -6 364 -7 q 307 -3 328 -4 q 260 -1 286 -3 q 199 0 235 0 l 93 0 q 72 13 76 0 q 67 33 67 25 m 279 67 q 318 65 292 67 q 379 63 344 63 q 641 172 550 63 q 732 471 732 281 q 713 615 732 546 q 653 735 694 683 q 545 818 611 788 q 386 849 479 849 l 279 849 l 279 67 m 226 1261 l 226 1263 q 242 1281 226 1268 q 276 1293 257 1293 q 304 1274 283 1293 q 352 1225 325 1254 q 408 1160 379 1196 q 458 1093 436 1125 q 507 1160 479 1125 q 562 1225 535 1196 q 610 1274 589 1254 q 640 1293 632 1293 q 672 1281 657 1293 q 688 1263 688 1268 l 529 1018 q 503 1010 525 1013 q 457 1008 482 1008 q 408 1010 431 1008 q 383 1018 386 1013 l 226 1261 z "},"":{"ha":815,"x_min":38,"x_max":847,"o":"m 717 1040 q 749 1060 717 1060 q 805 1053 785 1060 q 834 1036 825 1047 q 845 1010 843 1025 q 847 976 847 994 q 844 910 847 946 q 835 842 840 875 q 825 783 831 810 q 815 743 819 757 q 797 727 810 732 q 772 722 785 722 q 753 725 761 722 q 746 731 746 728 l 717 1040 m 38 271 q 59 409 38 339 q 124 535 81 479 q 234 627 168 592 q 390 663 300 663 q 499 647 449 663 l 492 775 l 492 906 q 457 911 476 908 q 421 918 438 914 q 392 926 404 922 q 381 935 381 931 q 398 966 381 953 q 444 988 415 979 q 507 1000 472 996 q 576 1004 542 1004 q 596 1003 586 1004 q 608 992 606 1001 l 608 60 q 638 65 622 60 q 669 69 653 69 q 686 64 682 69 q 690 49 690 58 q 681 31 690 43 q 653 8 671 19 q 611 -13 636 -4 q 554 -22 586 -22 q 499 26 499 -22 l 499 63 q 414 0 460 22 q 303 -22 368 -22 q 203 -2 251 -22 q 119 56 156 18 q 60 147 82 93 q 38 271 38 201 m 364 54 q 429 67 394 54 q 493 107 464 81 l 492 529 q 460 558 479 547 q 419 574 440 568 q 376 581 397 579 q 342 582 356 582 q 210 517 249 582 q 172 329 172 451 q 220 131 172 207 q 364 54 268 54 z "},"":{"ha":922,"x_min":93,"x_max":882,"o":"m 93 33 q 104 48 93 42 q 130 59 115 54 q 160 68 144 64 q 182 76 175 72 l 182 439 l 119 439 q 103 447 113 439 q 93 471 93 456 q 100 490 93 481 q 116 506 107 499 q 134 518 125 514 q 149 522 143 522 l 182 522 l 182 838 q 160 845 175 842 q 130 854 144 849 q 104 866 115 860 q 93 881 93 872 q 98 901 93 889 q 119 914 103 914 l 229 914 q 322 919 265 914 q 436 924 378 924 q 635 894 551 924 q 774 807 719 864 q 856 669 829 750 q 882 485 882 588 q 854 305 882 393 q 768 147 826 217 q 621 35 710 78 q 411 -7 532 -7 q 372 -6 390 -7 q 333 -3 354 -4 q 287 -1 313 -3 q 225 0 261 0 l 119 0 q 98 13 103 0 q 93 33 93 25 m 306 67 q 344 65 318 67 q 406 63 371 63 q 667 172 576 63 q 758 471 758 281 q 740 615 758 546 q 679 735 721 683 q 572 818 638 788 q 413 849 506 849 l 306 849 l 306 522 l 479 522 q 502 516 492 522 q 513 503 513 510 q 505 472 513 485 q 485 452 497 460 q 461 442 474 444 q 439 439 449 439 l 306 439 l 306 67 z "},"":{"ha":722,"x_min":38,"x_max":743,"o":"m 38 271 q 59 409 38 339 q 124 535 81 479 q 234 627 168 592 q 390 663 300 663 q 499 647 449 663 l 493 740 l 350 740 q 333 749 343 740 q 324 772 324 757 q 331 791 324 782 q 347 808 338 800 q 365 819 356 815 q 379 824 374 824 l 492 824 l 492 906 q 457 911 476 908 q 421 918 438 914 q 392 926 404 922 q 381 935 381 931 q 398 966 381 953 q 444 988 415 979 q 507 1000 472 996 q 576 1004 542 1004 q 596 1003 586 1004 q 608 992 606 1001 l 608 824 l 710 824 q 733 817 722 824 q 743 804 743 811 q 735 774 743 786 q 716 753 728 761 q 692 743 704 746 q 669 740 679 740 l 608 740 l 608 60 q 638 65 622 60 q 669 69 653 69 q 686 64 682 69 q 690 49 690 58 q 681 31 690 43 q 653 8 671 19 q 611 -13 636 -4 q 554 -22 586 -22 q 499 26 499 -22 l 499 63 q 414 0 460 22 q 303 -22 368 -22 q 203 -2 251 -22 q 119 56 156 18 q 60 147 82 93 q 38 271 38 201 m 364 54 q 429 67 394 54 q 493 107 464 81 l 492 529 q 460 558 479 547 q 419 574 440 568 q 376 581 397 579 q 342 582 356 582 q 210 517 249 582 q 172 329 172 451 q 220 131 172 207 q 364 54 268 54 z "},"":{"ha":744,"x_min":67,"x_max":708,"o":"m 67 33 q 78 48 67 42 q 103 59 89 54 q 133 68 118 64 q 156 76 149 72 l 156 838 q 133 845 149 842 q 103 854 118 849 q 78 866 89 860 q 67 881 67 872 q 72 901 67 889 q 93 914 76 914 l 572 914 q 640 908 618 914 q 661 872 661 901 q 657 832 661 856 q 647 786 653 808 q 631 749 640 764 q 611 733 622 733 q 583 752 590 733 q 566 792 575 771 q 542 833 557 814 q 492 851 526 851 l 279 851 l 279 519 l 522 525 q 546 510 546 524 q 542 487 546 501 q 531 459 538 472 q 514 435 524 446 q 493 424 504 425 l 279 443 l 279 69 q 335 69 300 69 q 401 68 369 68 q 504 72 458 68 q 568 88 550 76 q 597 124 583 96 q 620 181 610 151 q 638 235 631 211 q 650 258 646 258 q 697 240 686 258 q 708 165 708 222 q 707 111 708 140 q 703 58 706 82 q 697 17 700 33 q 692 0 694 0 l 93 0 q 72 13 76 0 q 67 33 67 25 m 200 1078 q 183 1086 193 1078 q 174 1110 174 1094 q 190 1149 174 1129 q 229 1169 206 1169 l 563 1169 q 588 1162 582 1169 q 593 1143 593 1154 q 572 1094 593 1111 q 519 1078 551 1078 l 200 1078 z "},"":{"ha":668,"x_min":51,"x_max":611,"o":"m 51 281 q 74 431 51 361 q 137 551 96 500 q 237 633 178 603 q 368 663 296 663 q 494 631 447 663 q 567 551 542 600 q 601 445 593 503 q 611 333 610 388 q 593 310 611 313 q 556 307 575 307 l 179 307 q 194 215 182 260 q 228 136 206 171 q 287 80 251 101 q 369 58 322 58 q 453 66 421 58 q 506 83 485 74 q 541 99 526 92 q 572 107 556 107 q 592 92 592 107 q 571 53 592 74 q 515 16 550 33 q 433 -12 479 -1 q 335 -22 386 -22 q 208 3 261 -22 q 119 69 154 28 q 68 166 85 111 q 51 281 51 221 m 474 379 q 467 460 472 422 q 446 526 461 499 q 401 571 431 554 q 325 588 372 588 q 220 526 256 588 q 179 369 185 464 l 474 379 m 178 847 q 161 856 171 847 q 151 879 151 864 q 167 919 151 899 q 207 939 183 939 l 540 939 q 565 931 560 939 q 571 913 571 924 q 550 864 571 881 q 497 847 529 847 l 178 847 z "},"":{"ha":744,"x_min":67,"x_max":708,"o":"m 67 33 q 78 48 67 42 q 103 59 89 54 q 133 68 118 64 q 156 76 149 72 l 156 838 q 133 845 149 842 q 103 854 118 849 q 78 866 89 860 q 67 881 67 872 q 72 901 67 889 q 93 914 76 914 l 572 914 q 640 908 618 914 q 661 872 661 901 q 657 832 661 856 q 647 786 653 808 q 631 749 640 764 q 611 733 622 733 q 583 752 590 733 q 566 792 575 771 q 542 833 557 814 q 492 851 526 851 l 279 851 l 279 519 l 522 525 q 546 510 546 524 q 542 487 546 501 q 531 459 538 472 q 514 435 524 446 q 493 424 504 425 l 279 443 l 279 69 q 335 69 300 69 q 401 68 369 68 q 504 72 458 68 q 568 88 550 76 q 597 124 583 96 q 620 181 610 151 q 638 235 631 211 q 650 258 646 258 q 697 240 686 258 q 708 165 708 222 q 707 111 708 140 q 703 58 706 82 q 697 17 700 33 q 692 0 694 0 l 93 0 q 72 13 76 0 q 67 33 67 25 m 381 1040 q 292 1060 333 1040 q 219 1107 250 1079 q 172 1168 189 1135 q 154 1228 154 1201 q 167 1253 154 1239 q 194 1268 179 1268 q 215 1248 203 1268 q 250 1203 228 1228 q 306 1159 272 1179 q 388 1139 339 1139 q 466 1159 433 1139 q 521 1203 499 1179 q 556 1248 543 1228 q 576 1268 569 1268 q 601 1256 588 1268 q 614 1232 614 1243 l 614 1228 q 585 1167 606 1200 q 535 1106 565 1135 q 465 1059 504 1078 q 381 1040 426 1040 z "},"":{"ha":668,"x_min":51,"x_max":611,"o":"m 51 281 q 74 431 51 361 q 137 551 96 500 q 237 633 178 603 q 368 663 296 663 q 494 631 447 663 q 567 551 542 600 q 601 445 593 503 q 611 333 610 388 q 593 310 611 313 q 556 307 575 307 l 179 307 q 194 215 182 260 q 228 136 206 171 q 287 80 251 101 q 369 58 322 58 q 453 66 421 58 q 506 83 485 74 q 541 99 526 92 q 572 107 556 107 q 592 92 592 107 q 571 53 592 74 q 515 16 550 33 q 433 -12 479 -1 q 335 -22 386 -22 q 208 3 261 -22 q 119 69 154 28 q 68 166 85 111 q 51 281 51 221 m 474 379 q 467 460 472 422 q 446 526 461 499 q 401 571 431 554 q 325 588 372 588 q 220 526 256 588 q 179 369 185 464 l 474 379 m 358 819 q 280 834 314 819 q 221 872 246 849 q 181 924 196 896 q 160 979 167 953 l 160 982 q 174 1008 160 993 q 200 1022 188 1022 q 218 1006 207 1022 q 248 971 229 990 q 294 935 267 951 q 364 919 322 919 q 431 935 403 919 q 478 971 458 951 q 509 1006 497 990 q 526 1022 521 1022 q 551 1010 539 1022 q 563 986 563 997 l 563 982 q 538 925 556 954 q 494 872 521 896 q 434 834 468 849 q 358 819 400 819 z "},"":{"ha":744,"x_min":67,"x_max":708,"o":"m 67 33 q 78 48 67 42 q 103 59 89 54 q 133 68 118 64 q 156 76 149 72 l 156 838 q 133 845 149 842 q 103 854 118 849 q 78 866 89 860 q 67 881 67 872 q 72 901 67 889 q 93 914 76 914 l 572 914 q 640 908 618 914 q 661 872 661 901 q 657 832 661 856 q 647 786 653 808 q 631 749 640 764 q 611 733 622 733 q 583 752 590 733 q 566 792 575 771 q 542 833 557 814 q 492 851 526 851 l 279 851 l 279 519 l 522 525 q 546 510 546 524 q 542 487 546 501 q 531 459 538 472 q 514 435 524 446 q 493 424 504 425 l 279 443 l 279 69 q 335 69 300 69 q 401 68 369 68 q 504 72 458 68 q 568 88 550 76 q 597 124 583 96 q 620 181 610 151 q 638 235 631 211 q 650 258 646 258 q 697 240 686 258 q 708 165 708 222 q 707 111 708 140 q 703 58 706 82 q 697 17 700 33 q 692 0 694 0 l 93 0 q 72 13 76 0 q 67 33 67 25 m 396 1054 q 344 1062 365 1054 q 313 1079 324 1069 q 297 1099 301 1089 q 292 1113 292 1108 q 299 1139 292 1124 q 317 1167 306 1154 q 342 1190 328 1181 q 369 1199 356 1199 q 454 1176 431 1199 q 478 1135 478 1154 q 470 1108 478 1122 q 451 1083 463 1094 q 424 1063 439 1071 q 396 1054 410 1054 z "},"":{"ha":668,"x_min":51,"x_max":611,"o":"m 51 281 q 74 431 51 361 q 137 551 96 500 q 237 633 178 603 q 368 663 296 663 q 494 631 447 663 q 567 551 542 600 q 601 445 593 503 q 611 333 610 388 q 593 310 611 313 q 556 307 575 307 l 179 307 q 194 215 182 260 q 228 136 206 171 q 287 80 251 101 q 369 58 322 58 q 453 66 421 58 q 506 83 485 74 q 541 99 526 92 q 572 107 556 107 q 592 92 592 107 q 571 53 592 74 q 515 16 550 33 q 433 -12 479 -1 q 335 -22 386 -22 q 208 3 261 -22 q 119 69 154 28 q 68 166 85 111 q 51 281 51 221 m 474 379 q 467 460 472 422 q 446 526 461 499 q 401 571 431 554 q 325 588 372 588 q 220 526 256 588 q 179 369 185 464 l 474 379 m 335 956 q 315 963 326 956 q 263 1010 276 985 q 249 1038 249 1035 q 251 1046 249 1042 q 257 1057 254 1050 q 306 1107 283 1092 q 335 1122 329 1122 q 350 1114 339 1122 l 376 1090 q 409 1056 401 1068 q 418 1038 417 1044 q 411 1020 418 1031 q 385 994 404 1010 l 354 965 q 335 956 343 956 z "},"":{"ha":744,"x_min":67,"x_max":708,"o":"m 67 33 q 78 48 67 42 q 103 59 89 54 q 133 68 118 64 q 156 76 149 72 l 156 838 q 133 845 149 842 q 103 854 118 849 q 78 866 89 860 q 67 881 67 872 q 72 901 67 889 q 93 914 76 914 l 572 914 q 640 908 618 914 q 661 872 661 901 q 657 832 661 856 q 647 786 653 808 q 631 749 640 764 q 611 733 622 733 q 583 752 590 733 q 566 792 575 771 q 542 833 557 814 q 492 851 526 851 l 279 851 l 279 519 l 522 525 q 546 510 546 524 q 542 487 546 501 q 531 459 538 472 q 514 435 524 446 q 493 424 504 425 l 279 443 l 279 69 q 335 69 300 69 q 401 68 369 68 q 504 72 458 68 q 568 88 550 76 q 597 124 583 96 q 620 181 610 151 q 638 235 631 211 q 650 258 646 258 q 697 240 686 258 q 708 165 708 222 q 707 111 708 140 q 703 58 706 82 q 697 17 700 33 q 692 0 694 0 l 575 0 q 528 -53 547 -22 q 510 -132 510 -83 q 522 -169 510 -147 q 563 -190 535 -190 q 604 -187 581 -190 q 658 -165 628 -183 q 665 -164 661 -164 q 680 -174 675 -164 q 685 -189 685 -183 q 680 -211 685 -194 q 660 -245 675 -228 q 614 -276 644 -262 q 531 -290 583 -290 q 427 -255 471 -290 q 383 -157 383 -219 q 415 -61 383 -99 q 490 0 447 -24 l 93 0 q 72 13 76 0 q 67 33 67 25 z "},"":{"ha":668,"x_min":51,"x_max":611,"o":"m 51 281 q 74 431 51 361 q 137 551 96 500 q 237 633 178 603 q 368 663 296 663 q 494 631 447 663 q 567 551 542 600 q 601 445 593 503 q 611 333 610 388 q 593 310 611 313 q 556 307 575 307 l 179 307 q 194 215 182 260 q 228 136 206 171 q 287 80 251 101 q 369 58 322 58 q 453 66 421 58 q 506 83 485 74 q 541 99 526 92 q 572 107 556 107 q 592 92 592 107 q 589 75 592 83 q 575 58 586 67 q 524 22 550 39 q 474 -14 497 6 q 437 -61 451 -33 q 422 -132 422 -89 q 435 -169 422 -147 q 475 -190 447 -190 q 517 -187 493 -190 q 571 -165 540 -183 q 578 -164 574 -164 q 592 -174 588 -164 q 597 -189 597 -183 q 592 -211 597 -194 q 572 -245 588 -228 q 526 -276 557 -262 q 443 -290 496 -290 q 340 -255 383 -290 q 296 -157 296 -219 q 317 -78 296 -111 q 369 -21 338 -44 q 353 -22 361 -21 q 335 -22 344 -22 q 208 3 261 -22 q 119 69 154 28 q 68 166 85 111 q 51 281 51 221 m 474 379 q 467 460 472 422 q 446 526 461 499 q 401 571 431 554 q 325 588 372 588 q 220 526 256 588 q 179 369 185 464 l 474 379 z "},"":{"ha":744,"x_min":67,"x_max":708,"o":"m 67 33 q 78 48 67 42 q 103 59 89 54 q 133 68 118 64 q 156 76 149 72 l 156 838 q 133 845 149 842 q 103 854 118 849 q 78 866 89 860 q 67 881 67 872 q 72 901 67 889 q 93 914 76 914 l 572 914 q 640 908 618 914 q 661 872 661 901 q 657 832 661 856 q 647 786 653 808 q 631 749 640 764 q 611 733 622 733 q 583 752 590 733 q 566 792 575 771 q 542 833 557 814 q 492 851 526 851 l 279 851 l 279 519 l 522 525 q 546 510 546 524 q 542 487 546 501 q 531 459 538 472 q 514 435 524 446 q 493 424 504 425 l 279 443 l 279 69 q 335 69 300 69 q 401 68 369 68 q 504 72 458 68 q 568 88 550 76 q 597 124 583 96 q 620 181 610 151 q 638 235 631 211 q 650 258 646 258 q 697 240 686 258 q 708 165 708 222 q 707 111 708 140 q 703 58 706 82 q 697 17 700 33 q 692 0 694 0 l 93 0 q 72 13 76 0 q 67 33 67 25 m 153 1261 l 153 1263 q 168 1281 153 1268 q 203 1293 183 1293 q 231 1274 210 1293 q 278 1225 251 1254 q 334 1160 306 1196 q 385 1093 363 1125 q 433 1160 406 1125 q 488 1225 461 1196 q 537 1274 515 1254 q 567 1293 558 1293 q 599 1281 583 1293 q 614 1263 614 1268 l 456 1018 q 430 1010 451 1013 q 383 1008 408 1008 q 335 1010 357 1008 q 310 1018 313 1013 l 153 1261 z "},"":{"ha":668,"x_min":51,"x_max":611,"o":"m 51 281 q 74 431 51 361 q 137 551 96 500 q 237 633 178 603 q 368 663 296 663 q 494 631 447 663 q 567 551 542 600 q 601 445 593 503 q 611 333 610 388 q 593 310 611 313 q 556 307 575 307 l 179 307 q 194 215 182 260 q 228 136 206 171 q 287 80 251 101 q 369 58 322 58 q 453 66 421 58 q 506 83 485 74 q 541 99 526 92 q 572 107 556 107 q 592 92 592 107 q 571 53 592 74 q 515 16 550 33 q 433 -12 479 -1 q 335 -22 386 -22 q 208 3 261 -22 q 119 69 154 28 q 68 166 85 111 q 51 281 51 221 m 474 379 q 467 460 472 422 q 446 526 461 499 q 401 571 431 554 q 325 588 372 588 q 220 526 256 588 q 179 369 185 464 l 474 379 m 131 1060 l 131 1061 q 146 1079 131 1067 q 181 1092 161 1092 q 208 1072 188 1092 q 256 1024 229 1053 q 312 959 283 994 q 363 892 340 924 q 411 959 383 924 q 466 1024 439 994 q 515 1072 493 1053 q 544 1092 536 1092 q 576 1079 561 1092 q 592 1061 592 1067 l 433 817 q 408 809 429 811 q 361 807 386 807 q 313 809 335 807 q 288 817 290 811 l 131 1060 z "},"":{"ha":897,"x_min":49,"x_max":835,"o":"m 49 436 q 87 643 49 551 q 193 799 125 735 q 353 899 261 864 q 553 933 444 933 q 643 923 599 933 q 723 897 688 913 q 781 863 758 881 q 806 828 804 844 l 806 700 q 799 690 806 694 q 785 682 793 685 q 769 678 778 679 q 757 676 761 676 q 741 692 750 676 q 722 728 732 708 q 700 779 711 750 q 674 810 694 796 q 623 834 653 824 q 558 850 593 844 q 489 856 522 856 q 345 824 404 856 q 249 739 286 792 q 197 617 213 686 q 181 474 181 547 q 206 302 181 379 q 277 171 232 225 q 385 87 322 117 q 524 57 449 57 q 568 58 538 57 q 631 66 599 58 q 687 91 663 74 q 711 143 711 108 l 711 350 l 568 350 q 518 356 529 350 q 507 368 507 361 q 534 418 507 404 q 607 432 561 432 l 835 432 l 835 135 q 833 118 835 128 q 819 99 831 108 q 747 42 792 65 q 650 5 701 19 q 547 -16 599 -10 q 454 -22 496 -22 q 309 7 382 -22 q 178 94 236 36 q 85 238 121 151 q 49 436 49 324 m 299 999 q 264 1011 279 999 q 249 1029 249 1024 l 406 1274 q 431 1281 408 1279 q 479 1283 453 1283 q 526 1281 504 1283 q 551 1274 547 1279 l 710 1029 q 694 1011 710 1024 q 663 999 679 999 q 633 1017 654 999 q 584 1065 611 1036 q 529 1130 557 1094 q 481 1197 501 1165 q 430 1131 458 1165 q 374 1067 401 1096 q 326 1018 347 1038 q 299 999 306 999 z "},"":{"ha":672,"x_min":25,"x_max":650,"o":"m 106 94 q 135 168 106 133 q 200 231 164 203 q 83 291 125 246 q 40 415 40 336 q 63 521 40 475 q 124 598 85 567 q 219 646 164 629 q 343 663 275 663 q 449 643 399 663 q 495 683 471 661 q 540 725 519 706 q 577 758 561 744 q 600 771 593 771 q 633 758 617 771 q 650 726 650 746 q 631 681 650 700 q 587 651 613 663 q 535 632 561 639 q 492 619 508 625 q 547 560 526 596 q 568 479 568 524 q 546 363 568 411 q 486 283 524 314 q 399 237 449 251 q 296 222 350 222 l 263 222 q 238 178 249 203 q 228 124 228 154 q 249 89 228 97 q 307 81 269 81 q 540 29 469 75 q 610 -86 610 -17 q 574 -222 610 -165 q 483 -315 538 -279 q 364 -368 428 -351 q 246 -385 300 -385 q 80 -330 135 -385 q 25 -186 25 -275 q 38 -120 25 -150 q 70 -67 50 -90 q 115 -27 90 -44 q 164 3 139 -10 q 119 37 132 11 q 106 94 107 63 m 314 292 q 420 321 381 292 q 460 425 460 350 q 411 551 460 508 q 293 594 363 594 q 184 568 215 594 q 153 471 153 542 q 190 338 153 383 q 314 292 226 292 m 140 -149 q 183 -260 140 -218 q 331 -303 226 -303 q 419 -292 386 -303 q 470 -259 453 -281 q 493 -203 488 -237 q 499 -124 499 -169 q 431 -38 499 -72 q 226 0 363 -4 q 140 -149 140 -54 m 133 779 q 99 792 114 779 q 83 810 83 804 l 240 1054 q 265 1062 243 1060 q 314 1064 288 1064 q 360 1062 339 1064 q 386 1054 382 1060 l 544 810 q 529 792 544 804 q 497 779 514 779 q 467 798 489 779 q 419 846 446 817 q 364 910 392 875 q 315 978 336 946 q 265 911 293 946 q 209 847 236 876 q 161 799 182 818 q 133 779 140 779 z "},"":{"ha":897,"x_min":49,"x_max":835,"o":"m 49 436 q 87 643 49 551 q 193 799 125 735 q 353 899 261 864 q 553 933 444 933 q 643 923 599 933 q 723 897 688 913 q 781 863 758 881 q 806 828 804 844 l 806 700 q 799 690 806 694 q 785 682 793 685 q 769 678 778 679 q 757 676 761 676 q 741 692 750 676 q 722 728 732 708 q 700 779 711 750 q 674 810 694 796 q 623 834 653 824 q 558 850 593 844 q 489 856 522 856 q 345 824 404 856 q 249 739 286 792 q 197 617 213 686 q 181 474 181 547 q 206 302 181 379 q 277 171 232 225 q 385 87 322 117 q 524 57 449 57 q 568 58 538 57 q 631 66 599 58 q 687 91 663 74 q 711 143 711 108 l 711 350 l 568 350 q 518 356 529 350 q 507 368 507 361 q 534 418 507 404 q 607 432 561 432 l 835 432 l 835 135 q 833 118 835 128 q 819 99 831 108 q 747 42 792 65 q 650 5 701 19 q 547 -16 599 -10 q 454 -22 496 -22 q 309 7 382 -22 q 178 94 236 36 q 85 238 121 151 q 49 436 49 324 m 476 1040 q 388 1060 429 1040 q 315 1107 346 1079 q 267 1168 285 1135 q 250 1228 250 1201 q 263 1253 250 1239 q 290 1268 275 1268 q 311 1248 299 1268 q 346 1203 324 1228 q 401 1159 368 1179 q 483 1139 435 1139 q 562 1159 529 1139 q 617 1203 594 1179 q 652 1248 639 1228 q 672 1268 665 1268 q 697 1256 683 1268 q 710 1232 710 1243 l 710 1228 q 681 1167 701 1200 q 631 1106 661 1135 q 561 1059 600 1078 q 476 1040 522 1040 z "}}}
